<svg width="40" height="42" viewBox="0 0 40 42" fill="none" xmlns="http://www.w3.org/2000/svg" xmlns:xlink="http://www.w3.org/1999/xlink">
<mask id="mask_0_51_96" style="mask-type:alpha" maskUnits="userSpaceOnUse" x="0" y="9.0802" width="19.585884" height="16.181601">
<rect  x="0" y="9.08" width="39.172" height="32.363" fill="#000000"/>
</mask>
<g mask="url(#mask_0_51_96)">
<path d="M9.431,12.08C8.549,12.08 5.601,12.436 4.755,17.004L3.211,29.004C2.709,32.37 3.097,34.806 4.367,36.28C5.621,37.736 7.865,38.444 11.225,38.444L27.921,38.444C30.017,38.444 32.879,38.026 34.607,36.03C35.979,34.448 36.451,32.092 36.011,29.026L34.453,16.922C33.789,13.94 32.037,12.08 29.789,12.08L9.431,12.08ZM27.921,41.444L11.225,41.444C6.939,41.444 3.953,40.394 2.095,38.236C0.229,36.072 -0.395,32.826 0.241,28.59L1.793,16.538C2.813,11.012 6.543,9.08 9.431,9.08L29.789,9.08C32.689,9.08 36.215,11.006 37.405,16.408L38.983,28.622C39.549,32.564 38.841,35.726 36.875,37.994C34.919,40.25 31.823,41.444 27.921,41.444L27.921,41.444Z" clip-rule="evenodd" fill-rule="evenodd" fill="#000000"/>
</g>
<path d="M28.196,11.641C27.368,11.641 26.696,10.969 26.696,10.141C26.696,6.203 23.492,3.001 19.556,3.001L19.526,3.001C17.644,3.001 15.81,3.759 14.48,5.081C13.144,6.411 12.378,8.257 12.378,10.141C12.378,10.969 11.706,11.641 10.878,11.641C10.05,11.641 9.378,10.969 9.378,10.141C9.378,7.463 10.466,4.845 12.362,2.955C14.252,1.077 16.858,0.001 19.52,0.001L19.562,0.001C25.148,0.001 29.696,4.549 29.696,10.141C29.696,10.969 29.024,11.641 28.196,11.641Z" clip-rule="evenodd" fill-rule="evenodd" fill="#000000"/>
<path d="M25.487,20.648L25.395,20.648C24.567,20.648 23.895,19.976 23.895,19.148C23.895,18.32 24.567,17.648 25.395,17.648C26.223,17.648 26.941,18.32 26.941,19.148C26.941,19.976 26.315,20.648 25.487,20.648Z" clip-rule="evenodd" fill-rule="evenodd" fill="#000000"/>
<path d="M13.824,20.648L13.734,20.648C12.906,20.648 12.234,19.976 12.234,19.148C12.234,18.32 12.906,17.648 13.734,17.648C14.562,17.648 15.28,18.32 15.28,19.148C15.28,19.976 14.652,20.648 13.824,20.648Z" clip-rule="evenodd" fill-rule="evenodd" fill="#000000"/>
</svg>
