<svg width="70" height="64" viewBox="0 0 70 64" fill="none" xmlns="http://www.w3.org/2000/svg" xmlns:xlink="http://www.w3.org/1999/xlink">
<path d="M60.508,48.521C64.561,45.121 66.856,40.589 66.856,35.887C66.856,30.889 64.37,26.214 59.856,22.724C55.462,19.328 49.647,17.458 43.48,17.458C37.314,17.458 31.498,19.328 27.106,22.724C22.591,26.214 20.105,30.889 20.105,35.887C20.105,40.885 22.591,45.559 27.106,49.049C31.498,52.445 37.314,54.315 43.48,54.315C44.302,54.315 45.129,54.281 45.949,54.213L47.349,55.356C52.175,59.291 58.346,61.458 64.73,61.458L66.855,61.458L66.855,57.201L66.233,56.615C63.778,54.298 61.832,51.547 60.508,48.521L60.508,48.521ZM50.133,52.333L47.322,50.04L46.385,50.148C45.421,50.259 44.451,50.315 43.48,50.315C32.935,50.315 24.355,43.842 24.355,35.887C24.355,27.931 32.935,21.458 43.48,21.458C54.026,21.458 62.605,27.931 62.605,35.887C62.605,39.85 60.504,43.551 56.689,46.306L55.465,47.19L56.03,48.695C57.187,51.767 58.888,54.633 61.061,57.172C57.015,56.536 53.233,54.862 50.133,52.333L50.133,52.333Z" fill="#2C3333"/>
<path d="M8.974,39.143C10.963,36.773 12.525,34.111 13.597,31.265L14.157,29.768L12.934,28.885C9.337,26.286 7.355,22.799 7.355,19.065C7.355,11.562 15.458,5.458 25.418,5.458C32.745,5.458 39.067,8.762 41.897,13.495C42.422,13.471 42.95,13.458 43.48,13.458C44.545,13.458 45.6,13.507 46.646,13.604C45.552,10.937 43.653,8.502 41.041,6.484C36.849,3.243 31.301,1.458 25.418,1.458C19.534,1.458 13.987,3.243 9.794,6.484C5.481,9.819 3.105,14.287 3.105,19.065C3.105,23.54 5.277,27.852 9.115,31.096C7.863,33.932 6.033,36.511 3.728,38.687L3.105,39.272L3.105,43.458L5.23,43.458C9.16,43.458 13.035,42.596 16.55,40.942C16.165,39.568 15.939,38.157 15.877,36.737C13.743,37.913 11.407,38.728 8.974,39.143L8.974,39.143Z" fill="#2C3333"/>
</svg>
