<svg width="68" height="64" viewBox="0 0 68 64" fill="none" xmlns="http://www.w3.org/2000/svg" xmlns:xlink="http://www.w3.org/1999/xlink">
<path d="M59.527,49.063C63.581,45.663 65.876,41.131 65.876,36.429C65.876,31.431 63.39,26.756 58.876,23.266C54.482,19.87 48.667,18 42.5,18C36.333,18 30.518,19.87 26.125,23.266C21.611,26.756 19.125,31.431 19.125,36.429C19.125,41.427 21.611,46.101 26.125,49.591C30.518,52.987 36.333,54.857 42.5,54.857C43.322,54.857 44.148,54.823 44.968,54.755L46.369,55.898C51.194,59.833 57.365,62 63.75,62L65.875,62L65.875,57.743L65.253,57.157C62.797,54.84 60.852,52.089 59.527,49.063L59.527,49.063ZM49.152,52.875L46.342,50.582L45.405,50.69C44.441,50.801 43.471,50.857 42.5,50.857C31.955,50.857 23.375,44.384 23.375,36.429C23.375,28.473 31.955,22 42.5,22C53.045,22 61.625,28.473 61.625,36.429C61.625,40.392 59.524,44.093 55.709,46.848L54.485,47.732L55.05,49.237C56.207,52.309 57.908,55.175 60.081,57.714C56.034,57.078 52.253,55.404 49.152,52.875L49.152,52.875Z" fill="#2C3333"/>
<path d="M7.993,39.685C9.982,37.315 11.544,34.653 12.616,31.807L13.177,30.31L11.954,29.427C8.356,26.828 6.375,23.341 6.375,19.607C6.375,12.104 14.478,6 24.437,6C31.764,6 38.086,9.304 40.916,14.037C41.442,14.014 41.97,14 42.5,14C43.565,14 44.62,14.049 45.665,14.146C44.572,11.479 42.672,9.044 40.061,7.026C35.869,3.785 30.321,2 24.437,2C18.554,2 13.006,3.785 8.814,7.026C4.5,10.361 2.125,14.829 2.125,19.607C2.125,24.082 4.297,28.394 8.135,31.638C6.882,34.474 5.052,37.053 2.747,39.229L2.125,39.814L2.125,44L4.25,44C8.18,44 12.055,43.138 15.57,41.484C15.184,40.11 14.959,38.699 14.896,37.279C12.763,38.455 10.426,39.27 7.993,39.685L7.993,39.685Z" fill="#2C3333"/>
</svg>
