<svg width="44" height="46" viewBox="0 0 44 46" fill="none" xmlns="http://www.w3.org/2000/svg" xmlns:xlink="http://www.w3.org/1999/xlink">
<path d="M36.743,6.07C35.768,5.185 31.561,2.541 22.782,2.503C22.782,2.503 12.388,1.82 7.342,6.391C4.532,9.164 3.586,13.287 3.481,18.32C3.376,23.353 2.84,32.965 12.045,35.523C12.045,35.523 12.009,42.659 12.004,43.287C12.004,43.725 12.074,44.025 12.325,44.087C12.506,44.131 12.775,44.038 13.005,43.809C14.477,42.331 19.188,36.646 19.188,36.646C25.511,37.059 30.541,35.811 31.082,35.634C32.355,35.226 39.25,34.631 40.42,25.203C41.634,15.479 39.982,8.843 36.743,6.07Z" fill="#FFFFFF"/>
<path d="M39.033,3.719C37.88,2.656 33.221,-0.727 22.844,-0.773C22.844,-0.773 10.606,-1.511 4.64,3.962C1.319,7.283 0.15,12.144 0.027,18.169C-0.096,24.195 -0.255,35.488 10.63,38.55L10.64,38.55L10.633,43.222C10.633,43.222 10.564,45.113 11.809,45.499C13.316,45.967 14.2,44.529 15.638,42.98C16.428,42.129 17.518,40.879 18.34,39.924C25.784,40.55 31.51,39.118 32.16,38.907C33.663,38.419 42.169,37.329 43.553,26.038C44.98,14.399 42.862,7.038 39.033,3.719ZM40.295,25.203C39.127,34.631 32.229,35.224 30.957,35.632C30.416,35.806 25.387,37.057 19.063,36.644C19.063,36.644 14.351,42.329 12.879,43.807C12.65,44.038 12.379,44.131 12.199,44.085C11.946,44.023 11.876,43.723 11.879,43.284C11.883,42.658 11.919,35.52 11.919,35.52C2.711,32.964 3.248,23.353 3.352,18.32C3.457,13.287 4.402,9.164 7.211,6.391C12.257,1.82 22.652,2.503 22.652,2.503C31.431,2.541 35.637,5.185 36.613,6.07C39.851,8.844 41.501,15.479 40.295,25.2L40.295,25.203Z" fill="#7360F2"/>
<path d="M27.116,18.493C26.965,18.493 26.821,18.435 26.712,18.332C26.603,18.228 26.538,18.086 26.53,17.936C26.431,15.944 25.492,14.969 23.577,14.866C23.424,14.854 23.282,14.782 23.182,14.667C23.081,14.552 23.029,14.402 23.037,14.249C23.045,14.096 23.113,13.953 23.226,13.849C23.338,13.745 23.487,13.69 23.64,13.694C26.167,13.833 27.572,15.276 27.702,17.878C27.706,17.955 27.694,18.031 27.668,18.104C27.642,18.177 27.603,18.243 27.551,18.301C27.499,18.358 27.437,18.404 27.367,18.437C27.297,18.47 27.222,18.489 27.145,18.493L27.116,18.493Z" fill="#7360F2"/>
<path d="M30.127,19.503L30.113,19.503C29.958,19.499 29.81,19.434 29.703,19.321C29.595,19.209 29.537,19.058 29.54,18.903C29.586,16.897 29.013,15.273 27.789,13.937C26.565,12.602 24.897,11.878 22.674,11.715C22.519,11.704 22.374,11.631 22.272,11.513C22.17,11.395 22.12,11.241 22.131,11.086C22.142,10.93 22.215,10.786 22.333,10.684C22.451,10.582 22.605,10.531 22.76,10.542C25.261,10.726 27.244,11.601 28.654,13.143C30.064,14.685 30.765,16.636 30.714,18.927C30.71,19.081 30.647,19.227 30.538,19.334C30.428,19.442 30.281,19.502 30.127,19.503Z" fill="#7360F2"/>
<path d="M33.21,20.707C33.055,20.707 32.906,20.645 32.796,20.536C32.686,20.427 32.624,20.279 32.623,20.124C32.595,16.537 31.562,13.796 29.464,11.748C27.391,9.729 24.771,8.693 21.678,8.671C21.601,8.67 21.525,8.655 21.454,8.625C21.383,8.596 21.318,8.552 21.264,8.497C21.154,8.387 21.093,8.237 21.093,8.082C21.094,7.926 21.156,7.777 21.267,7.667C21.377,7.558 21.527,7.496 21.682,7.497L21.687,7.497C25.093,7.522 27.985,8.669 30.283,10.908C32.582,13.147 33.766,16.251 33.797,20.117C33.798,20.273 33.738,20.422 33.628,20.533C33.519,20.644 33.371,20.707 33.215,20.708L33.21,20.707Z" fill="#7360F2"/>
<path d="M23.724,25.767C23.724,25.767 24.549,25.837 24.993,25.29L25.86,24.2C26.277,23.66 27.285,23.315 28.273,23.865C29.012,24.287 29.731,24.746 30.425,25.239C31.08,25.721 32.421,26.841 32.426,26.841C33.065,27.38 33.212,28.173 32.777,29.008C32.777,29.013 32.774,29.021 32.774,29.025C32.294,29.856 31.686,30.605 30.971,31.245C30.963,31.249 30.963,31.253 30.955,31.258C30.334,31.776 29.724,32.071 29.125,32.142C29.037,32.158 28.947,32.163 28.857,32.159C28.593,32.162 28.33,32.121 28.079,32.039L28.06,32.011C27.136,31.75 25.595,31.099 23.028,29.683C21.543,28.873 20.128,27.939 18.801,26.89C18.135,26.365 17.5,25.802 16.899,25.204L16.835,25.14L16.771,25.076L16.707,25.012C16.686,24.991 16.665,24.969 16.643,24.948C16.045,24.347 15.482,23.712 14.957,23.046C13.908,21.719 12.974,20.305 12.164,18.82C10.748,16.252 10.097,14.712 9.836,13.787L9.808,13.768C9.726,13.517 9.686,13.254 9.689,12.99C9.684,12.9 9.689,12.81 9.705,12.722C9.779,12.124 10.075,11.513 10.591,10.89C10.595,10.883 10.599,10.883 10.603,10.874C11.243,10.16 11.992,9.551 12.823,9.073C12.827,9.073 12.835,9.068 12.84,9.068C13.676,8.633 14.468,8.781 15.007,9.417C15.011,9.421 16.129,10.762 16.608,11.417C17.102,12.112 17.561,12.831 17.983,13.572C18.533,14.558 18.188,15.568 17.648,15.985L16.558,16.851C16.008,17.295 16.081,18.12 16.081,18.12C16.081,18.12 17.694,24.228 23.724,25.767Z" fill="#7360F2"/>
</svg>
