<svg width="48" height="40" viewBox="0 0 48 40" fill="none" xmlns="http://www.w3.org/2000/svg" xmlns:xlink="http://www.w3.org/1999/xlink">
<path d="M3.529,26.74C3.529,32.33 10.807,36.862 19.785,36.862C28.764,36.862 36.041,32.329 36.041,26.74C36.041,21.151 28.763,16.618 19.785,16.618C10.807,16.618 3.529,21.15 3.529,26.74Z" fill="#FFFFFF"/>
<path d="M20.164,36.038C12.218,36.822 5.359,33.231 4.842,28.013C4.326,22.797 10.352,17.932 18.296,17.147C26.243,16.36 33.103,19.952 33.619,25.167C34.134,30.386 28.111,35.252 20.164,36.038ZM36.058,18.719C35.382,18.518 34.919,18.379 35.272,17.491C36.039,15.563 36.118,13.899 35.287,12.712C33.729,10.487 29.466,10.606 24.579,12.653C24.579,12.65 23.044,13.324 23.436,12.107C24.188,9.69 24.074,7.666 22.904,6.498C20.254,3.845 13.203,6.598 7.157,12.642C2.629,17.17 0,21.969 0,26.119C0,34.057 10.179,38.882 20.138,38.882C33.192,38.882 41.875,31.298 41.875,25.277C41.875,21.638 38.811,19.573 36.058,18.719Z" fill="#E6162D"/>
<path d="M44.726,4.194C41.574,0.699 36.924,-0.633 32.632,0.279L32.631,0.279C32.395,0.329 32.171,0.426 31.972,0.562C31.773,0.699 31.603,0.874 31.472,1.077C31.341,1.279 31.251,1.506 31.207,1.743C31.163,1.98 31.167,2.224 31.217,2.46C31.268,2.696 31.364,2.92 31.501,3.118C31.638,3.317 31.813,3.487 32.015,3.618C32.218,3.75 32.444,3.84 32.681,3.883C32.919,3.927 33.162,3.924 33.398,3.873C36.452,3.225 39.756,4.175 41.999,6.656C43.061,7.834 43.795,9.271 44.127,10.822C44.458,12.373 44.375,13.985 43.886,15.494L43.887,15.494C43.812,15.724 43.783,15.966 43.803,16.207C43.822,16.448 43.888,16.682 43.998,16.897C44.108,17.112 44.26,17.303 44.444,17.46C44.628,17.616 44.841,17.735 45.07,17.809C45.534,17.958 46.038,17.918 46.472,17.697C46.905,17.475 47.234,17.091 47.384,16.628L47.385,16.62C48.73,12.445 47.88,7.685 44.726,4.194Z" fill="#FF9933"/>
<path d="M20.602,26.589C20.324,27.065 19.71,27.293 19.229,27.095C18.755,26.9 18.607,26.369 18.876,25.901C19.153,25.437 19.744,25.21 20.216,25.397C20.696,25.573 20.868,26.111 20.602,26.589ZM18.07,29.839C17.302,31.065 15.656,31.603 14.416,31.037C13.194,30.481 12.834,29.056 13.603,27.86C14.362,26.67 15.953,26.139 17.183,26.654C18.428,27.186 18.826,28.6 18.07,29.839ZM20.958,21.161C17.177,20.176 12.903,22.061 11.26,25.393C9.588,28.791 11.206,32.563 15.025,33.797C18.982,35.073 23.647,33.118 25.269,29.449C26.869,25.864 24.872,22.172 20.958,21.161Z" fill="#000000"/>
</svg>
