<svg width="48" height="42" viewBox="0 0 48 42" fill="none" xmlns="http://www.w3.org/2000/svg" xmlns:xlink="http://www.w3.org/1999/xlink">
<g opacity="0.1">
<path d="M25.001,4.5L18.66,4.5L18.692,4.64L18.695,4.652L18.728,4.781C19.188,6.528 20.306,8.029 21.848,8.972C23.389,9.914 25.235,10.225 27,9.839L27,6.5C26.998,5.97 26.787,5.462 26.413,5.088C26.038,4.713 25.53,4.502 25.001,4.5L25.001,4.5Z" fill="#000000"/>
</g>
<g opacity="0.2">
<path d="M23.501,6L19.175,6C19.743,7.197 20.639,8.209 21.759,8.917C22.878,9.625 24.176,10.001 25.501,10.001L25.501,8C25.499,7.47 25.288,6.962 24.913,6.588C24.539,6.213 24.031,6.002 23.501,6L23.501,6Z" fill="#000000"/>
</g>
<g opacity="0.2">
<path d="M23.501,6L19.175,6C19.743,7.197 20.639,8.209 21.759,8.917C22.878,9.625 24.176,10.001 25.501,10.001L25.501,8C25.499,7.47 25.288,6.962 24.913,6.588C24.539,6.213 24.031,6.002 23.501,6L23.501,6Z" fill="#000000"/>
</g>
<path d="M41.251,10.5C44.15,10.5 46.501,8.15 46.501,5.25C46.501,2.351 44.15,0 41.251,0C38.351,0 36.001,2.351 36.001,5.25C36.001,8.15 38.351,10.5 41.251,10.5Z" fill="#5059C9"/>
<path d="M45.75,12L33.958,12C33.704,12 33.46,12.102 33.28,12.282C33.1,12.462 32.998,12.706 32.998,12.96L32.998,25.125C32.966,26.886 33.539,28.604 34.623,29.993C35.706,31.381 37.233,32.355 38.949,32.751C40.042,32.981 41.172,32.963 42.257,32.701C43.342,32.438 44.355,31.937 45.222,31.233C46.089,30.53 46.788,29.642 47.269,28.634C47.749,27.626 47.999,26.524 48,25.407L48,14.25C48,13.654 47.763,13.081 47.341,12.659C46.919,12.238 46.347,12 45.75,12Z" fill="#5059C9"/>
<path d="M37.499,14.25L37.499,28.5C37.501,31.141 36.631,33.709 35.024,35.804C33.417,37.9 31.163,39.407 28.612,40.091C26.062,40.774 23.356,40.597 20.917,39.586C18.477,38.576 16.439,36.788 15.119,34.5C14.831,34.021 14.58,33.519 14.369,33C14.173,32.511 14.008,32.01 13.874,31.5C13.627,30.52 13.501,29.512 13.499,28.5L13.499,14.25C13.499,13.955 13.557,13.662 13.67,13.389C13.783,13.116 13.949,12.868 14.158,12.659C14.367,12.45 14.615,12.284 14.888,12.171C15.161,12.058 15.454,12 15.749,12L35.249,12C35.545,12 35.838,12.058 36.111,12.171C36.384,12.284 36.632,12.45 36.841,12.659C37.05,12.868 37.216,13.116 37.329,13.389C37.442,13.662 37.5,13.955 37.499,14.25L37.499,14.25Z" fill="#7B83EB"/>
<g opacity="0.1">
<path d="M26.999,12L26.999,31.005C26.999,31.458 26.845,31.896 26.561,32.248C26.277,32.6 25.881,32.844 25.439,32.94C25.298,32.982 25.152,33.003 25.004,33L14.369,33C14.173,32.511 14.008,32.01 13.874,31.5C13.627,30.52 13.501,29.512 13.499,28.5L13.499,14.25C13.499,13.955 13.557,13.662 13.67,13.389C13.783,13.116 13.949,12.868 14.158,12.659C14.367,12.45 14.615,12.284 14.888,12.171C15.161,12.058 15.454,12 15.749,12L26.999,12Z" fill="#000000"/>
</g>
<g opacity="0.2">
<path d="M25.499,12L25.499,32.505C25.502,32.653 25.481,32.799 25.439,32.94C25.343,33.382 25.099,33.778 24.747,34.062C24.395,34.346 23.957,34.5 23.504,34.5L15.119,34.5C14.831,34.021 14.58,33.519 14.369,33C14.173,32.511 14.008,32.01 13.874,31.5C13.627,30.52 13.501,29.512 13.499,28.5L13.499,14.25C13.499,13.955 13.557,13.662 13.67,13.389C13.783,13.116 13.949,12.868 14.158,12.659C14.367,12.45 14.615,12.284 14.888,12.171C15.161,12.058 15.454,12 15.749,12L25.499,12Z" fill="#000000"/>
</g>
<g opacity="0.2">
<path d="M25.499,12L25.499,29.505C25.497,30.034 25.286,30.54 24.912,30.914C24.539,31.287 24.033,31.498 23.504,31.5L13.874,31.5C13.627,30.52 13.501,29.512 13.499,28.5L13.499,14.25C13.499,13.955 13.557,13.662 13.67,13.389C13.783,13.116 13.949,12.868 14.158,12.659C14.367,12.45 14.615,12.284 14.888,12.171C15.161,12.058 15.454,12 15.749,12L25.499,12Z" fill="#000000"/>
</g>
<g opacity="0.2">
<path d="M15.749,12C15.454,12 15.161,12.058 14.888,12.171C14.615,12.284 14.367,12.45 14.158,12.659C13.949,12.868 13.783,13.116 13.67,13.389C13.557,13.662 13.499,13.955 13.499,14.25L13.499,28.5C13.501,29.512 13.627,30.52 13.874,31.5L22.004,31.5C22.533,31.498 23.039,31.287 23.412,30.914C23.786,30.54 23.997,30.034 23.999,29.505L23.999,12L15.749,12Z" fill="#000000"/>
</g>
<path d="M1.999,6L22,6C22.531,6 23.039,6.211 23.414,6.586C23.789,6.961 24,7.469 24,8L24,28.001C24,28.531 23.789,29.04 23.414,29.415C23.039,29.79 22.531,30 22,30L1.999,30C1.469,30 0.961,29.79 0.586,29.415C0.211,29.04 0,28.531 0,28.001L0,8C0,7.469 0.211,6.961 0.586,6.586C0.961,6.211 1.469,6 1.999,6L1.999,6Z" fill="#4B53BC"/>
<path d="M17.97,13.463L13.485,13.463L13.485,25.493L10.542,25.493L10.542,13.463L6.03,13.463L6.03,10.508L17.97,10.508L17.97,13.463Z" fill="#FFFFFF"/>
</svg>
