<svg width="42" height="48" viewBox="0 0 42 48" fill="none" xmlns="http://www.w3.org/2000/svg" xmlns:xlink="http://www.w3.org/1999/xlink">
<path d="M30.053,15.407C33.14,17.621 36.921,18.924 41.005,18.924L41.005,12.716C38.726,12.228 36.708,11.033 35.19,9.37C32.593,7.744 30.722,5.06 30.173,1.92L24.448,1.92L24.448,33.421C24.435,37.094 21.465,40.067 17.803,40.067C15.645,40.067 13.728,39.035 12.514,37.436C10.345,36.337 8.858,34.083 8.858,31.479C8.858,27.796 11.833,24.811 15.503,24.811C16.206,24.811 16.884,24.92 17.52,25.123L17.52,18.847C9.638,19.01 3.3,25.473 3.3,33.421C3.3,37.389 4.878,40.986 7.44,43.614C9.751,45.172 12.534,46.08 15.527,46.08C23.549,46.08 30.053,39.553 30.053,31.502L30.053,15.407L30.053,15.407Z" fill="#000000"/>
<path d="M41.005,12.716L41.005,11.037C38.95,11.04 36.934,10.462 35.19,9.37C36.734,11.066 38.767,12.236 41.005,12.716ZM30.173,1.92C30.121,1.62 30.081,1.318 30.053,1.014L30.053,0L22.148,0L22.148,31.502C22.135,35.174 19.166,38.147 15.503,38.147C14.428,38.147 13.413,37.891 12.514,37.436C13.728,39.035 15.645,40.067 17.803,40.067C21.465,40.067 24.435,37.094 24.448,33.421L24.448,1.92L30.173,1.92ZM17.52,18.847L17.52,17.06C16.86,16.969 16.194,16.924 15.527,16.924C7.504,16.924 1,23.451 1,31.502C1,36.549 3.556,40.997 7.44,43.614C4.878,40.986 3.3,37.389 3.3,33.421C3.3,25.473 9.638,19.01 17.52,18.847Z" fill="#00F2EA"/>
</svg>
