<svg width="34" height="38" viewBox="0 0 34 38" fill="none" xmlns="http://www.w3.org/2000/svg" xmlns:xlink="http://www.w3.org/1999/xlink">
<path d="M20.112,22.976C20.048,22.4 19.856,21.984 19.472,21.6C18.752,20.848 17.488,20.352 16,20.352C14.512,20.352 13.248,20.832 12.528,21.6C12.16,22 11.952,22.4 11.888,22.976C11.76,24.096 11.84,25.056 11.968,26.608C12.096,28.08 12.336,30.048 12.64,32.032C12.864,33.456 13.04,34.224 13.2,34.768C13.472,35.664 14.448,36.432 16,36.432C17.552,36.432 18.544,35.648 18.8,34.768C18.96,34.224 19.136,33.456 19.36,32.032C19.664,30.032 19.904,28.08 20.032,26.608C20.176,25.056 20.24,24.096 20.112,22.976Z" fill="#FFFFFF"/>
<path d="M19.936,14.816C19.936,16.992 18.176,18.752 16,18.752C13.824,18.752 12.064,16.992 12.064,14.816C12.064,12.64 13.824,10.88 16,10.88C18.176,10.88 19.936,12.656 19.936,14.816Z" fill="#FFFFFF"/>
<path d="M15.952,-0.688C6.768,-0.656 -0.752,6.8 -0.88,15.984C-0.976,23.424 3.776,29.792 10.416,32.128C10.576,32.192 10.736,32.048 10.72,31.888C10.64,31.312 10.544,30.736 10.48,30.16C10.448,29.952 10.32,29.792 10.144,29.696C4.896,27.408 1.232,22.144 1.296,16.048C1.376,8.048 7.904,1.536 15.888,1.472C24.064,1.408 30.736,8.032 30.736,16.192C30.736,22.224 27.088,27.408 21.888,29.696C21.696,29.776 21.568,29.952 21.552,30.16C21.472,30.736 21.392,31.312 21.312,31.888C21.28,32.064 21.456,32.192 21.616,32.128C28.192,29.824 32.912,23.552 32.912,16.192C32.88,6.88 25.28,-0.704 15.952,-0.688Z" fill="#FFFFFF"/>
<path d="M15.568,4.912C9.584,5.136 4.784,10.08 4.704,16.064C4.656,20 6.624,23.488 9.648,25.552C9.792,25.648 10,25.536 10,25.36C9.952,24.672 9.952,24.064 9.984,23.424C10,23.216 9.92,23.024 9.76,22.88C7.92,21.152 6.8,18.688 6.864,15.968C6.992,11.168 10.848,7.264 15.648,7.072C20.864,6.864 25.152,11.056 25.152,16.208C25.152,18.832 24.032,21.2 22.256,22.88C22.112,23.024 22.032,23.216 22.032,23.424C22.064,24.048 22.048,24.656 22.016,25.344C22,25.52 22.208,25.648 22.368,25.536C25.344,23.504 27.312,20.064 27.312,16.192C27.328,9.824 22,4.656 15.568,4.912Z" fill="#FFFFFF"/>
</svg>
