<svg width="36" height="38" viewBox="0 0 36 38" fill="none" xmlns="http://www.w3.org/2000/svg" xmlns:xlink="http://www.w3.org/1999/xlink">
<path d="M15.153,18L19.832,23.098L26.123,26.931L27.22,18.032L26.123,9.331L19.711,12.698L15.153,18Z" fill="#00832D"/>
<path d="M33.307,3.715L26.121,9.331L26.121,26.931L33.34,32.573C34.42,33.378 36,32.643 36,31.334L36,4.928C36,3.603 34.385,2.876 33.307,3.715ZM15.151,18L15.151,26.105L-0.756,26.105L-0.756,36.824L22.83,36.824C24.649,36.824 26.121,35.42 26.121,33.687L26.121,26.931L15.151,18Z" fill="#00AC47"/>
<path d="M22.83,-0.824L-0.756,-0.824L-0.756,9.895L15.151,9.895L15.151,18L26.121,9.336L26.121,2.314C26.121,0.58 24.649,-0.824 22.83,-0.824Z" fill="#FFBA00"/>
</svg>
