<svg width="26" height="26" viewBox="0 0 26 26" fill="none" xmlns="http://www.w3.org/2000/svg" xmlns:xlink="http://www.w3.org/1999/xlink">
<path d="M12,0.545C18.3,0.545 23.455,5.673 23.455,12C23.455,18.327 18.327,23.455 12,23.455C5.673,23.455 0.545,18.327 0.545,12C0.545,5.673 5.7,0.545 12,0.545ZM12,-0.545C5.073,-0.545 -0.545,5.073 -0.545,12C-0.545,18.927 5.073,24.546 12,24.546C18.927,24.546 24.546,18.927 24.546,12C24.546,5.073 18.927,-0.545 12,-0.545Z" fill="#FFFFFF"/>
<path d="M7.636,18.273L18.273,11.727L7.636,5.727L7.636,18.273Z" fill="#FFFFFF"/>
</svg>
