<svg width="42" height="42" viewBox="0 0 42 42" fill="none" xmlns="http://www.w3.org/2000/svg" xmlns:xlink="http://www.w3.org/1999/xlink">
<mask id="mask_0_51_77" style="mask-type:alpha" maskUnits="userSpaceOnUse" x="0.000366" y="0.000397" width="20.002745" height="20.000999">
<rect  x="0" y="0" width="40.005" height="40.002" fill="#000000"/>
</mask>
<g mask="url(#mask_0_51_77)">
<path d="M17.89,36.151C19.07,37.303 20.97,37.289 22.142,36.111L23.586,34.671C24.706,33.553 26.254,32.915 27.832,32.915L29.892,32.915C31.56,32.915 32.916,31.559 32.916,29.893L32.916,27.835C32.916,26.233 33.536,24.727 34.668,23.593L36.108,22.151C36.694,21.563 37.008,20.801 37.006,19.993C37.004,19.187 36.686,18.429 36.112,17.857L34.67,16.413C33.536,15.271 32.916,13.767 32.916,12.165L32.916,10.111C32.916,8.443 31.56,7.087 29.892,7.087L27.836,7.087C26.234,7.087 24.728,6.465 23.594,5.339L22.15,3.893C20.948,2.703 19.03,2.709 17.856,3.891L16.418,5.333C15.27,6.467 13.764,7.087 12.168,7.087L10.11,7.087C8.444,7.089 7.088,8.445 7.088,10.111L7.088,12.161C7.088,13.763 6.466,15.269 5.338,16.405L3.918,17.827C3.904,17.843 3.89,17.855 3.876,17.869C2.702,19.051 2.708,20.969 3.89,22.143L5.334,23.587C6.466,24.723 7.088,26.229 7.088,27.831L7.088,29.893C7.088,31.559 8.442,32.915 10.11,32.915L12.164,32.915C13.768,32.917 15.274,33.539 16.408,34.669L17.85,36.107C17.862,36.121 17.876,36.135 17.89,36.151L17.89,36.151ZM19.998,40.003C18.464,40.003 16.93,39.423 15.756,38.259C15.74,38.243 15.724,38.227 15.708,38.209L14.288,36.791C13.722,36.229 12.966,35.917 12.162,35.915L10.11,35.915C6.788,35.915 4.088,33.213 4.088,29.893L4.088,27.831C4.088,27.027 3.774,26.273 3.21,25.705L1.772,24.269C-0.564,21.945 -0.592,18.161 1.702,15.801C1.72,15.783 1.738,15.765 1.756,15.747L3.212,14.287C3.774,13.721 4.088,12.963 4.088,12.161L4.088,10.111C4.088,6.791 6.788,4.089 10.108,4.087L12.168,4.087C12.97,4.087 13.726,3.773 14.3,3.207L15.73,1.773C18.068,-0.581 21.89,-0.593 24.248,1.751L25.71,3.213C26.276,3.775 27.032,4.087 27.836,4.087L29.892,4.087C33.214,4.087 35.916,6.789 35.916,10.111L35.916,12.165C35.916,12.967 36.228,13.725 36.794,14.295L38.23,15.733C39.368,16.863 40,18.373 40.006,19.983C40.012,21.593 39.39,23.107 38.256,24.249L36.79,25.711C36.228,26.277 35.916,27.031 35.916,27.835L35.916,29.893C35.916,33.213 33.214,35.915 29.894,35.915L27.832,35.915C27.04,35.915 26.266,36.235 25.704,36.793L24.268,38.229C23.094,39.411 21.546,40.003 19.998,40.003L19.998,40.003Z" clip-rule="evenodd" fill-rule="evenodd" fill="#000000"/>
</g>
<path d="M14.861,26.643C14.477,26.643 14.093,26.497 13.801,26.203C13.215,25.617 13.215,24.669 13.801,24.083L24.081,13.801C24.667,13.215 25.617,13.215 26.203,13.801C26.789,14.387 26.789,15.337 26.203,15.923L15.921,26.203C15.629,26.497 15.245,26.643 14.861,26.643Z" clip-rule="evenodd" fill-rule="evenodd" fill="#000000"/>
<path d="M25.007,26.998C23.901,26.998 22.997,26.104 22.997,24.998C22.997,23.892 23.883,22.998 24.989,22.998L25.007,22.998C26.113,22.998 27.007,23.892 27.007,24.998C27.007,26.104 26.113,26.998 25.007,26.998Z" clip-rule="evenodd" fill-rule="evenodd" fill="#000000"/>
<path d="M15.007,16.998C13.901,16.998 12.997,16.104 12.997,14.998C12.997,13.892 13.883,12.998 14.989,12.998L15.007,12.998C16.113,12.998 17.007,13.892 17.007,14.998C17.007,16.104 16.113,16.998 15.007,16.998Z" clip-rule="evenodd" fill-rule="evenodd" fill="#000000"/>
</svg>
