<svg width="48" height="34" viewBox="0 0 48 34" fill="none" xmlns="http://www.w3.org/2000/svg" xmlns:xlink="http://www.w3.org/1999/xlink">
<path d="M16.001,-0.047C18.101,-0.047 20.183,0.368 22.124,1.176C24.065,1.981 25.829,3.165 27.313,4.655C28.798,6.145 29.978,7.915 30.781,9.862C31.585,11.81 31.999,13.896 31.997,16.004C31.997,22.494 28.101,28.346 22.121,30.828C16.142,33.313 9.262,31.94 4.686,27.349C0.11,22.761 -1.257,15.856 1.218,9.862C3.694,3.865 9.529,-0.044 15.998,-0.044L16.001,-0.047ZM16.001,20.814C16.632,20.815 17.257,20.692 17.841,20.45C18.424,20.209 18.954,19.855 19.399,19.408C19.844,18.96 20.198,18.429 20.439,17.845C20.679,17.26 20.802,16.635 20.802,16.004C20.802,14.057 19.634,12.302 17.84,11.557C16.046,10.812 13.982,11.223 12.609,12.599C11.236,13.975 10.824,16.046 11.569,17.845C11.931,18.724 12.546,19.476 13.335,20.005C14.125,20.534 15.054,20.817 16.004,20.817L16.001,20.814Z" fill="#00AEEF"/>
<path d="M33.984,11.989C38.049,13.164 42.847,11.989 42.847,11.989C41.456,18.089 37.039,21.908 30.672,22.37C30.06,23.801 29.239,25.132 28.242,26.324C27.244,27.517 26.078,28.557 24.783,29.413C23.485,30.269 22.073,30.93 20.586,31.375C19.099,31.82 17.554,32.048 16.004,32.045L20.802,16.743C25.736,1.014 28.266,-0.05 39.966,-0.05L48,-0.05C46.657,5.887 42.024,10.424 33.984,11.986L33.984,11.989Z" fill="#008CCF"/>
</svg>
