<svg width="36" height="32" viewBox="0 0 36 32" fill="none" xmlns="http://www.w3.org/2000/svg" xmlns:xlink="http://www.w3.org/1999/xlink">
<mask id="mask_0_51_59" style="mask-type:alpha" maskUnits="userSpaceOnUse" x="0" y="0.000793" width="6.2258" height="6.1916">
<rect  x="0" y="0.001" width="12.452" height="12.383" fill="#000000"/>
</mask>
<path d="M14.16,27.186L1.558,27.186C0.73,27.186 0.058,26.514 0.058,25.686C0.058,24.858 0.73,24.186 1.558,24.186L14.16,24.186C14.988,24.186 15.66,24.858 15.66,25.686C15.66,26.514 14.988,27.186 14.16,27.186Z" clip-rule="evenodd" fill-rule="evenodd" fill="#000000"/>
<path d="M32.382,7.801L19.782,7.801C18.954,7.801 18.282,7.129 18.282,6.301C18.282,5.473 18.954,4.801 19.782,4.801L32.382,4.801C33.21,4.801 33.882,5.473 33.882,6.301C33.882,7.129 33.21,7.801 32.382,7.801Z" clip-rule="evenodd" fill-rule="evenodd" fill="#000000"/>
<g mask="url(#mask_0_51_59)">
<path d="M6.226,3C4.448,3 3,4.432 3,6.194C3,7.954 4.448,9.384 6.226,9.384C8.006,9.384 9.452,7.954 9.452,6.194C9.452,4.432 8.006,3 6.226,3M6.226,12.384C2.794,12.384 0,9.608 0,6.194C0,2.78 2.794,0 6.226,0C9.66,0 12.452,2.78 12.452,6.194C12.452,9.608 9.66,12.384 6.226,12.384Z" clip-rule="evenodd" fill-rule="evenodd" fill="#000000"/>
</g>
<path d="M28.775,22.416C26.995,22.416 25.547,23.848 25.547,25.608C25.547,27.37 26.995,28.8 28.775,28.8C30.553,28.8 31.999,27.37 31.999,25.608C31.999,23.848 30.553,22.416 28.775,22.416M28.775,31.8C25.341,31.8 22.547,29.022 22.547,25.608C22.547,22.194 25.341,19.416 28.775,19.416C32.207,19.416 34.999,22.194 34.999,25.608C34.999,29.022 32.207,31.8 28.775,31.8Z" clip-rule="evenodd" fill-rule="evenodd" fill="#000000"/>
</svg>
