<svg width="42" height="40" viewBox="0 0 42 40" fill="none" xmlns="http://www.w3.org/2000/svg" xmlns:xlink="http://www.w3.org/1999/xlink">
<mask id="mask_0_51_49" style="mask-type:alpha" maskUnits="userSpaceOnUse" x="0" y="-0.000214" width="20.472515" height="19.500999">
<rect  x="0" y="0" width="40.945" height="39.002" fill="#000000"/>
</mask>
<g mask="url(#mask_0_51_49)">
<path d="M3.647,18.246C6.451,26.97 17.529,34.024 20.474,35.77C23.428,34.006 34.586,26.874 37.3,18.254C39.082,12.682 37.428,5.624 30.856,3.506C27.672,2.484 23.958,3.106 21.394,5.09C20.858,5.502 20.114,5.51 19.573,5.102C16.857,3.06 13.309,2.462 10.075,3.506C3.513,5.622 1.865,12.68 3.647,18.246M20.476,39.002C20.228,39.002 19.981,38.942 19.757,38.82C19.131,38.478 4.385,30.35 0.791,19.162C0.789,19.162 0.789,19.16 0.789,19.16C-1.467,12.116 1.045,3.264 9.155,0.65C12.963,-0.582 17.113,-0.04 20.47,2.078C23.722,0.022 28.042,-0.546 31.774,0.65C39.892,3.268 42.412,12.118 40.158,19.16C36.68,30.22 21.826,38.47 21.196,38.816C20.972,38.94 20.724,39.002 20.476,39.002Z" clip-rule="evenodd" fill-rule="evenodd" fill="#000000"/>
</g>
<path d="M32.307,15.25C31.533,15.25 30.877,14.656 30.813,13.872C30.681,12.228 29.581,10.84 28.015,10.334C27.225,10.078 26.793,9.232 27.047,8.446C27.305,7.658 28.143,7.23 28.935,7.478C31.661,8.36 33.571,10.774 33.805,13.628C33.871,14.454 33.257,15.178 32.431,15.244C32.389,15.248 32.349,15.25 32.307,15.25Z" clip-rule="evenodd" fill-rule="evenodd" fill="#000000"/>
</svg>
