<svg width="42" height="44" viewBox="0 0 42 44" fill="none" xmlns="http://www.w3.org/2000/svg" xmlns:xlink="http://www.w3.org/1999/xlink">
<mask id="mask_0_51_34" style="mask-type:alpha" maskUnits="userSpaceOnUse" x="0" y="0.000397" width="20.4998" height="21.504999">
<rect  x="0" y="0" width="41" height="43.01" fill="#000000"/>
</mask>
<g mask="url(#mask_0_51_34)">
<path d="M23.434,28.583C25.842,28.583 27.802,30.529 27.802,32.921L27.802,39.072C27.802,39.586 28.214,39.998 28.742,40.01L32.554,40.01C35.558,40.01 38,37.599 38,34.635L38,17.187C37.986,16.167 37.5,15.207 36.666,14.569L23.48,4.053C21.71,2.651 19.234,2.651 17.458,4.057L4.362,14.565C3.496,15.223 3.01,16.183 3,17.221L3,34.635C3,37.599 5.442,40.01 8.446,40.01L12.294,40.01C12.836,40.01 13.276,39.58 13.276,39.052C13.276,38.936 13.29,38.82 13.314,38.71L13.314,32.921C13.314,30.543 15.262,28.599 17.652,28.583L23.434,28.583ZM32.554,43.011L28.706,43.011C26.502,42.959 24.802,41.229 24.802,39.073L24.802,32.921C24.802,32.183 24.188,31.583 23.434,31.583L17.662,31.583C16.924,31.587 16.314,32.189 16.314,32.921L16.314,39.053C16.314,39.203 16.294,39.347 16.252,39.483C16.036,41.463 14.344,43.011 12.294,43.011L8.446,43.011C3.788,43.011 0,39.252 0,34.634L0,17.207C0.02,15.219 0.936,13.399 2.518,12.201L15.588,1.711C18.466,-0.569 22.476,-0.569 25.348,1.707L38.512,12.207C40.058,13.385 40.974,15.201 41,17.165L41,34.634C41,39.252 37.212,43.011 32.554,43.011L32.554,43.011Z" clip-rule="evenodd" fill-rule="evenodd" fill="#000000"/>
</g>
</svg>
