<svg width="28" height="18" viewBox="0 0 28 18" fill="none" xmlns="http://www.w3.org/2000/svg" xmlns:xlink="http://www.w3.org/1999/xlink">
<path d="M19.143,14C19.143,15.42 17.992,16.571 16.571,16.571L5.429,16.571C2.588,16.571 0.286,14.269 0.286,11.429L0.286,2C0.286,0.58 1.437,-0.571 2.857,-0.571L14,-0.571C16.84,-0.571 19.143,1.731 19.143,4.571L19.143,14ZM25.657,0.971L21.886,3.8C21.238,4.286 20.857,5.048 20.857,5.857L20.857,10.143C20.857,10.952 21.238,11.714 21.886,12.2L25.657,15.028C26.505,15.664 27.714,15.059 27.714,14L27.714,2C27.714,0.94 26.505,0.336 25.657,0.971Z" fill="#FFFFFF"/>
</svg>
