<svg width="60" height="42" viewBox="0 0 60 42" fill="none" xmlns="http://www.w3.org/2000/svg" xmlns:xlink="http://www.w3.org/1999/xlink">
<path d="M2,19C0.895,19 0,19.895 0,21C0,22.105 0.895,23 2,23L2,19ZM58,21L59.49,22.334C60.17,21.574 60.17,20.426 59.49,19.666L58,21ZM42.49,0.666C41.754,-0.157 40.49,-0.227 39.666,0.51C38.843,1.246 38.773,2.51 39.51,3.334L42.49,0.666ZM39.51,38.666C38.773,39.49 38.843,40.754 39.666,41.49C40.49,42.227 41.754,42.157 42.49,41.334L39.51,38.666ZM2,23L58,23L58,19L2,19L2,23ZM59.49,19.666L42.49,0.666L39.51,3.334L56.51,22.334L59.49,19.666ZM56.51,19.666L39.51,38.666L42.49,41.334L59.49,22.334L56.51,19.666Z" transform="rotate(-360 30 21)" fill="#000000"/>
</svg>
