<svg width="40" height="40" viewBox="0 0 40 40" fill="none" xmlns="http://www.w3.org/2000/svg" xmlns:xlink="http://www.w3.org/1999/xlink">
<path d="M20,3C10.626,3 3,10.626 3,20C3,29.374 10.626,37 20,37C29.374,37 37,29.374 37,20C37,10.626 29.374,3 20,3M20,40C8.972,40 0,31.028 0,20C0,8.972 8.972,0 20,0C31.028,0 40,8.972 40,20C40,31.028 31.028,40 20,40Z" clip-rule="evenodd" fill-rule="evenodd" fill="#000000"/>
<path d="M27.896,22.027C26.79,22.027 25.886,21.133 25.886,20.027C25.886,18.921 26.772,18.027 27.876,18.027L27.896,18.027C29.002,18.027 29.896,18.921 29.896,20.027C29.896,21.133 29.002,22.027 27.896,22.027Z" clip-rule="evenodd" fill-rule="evenodd" fill="#000000"/>
<path d="M19.877,22.027C18.771,22.027 17.869,21.133 17.869,20.027C17.869,18.921 18.753,18.027 19.859,18.027L19.877,18.027C20.983,18.027 21.877,18.921 21.877,20.027C21.877,21.133 20.983,22.027 19.877,22.027Z" clip-rule="evenodd" fill-rule="evenodd" fill="#000000"/>
<path d="M11.859,22.027C10.753,22.027 9.849,21.133 9.849,20.027C9.849,18.921 10.735,18.027 11.841,18.027L11.859,18.027C12.965,18.027 13.859,18.921 13.859,20.027C13.859,21.133 12.965,22.027 11.859,22.027Z" clip-rule="evenodd" fill-rule="evenodd" fill="#000000"/>
</svg>
