<svg width="38" height="44" viewBox="0 0 38 44" fill="none" xmlns="http://www.w3.org/2000/svg" xmlns:xlink="http://www.w3.org/1999/xlink">
<mask id="mask_0_51_41" style="mask-type:alpha" maskUnits="userSpaceOnUse" x="0.000122" y="0" width="18.496914" height="17.348">
<rect  x="0" y="0" width="36.994" height="34.696" fill="#000000"/>
</mask>
<g mask="url(#mask_0_51_41)">
<path d="M18.494,3C11.504,3 6.632,8.476 6.632,13.39C6.632,17.548 5.478,19.47 4.458,21.166C3.64,22.528 2.994,23.604 2.994,25.942C3.328,29.714 5.818,31.696 18.494,31.696C31.1,31.696 33.668,29.626 34,25.812C33.994,23.604 33.348,22.528 32.53,21.166C31.51,19.47 30.356,17.548 30.356,13.39C30.356,8.476 25.484,3 18.494,3M18.494,34.696C9.142,34.696 0.69,34.036 0,26.07C-0.006,22.774 1,21.098 1.888,19.622C2.786,18.126 3.632,16.716 3.632,13.39C3.632,6.924 9.604,0 18.494,0C27.384,0 33.356,6.924 33.356,13.39C33.356,16.716 34.202,18.126 35.1,19.622C35.988,21.098 36.994,22.774 36.994,25.942C36.296,34.036 27.846,34.696 18.494,34.696Z" clip-rule="evenodd" fill-rule="evenodd" fill="#000000"/>
</g>
<path d="M18.397,43L18.393,43C16.151,42.998 14.029,42.01 12.419,40.216C11.865,39.602 11.915,38.652 12.531,38.1C13.147,37.544 14.095,37.594 14.649,38.212C15.685,39.366 17.015,40 18.395,40L18.397,40C19.783,40 21.119,39.366 22.157,38.21C22.713,37.596 23.661,37.546 24.275,38.1C24.891,38.654 24.941,39.604 24.387,40.218C22.771,42.012 20.645,43 18.397,43Z" clip-rule="evenodd" fill-rule="evenodd" fill="#000000"/>
</svg>
