<svg width="48" height="48" viewBox="0 0 48 48" fill="none" xmlns="http://www.w3.org/2000/svg" xmlns:xlink="http://www.w3.org/1999/xlink">
<path d="M8.918,8.416C10.41,9.628 10.97,9.536 13.774,9.348L40.204,7.762C40.764,7.762 40.298,7.202 40.112,7.11L35.72,3.936C34.88,3.284 33.758,2.536 31.61,2.722L6.02,4.59C5.088,4.682 4.9,5.15 5.272,5.522L8.918,8.416ZM10.504,14.576L10.504,42.384C10.504,43.878 11.25,44.438 12.932,44.344L41.978,42.664C43.66,42.572 43.848,41.544 43.848,40.33L43.848,12.708C43.848,11.496 43.382,10.842 42.352,10.934L11.998,12.708C10.878,12.802 10.504,13.362 10.504,14.574L10.504,14.576ZM39.178,16.066C39.364,16.906 39.178,17.746 38.338,17.842L36.938,18.122L36.938,38.65C35.722,39.304 34.602,39.678 33.668,39.678C32.172,39.678 31.798,39.21 30.678,37.812L21.524,23.44L21.524,37.344L24.42,38C24.42,38 24.42,39.68 22.084,39.68L15.64,40.052C15.454,39.68 15.64,38.746 16.294,38.56L17.974,38.094L17.974,19.708L15.644,19.52C15.456,18.68 15.924,17.468 17.23,17.374L24.142,16.908L33.67,31.466L33.67,18.586L31.24,18.308C31.054,17.28 31.8,16.534 32.734,16.442L39.178,16.066ZM3.872,2.07L30.492,0.11C33.76,-0.17 34.602,0.016 36.656,1.51L45.154,7.482C46.554,8.508 47.022,8.788 47.022,9.908L47.022,42.664C47.022,44.716 46.276,45.932 43.662,46.116L12.746,47.984C10.786,48.078 9.85,47.798 8.822,46.49L2.564,38.37C1.444,36.876 0.978,35.758 0.978,34.45L0.978,5.334C0.978,3.656 1.726,2.254 3.872,2.07L3.872,2.07Z" fill="#2F3437"/>
<path d="M8.918,8.416C10.41,9.628 10.97,9.536 13.774,9.348L40.204,7.762C40.764,7.762 40.298,7.202 40.112,7.11L35.72,3.936C34.88,3.284 33.758,2.536 31.61,2.722L6.02,4.59C5.088,4.682 4.9,5.15 5.272,5.522L8.918,8.416Z" fill="#FFFFFF"/>
<path d="M10.504,14.576L10.504,42.384C10.504,43.878 11.25,44.438 12.932,44.344L41.978,42.664C43.66,42.572 43.848,41.544 43.848,40.33L43.848,12.708C43.848,11.496 43.382,10.842 42.352,10.934L11.998,12.708C10.878,12.802 10.504,13.362 10.504,14.574L10.504,14.576ZM38.338,17.842C39.178,17.746 39.364,16.906 39.178,16.066L32.734,16.442C31.8,16.534 31.054,17.28 31.24,18.308L33.67,18.586L33.67,31.466L24.142,16.908L17.23,17.374C15.924,17.468 15.456,18.68 15.644,19.52L17.974,19.708L17.974,38.094L16.294,38.56C15.64,38.746 15.454,39.68 15.64,40.052L22.084,39.68C24.42,39.68 24.42,38 24.42,38L21.524,37.344L21.524,23.44L30.678,37.812L30.68,37.815C31.798,39.21 32.173,39.678 33.668,39.678C34.602,39.678 35.722,39.304 36.938,38.65L36.938,18.122L38.338,17.842Z" clip-rule="evenodd" fill-rule="evenodd" fill="#FFFFFF"/>
</svg>
