<svg width="48" height="48" viewBox="0 0 48 48" fill="none" xmlns="http://www.w3.org/2000/svg" xmlns:xlink="http://www.w3.org/1999/xlink">
<path d="M48,23.824C48,37.079 37.255,47.824 24,47.824C10.745,47.824 0,37.079 0,23.824C0,12.569 7.749,3.125 18.202,0.531L18.202,16.49L13.253,16.49L13.253,23.824L18.202,23.824L18.202,26.984C18.202,35.153 21.899,38.939 29.919,38.939C31.439,38.939 34.063,38.641 35.136,38.343L35.136,31.695C34.57,31.754 33.586,31.784 32.363,31.784C28.428,31.784 26.908,30.294 26.908,26.418L26.908,23.824L34.747,23.824L33.4,16.49L26.908,16.49L26.908,0C38.791,1.435 48,11.554 48,23.824Z" fill="#0866FF"/>
</svg>
