<svg width="22" height="40" viewBox="0 0 22 40" fill="none" xmlns="http://www.w3.org/2000/svg" xmlns:xlink="http://www.w3.org/1999/xlink">
<path d="M19.4,17.551L20.747,24.885L12.908,24.885L12.908,27.478C12.908,31.354 14.428,32.845 18.363,32.845C19.586,32.845 20.57,32.815 21.136,32.755L21.136,39.404C20.063,39.702 17.439,40 15.919,40C7.899,40 4.202,36.214 4.202,28.045L4.202,24.885L-0.747,24.885L-0.747,17.551L4.202,17.551L4.202,1.591C6.059,1.131 8.001,0.885 10,0.885C10.984,0.885 11.954,0.945 12.908,1.06L12.908,17.551L19.4,17.551Z" fill="#FFFFFF"/>
</svg>
