<svg width="40" height="38" viewBox="0 0 40 38" fill="none" xmlns="http://www.w3.org/2000/svg" xmlns:xlink="http://www.w3.org/1999/xlink">
<path d="M19.5,3C19.318,3 18.87,3.05 18.632,3.526L14.98,10.828C14.402,11.982 13.288,12.784 12,12.968L3.824,14.146C3.284,14.224 3.1,14.624 3.044,14.792C2.994,14.954 2.914,15.366 3.286,15.722L9.198,21.402C10.14,22.308 10.568,23.614 10.344,24.892L8.952,32.912C8.866,33.414 9.18,33.706 9.32,33.806C9.468,33.918 9.864,34.14 10.354,33.884L17.664,30.094C18.816,29.5 20.188,29.5 21.336,30.094L28.644,33.882C29.136,34.136 29.532,33.914 29.682,33.806C29.822,33.706 30.136,33.414 30.05,32.912L28.654,24.892C28.43,23.614 28.858,22.308 29.8,21.402L35.712,15.722C36.086,15.366 36.006,14.952 35.954,14.792C35.9,14.624 35.716,14.224 35.176,14.146L27,12.968C25.714,12.784 24.6,11.982 24.022,10.826L20.366,3.526C20.13,3.05 19.682,3 19.5,3M9.894,37C9.068,37 8.248,36.74 7.546,36.228C6.334,35.34 5.74,33.874 5.998,32.398L7.39,24.378C7.442,24.08 7.34,23.778 7.12,23.566L1.208,17.886C0.12,16.844 -0.27,15.304 0.19,13.874C0.654,12.428 1.882,11.394 3.396,11.178L11.572,10C11.888,9.956 12.16,9.762 12.296,9.486L15.95,2.182C16.624,0.836 17.984,0 19.5,0L19.5,0C21.016,0 22.376,0.836 23.05,2.182L26.706,9.484C26.844,9.762 27.114,9.956 27.428,10L35.604,11.178C37.118,11.394 38.346,12.428 38.81,13.874C39.27,15.304 38.878,16.844 37.79,17.886L31.878,23.566C31.658,23.778 31.558,24.08 31.61,24.376L33.004,32.398C33.26,33.876 32.666,35.342 31.452,36.228C30.222,37.13 28.62,37.252 27.262,36.544L19.956,32.758C19.67,32.61 19.328,32.61 19.042,32.758L11.736,36.546C11.152,36.85 10.522,37 9.894,37Z" clip-rule="evenodd" fill-rule="evenodd" fill="#000000"/>
</svg>
