<svg width="48" height="48" viewBox="0 0 48 48" fill="none" xmlns="http://www.w3.org/2000/svg" xmlns:xlink="http://www.w3.org/1999/xlink">
<path d="M18.498,24C17.123,24 16,25.123 16,26.498C16,27.874 17.123,28.996 18.498,28.996C19.874,28.996 20.996,27.874 20.996,26.498C20.996,25.123 19.874,24 18.498,24Z" fill="#000000"/>
<path d="M24.028,34.919C24.982,34.919 28.239,34.807 29.951,33.095C30.203,32.842 30.203,32.449 30.007,32.168C29.754,31.916 29.333,31.916 29.081,32.168C27.986,33.235 25.712,33.628 24.056,33.628C22.4,33.628 20.098,33.235 19.032,32.168C18.779,31.916 18.358,31.916 18.105,32.168C17.853,32.421 17.853,32.842 18.105,33.095C19.789,34.779 23.074,34.919 24.028,34.919Z" fill="#000000"/>
<path d="M27.003,26.498C27.003,27.874 28.126,28.996 29.502,28.996C30.877,28.996 32,27.874 32,26.498C32,25.123 30.877,24 29.502,24C28.126,24 27.003,25.123 27.003,26.498Z" fill="#000000"/>
<path d="M48,24C48,37.255 37.255,48 24,48C10.745,48 0,37.255 0,24C0,10.745 10.745,0 24,0C37.255,0 48,10.745 48,24ZM36.491,20.491C38.428,20.491 40,22.063 40,24C40,25.432 39.13,26.667 37.979,27.228C38.035,27.565 38.063,27.902 38.063,28.267C38.063,33.656 31.803,38.007 24.056,38.007C16.309,38.007 10.049,33.656 10.049,28.267C10.049,27.902 10.077,27.537 10.133,27.2C8.898,26.639 8.056,25.432 8.056,24C8.056,22.063 9.628,20.491 11.565,20.491C12.491,20.491 13.361,20.884 13.979,21.474C16.393,19.705 19.733,18.611 23.467,18.498L25.235,10.133C25.291,9.965 25.375,9.825 25.516,9.74C25.656,9.656 25.825,9.628 25.993,9.656L31.803,10.891C32.196,10.049 33.039,9.488 34.021,9.488C35.396,9.488 36.519,10.611 36.519,11.986C36.519,13.361 35.396,14.484 34.021,14.484C32.674,14.484 31.579,13.418 31.523,12.098L26.33,11.004L24.73,18.498C28.379,18.639 31.691,19.761 34.077,21.474C34.695,20.856 35.537,20.491 36.491,20.491Z" clip-rule="evenodd" fill-rule="evenodd" fill="#000000"/>
</svg>
