<svg width="48" height="48" viewBox="0 0 48 48" fill="none" xmlns="http://www.w3.org/2000/svg" xmlns:xlink="http://www.w3.org/1999/xlink">
<path d="M20.4,24L27.199,24C27.672,24 28.14,23.907 28.577,23.726C29.014,23.545 29.411,23.28 29.745,22.946C30.079,22.611 30.345,22.214 30.525,21.778C30.706,21.341 30.799,20.873 30.799,20.4C30.799,19.927 30.706,19.459 30.525,19.022C30.345,18.586 30.079,18.189 29.745,17.854C29.411,17.52 29.014,17.255 28.577,17.074C28.14,16.893 27.672,16.8 27.199,16.8L20.4,16.8L20.4,24Z" fill="#000000"/>
<path d="M24,48C37.254,48 48,37.254 48,24C48,10.745 37.254,0 24,0C10.745,0 0,10.744 0,24C0,37.254 10.744,48 24,48ZM15.6,12L27.199,12C31.839,12 35.599,15.761 35.599,20.4C35.599,25.039 31.839,28.8 27.199,28.8L20.4,28.8L20.4,36L15.6,36L15.6,12Z" clip-rule="evenodd" fill-rule="evenodd" fill="#000000"/>
</svg>
