<svg width="44" height="48" viewBox="0 0 44 48" fill="none" xmlns="http://www.w3.org/2000/svg" xmlns:xlink="http://www.w3.org/1999/xlink">
<path d="M8.252,0.765L29.884,13.159L20.317,22.585L0.516,3.089C0.891,2.311 1.448,1.629 2.145,1.103C3.096,0.385 4.255,-0.002 5.446,0C6.433,0.003 7.401,0.267 8.252,0.765Z" fill="#000000"/>
<path d="M0,5.388L0,42.604L18.892,23.989L0,5.388Z" fill="#000000"/>
<path d="M20.317,25.393L0.514,44.905C0.736,45.367 1.023,45.798 1.368,46.182C1.923,46.802 2.613,47.287 3.385,47.6C4.157,47.913 4.99,48.045 5.82,47.986C6.651,47.928 7.457,47.68 8.177,47.262L29.94,34.868L20.317,25.393Z" fill="#000000"/>
<path d="M31.759,33.852L40.646,28.778C41.507,28.327 42.229,27.648 42.732,26.817C43.235,25.985 43.502,25.031 43.502,24.059C43.502,23.087 43.235,22.133 42.732,21.301C42.229,20.469 41.507,19.791 40.646,19.34L40.676,19.34L31.686,14.191L21.742,23.989L31.759,33.852Z" fill="#000000"/>
</svg>
