<svg width="48" height="48" viewBox="0 0 48 48" fill="none" xmlns="http://www.w3.org/2000/svg" xmlns:xlink="http://www.w3.org/1999/xlink">
<mask id="mask_0_51_87" style="mask-type:alpha" maskUnits="userSpaceOnUse" x="28.708008" y="4.00058" width="8.538999" height="8.532814">
<rect  x="28.708" y="4.001" width="17.078" height="17.066" fill="#000000"/>
</mask>
<g mask="url(#mask_0_51_87)">
<path d="M44.285,21.066C43.531,21.066 42.883,20.5 42.797,19.734C42.039,12.982 36.795,7.742 30.041,6.992C29.219,6.9 28.625,6.16 28.717,5.336C28.807,4.514 29.541,3.908 30.373,4.012C38.529,4.918 44.863,11.244 45.777,19.398C45.869,20.222 45.277,20.964 44.455,21.056C44.399,21.062 44.341,21.066 44.285,21.066Z" clip-rule="evenodd" fill-rule="evenodd" fill="#000000"/>
</g>
<path d="M37.205,21.088C36.501,21.088 35.875,20.592 35.735,19.876C35.159,16.916 32.877,14.634 29.921,14.06C29.107,13.902 28.577,13.116 28.735,12.302C28.893,11.488 29.693,10.956 30.493,11.116C34.655,11.924 37.869,15.136 38.679,19.3C38.837,20.116 38.307,20.902 37.495,21.06C37.397,21.078 37.301,21.088 37.205,21.088Z" clip-rule="evenodd" fill-rule="evenodd" fill="#000000"/>
<path d="M6.577,8.176L6.723,8.024C10.577,4.169 13.088,3.147 15.766,4.687C16.537,5.13 17.259,5.75 18.241,6.748L21.254,9.872C22.918,11.688 23.296,13.43 22.754,15.469L22.68,15.739L22.597,16.008L22.194,17.189C21.332,19.839 21.692,21.335 24.759,24.401C27.948,27.589 29.437,27.85 32.291,26.853L32.8,26.676L33.415,26.476L33.685,26.401C35.853,25.823 37.684,26.285 39.626,28.226L42.054,30.57L42.768,31.273C43.561,32.081 44.084,32.721 44.471,33.398C46.002,36.075 44.979,38.584 41.013,42.535L40.635,42.918C40.043,43.488 39.49,43.897 38.677,44.283C37.313,44.931 35.701,45.175 33.828,44.915C29.213,44.273 23.36,40.632 15.944,33.217C15.34,32.613 14.762,32.021 14.208,31.441L13.135,30.295C3.075,19.366 2.188,12.652 6.31,8.441L6.577,8.176ZM15.813,8.562C15.161,7.919 14.688,7.528 14.271,7.288C13.348,6.757 12.351,6.981 10.507,8.569L9.927,9.087C9.826,9.18 9.723,9.277 9.617,9.377L8.952,10.025L8.892,10.099L8.442,10.552C7.353,11.664 6.837,13.021 7.282,15.355C8.011,19.185 11.349,24.381 18.065,31.095C25.063,38.091 30.394,41.408 34.242,41.943C36.484,42.255 37.628,41.712 38.795,40.517L39.685,39.619C40.102,39.182 40.458,38.787 40.759,38.425L41.17,37.908C42.219,36.51 42.315,35.672 41.866,34.887C41.696,34.588 41.447,34.26 41.086,33.86L40.595,33.342L40.305,33.052L37.243,30.094C36.219,29.151 35.52,29.017 34.458,29.3L34.151,29.388L32.883,29.819C29.203,31.007 26.548,30.431 22.638,26.522C18.589,22.474 18.114,19.771 19.47,15.878L19.557,15.628L19.798,14.903L19.916,14.441C20.126,13.435 19.887,12.734 18.805,11.652C18.761,11.607 18.711,11.557 18.657,11.502L15.813,8.562Z" clip-rule="evenodd" fill-rule="evenodd" fill="#000000"/>
</svg>
