<svg width="24" height="36" viewBox="0 0 24 36" fill="none" xmlns="http://www.w3.org/2000/svg" xmlns:xlink="http://www.w3.org/1999/xlink">
<path d="M17.993,15.399C16.466,16.926 14.346,17.887 12,17.887C9.682,17.887 7.534,16.926 6.007,15.399C4.481,13.873 3.519,11.753 3.519,9.406C3.519,7.06 4.481,4.94 6.007,3.413C7.534,1.887 9.654,0.926 12,0.926C14.346,0.926 16.466,1.887 17.993,3.413C19.519,4.94 20.481,7.06 20.481,9.406C20.481,11.753 19.519,13.873 17.993,15.399ZM12,5.534C10.954,5.534 9.993,5.958 9.286,6.664C8.608,7.371 8.155,8.332 8.155,9.378C8.155,10.424 8.579,11.385 9.286,12.092C9.965,12.799 10.926,13.223 12,13.223C13.046,13.223 14.007,12.799 14.714,12.092C15.42,11.413 15.845,10.452 15.845,9.378C15.845,8.332 15.42,7.371 14.714,6.664C14.035,5.958 13.074,5.534 12,5.534Z" clip-rule="evenodd" fill-rule="evenodd" fill="#FFFFFF"/>
<path d="M20.423,18.168L22.911,21.56C23.052,21.73 23.024,21.956 22.798,22.097C20.706,23.822 18.275,24.952 15.731,25.546L20.989,34.818C21.13,35.101 20.96,35.412 20.649,35.412L15.504,35.412C15.335,35.412 15.193,35.299 15.137,35.157L11.462,26.959L7.787,35.157C7.731,35.327 7.589,35.412 7.42,35.412L2.275,35.412C1.992,35.412 1.794,35.073 1.935,34.818L7.193,25.546C4.649,24.952 2.218,23.793 0.126,22.097C-0.015,21.956 -0.043,21.73 0.07,21.56L2.557,18.168C2.699,17.998 2.981,17.97 3.151,18.111C5.497,20.118 8.381,21.419 11.49,21.419C14.6,21.419 17.483,20.118 19.83,18.111C19.999,17.942 20.282,17.97 20.423,18.168Z" fill="#FFFFFF"/>
</svg>
