<svg width="48" height="40" viewBox="0 0 48 40" fill="none" xmlns="http://www.w3.org/2000/svg" xmlns:xlink="http://www.w3.org/1999/xlink">
<path d="M32.632,0.279C36.924,-0.633 41.574,0.699 44.726,4.194C47.88,7.685 48.73,12.445 47.385,16.62L47.384,16.628C47.234,17.091 46.905,17.475 46.472,17.697C46.038,17.918 45.534,17.958 45.07,17.809C44.841,17.735 44.628,17.616 44.444,17.46C44.26,17.303 44.108,17.112 43.998,16.897C43.888,16.682 43.822,16.448 43.803,16.207C43.783,15.966 43.812,15.724 43.887,15.494C44.376,13.985 44.458,12.373 44.127,10.822C43.795,9.271 43.061,7.834 41.999,6.656C39.756,4.175 36.452,3.225 33.398,3.873C33.162,3.924 32.919,3.927 32.681,3.883C32.444,3.84 32.218,3.75 32.015,3.618C31.813,3.487 31.638,3.317 31.501,3.118C31.364,2.92 31.268,2.696 31.217,2.46C31.167,2.224 31.163,1.98 31.207,1.743C31.251,1.506 31.341,1.279 31.472,1.077C31.603,0.874 31.773,0.699 31.972,0.562C32.171,0.426 32.396,0.329 32.632,0.279Z" fill="#000000"/>
<path d="M11.26,25.393C12.903,22.061 17.177,20.176 20.958,21.161C24.871,22.172 26.869,25.864 25.268,29.449C23.647,33.118 18.982,35.073 15.025,33.797C11.206,32.563 9.588,28.791 11.26,25.393ZM19.229,27.095C19.71,27.293 20.324,27.065 20.602,26.589C20.868,26.111 20.695,25.573 20.216,25.397C19.744,25.21 19.153,25.437 18.876,25.901C18.607,26.369 18.755,26.9 19.229,27.095ZM14.416,31.037C15.656,31.603 17.302,31.065 18.07,29.839C18.826,28.6 18.428,27.186 17.183,26.654C15.953,26.139 14.362,26.67 13.603,27.86C12.834,29.056 13.194,30.481 14.416,31.037Z" clip-rule="evenodd" fill-rule="evenodd" fill="#000000"/>
<path d="M35.272,17.491C34.919,18.379 35.382,18.518 36.058,18.719C38.811,19.573 41.875,21.638 41.875,25.277C41.875,31.298 33.192,38.883 20.138,38.883C10.179,38.883 0,34.057 0,26.119C0,21.969 2.629,17.17 7.157,12.642C13.203,6.598 20.254,3.845 22.904,6.498C24.074,7.666 24.188,9.69 23.436,12.107C23.065,13.261 24.424,12.715 24.567,12.657C24.574,12.654 24.579,12.653 24.579,12.653C29.466,10.606 33.729,10.487 35.287,12.712C36.118,13.899 36.039,15.563 35.272,17.491ZM4.842,28.013C5.359,33.231 12.218,36.822 20.164,36.038C28.111,35.252 34.134,30.386 33.619,25.167C33.103,19.952 26.243,16.36 18.296,17.147C10.352,17.932 4.326,22.797 4.842,28.013Z" clip-rule="evenodd" fill-rule="evenodd" fill="#000000"/>
<path d="M39.885,8.562C38.35,6.86 36.085,6.214 33.994,6.659C33.786,6.697 33.587,6.776 33.411,6.892C33.234,7.008 33.082,7.159 32.964,7.334C32.846,7.51 32.765,7.708 32.725,7.916C32.685,8.123 32.688,8.337 32.732,8.544C32.776,8.751 32.861,8.947 32.982,9.12C33.103,9.294 33.258,9.441 33.437,9.554C33.616,9.666 33.816,9.742 34.025,9.775C34.234,9.809 34.448,9.801 34.653,9.751C35.173,9.64 35.712,9.668 36.218,9.831C36.724,9.994 37.178,10.288 37.535,10.681C37.891,11.076 38.137,11.558 38.247,12.078C38.358,12.598 38.329,13.138 38.165,13.643C38.036,14.043 38.072,14.477 38.263,14.85C38.453,15.224 38.785,15.507 39.184,15.636C39.583,15.765 40.018,15.73 40.391,15.538C40.765,15.347 41.047,15.015 41.176,14.616C41.833,12.582 41.422,10.264 39.885,8.562Z" fill="#000000"/>
</svg>
