<svg width="40" height="40" viewBox="0 0 40 40" fill="none" xmlns="http://www.w3.org/2000/svg" xmlns:xlink="http://www.w3.org/1999/xlink">
<path d="M20,40C31.046,40 40,31.046 40,20C40,8.954 31.046,0 20,0C8.954,0 0,8.954 0,20C0,31.046 8.954,40 20,40ZM24.338,36.312C22.954,36.679 21.5,36.875 20,36.875C17.731,36.875 15.566,36.427 13.589,35.615C15.465,28.691 20.651,23.733 26.593,21.524C27.624,26.519 26.856,31.874 24.338,36.312ZM28.779,34.414C30.391,30.025 30.708,25.19 29.721,20.631C32.105,20.15 34.537,20.106 36.866,20.545C36.68,26.421 33.489,31.54 28.779,34.414ZM36.647,17.22C34.069,16.842 31.413,16.952 28.821,17.506C28.318,16.097 27.684,14.739 26.929,13.45C29.06,12.219 31.003,10.665 32.667,8.85C34.706,11.164 36.12,14.042 36.647,17.22ZM30.299,6.631C28.798,8.274 27.033,9.671 25.097,10.76C23.79,9.099 22.278,7.603 20.592,6.319L20.551,6.288L20.509,6.26C20.509,6.26 20.505,6.257 20.498,6.252C20.489,6.246 20.477,6.237 20.461,6.226C20.43,6.203 20.392,6.175 20.345,6.14C20.293,6.101 20.24,6.061 20.184,6.018L20.172,6.01C20.126,5.975 20.078,5.938 20.025,5.898C19.91,5.812 19.784,5.718 19.668,5.635C19.587,5.577 19.471,5.495 19.352,5.423L19.277,5.371C19.122,5.264 18.89,5.103 18.679,4.974C18.482,4.836 18.216,4.678 18.042,4.576C17.873,4.477 17.692,4.374 17.579,4.309L17.492,4.26C17.471,4.248 17.453,4.238 17.446,4.233L17.444,4.233C17.431,4.225 17.417,4.217 17.403,4.21L17.386,4.2C17.361,4.186 17.335,4.172 17.309,4.158C17.279,4.141 17.255,4.127 17.237,4.117L17.225,4.109L17.182,4.082C17.026,3.987 16.864,3.9 16.776,3.853L16.743,3.835L16.705,3.815L16.667,3.797C16.583,3.757 16.456,3.697 16.313,3.629L16.31,3.627C16.265,3.606 16.219,3.584 16.171,3.561C17.401,3.276 18.683,3.125 20,3.125C23.877,3.125 27.449,4.433 30.299,6.631ZM11.727,5.289C9.224,6.699 7.117,8.73 5.615,11.173C7.402,12.079 9.321,12.719 11.298,13.071L11.303,13.072L11.307,13.073C13.75,13.521 16.269,13.509 18.735,13.064C19.866,12.86 20.977,12.557 22.055,12.162C21.042,10.964 19.904,9.877 18.659,8.924C18.573,8.865 18.479,8.795 18.401,8.737C18.343,8.694 18.274,8.642 18.206,8.591L18.205,8.589C18.16,8.555 18.115,8.522 18.075,8.491C17.963,8.407 17.862,8.332 17.778,8.272C17.724,8.233 17.692,8.212 17.68,8.203C17.675,8.2 17.673,8.199 17.673,8.198L17.625,8.171L17.568,8.133C17.486,8.077 17.412,8.026 17.344,7.979L17.343,7.979C17.195,7.876 17.077,7.794 16.956,7.723L16.877,7.676L16.806,7.622C16.808,7.623 16.807,7.622 16.802,7.619L16.801,7.619C16.788,7.61 16.755,7.588 16.694,7.55C16.611,7.499 16.51,7.439 16.402,7.375C16.249,7.286 16.11,7.206 15.999,7.143L15.986,7.136C15.94,7.11 15.9,7.086 15.866,7.067L15.862,7.065L15.836,7.05L15.823,7.043C15.798,7.029 15.764,7.011 15.73,6.992C15.691,6.97 15.642,6.943 15.595,6.915C15.569,6.9 15.521,6.872 15.468,6.837C15.402,6.797 15.331,6.759 15.246,6.714L15.243,6.712C15.142,6.664 15.016,6.604 14.883,6.541C14.632,6.421 14.353,6.288 14.16,6.199L14.139,6.189L14.052,6.145C13.746,6.003 13.38,5.864 12.97,5.709L12.968,5.708C12.879,5.675 12.788,5.64 12.694,5.604C12.441,5.514 12.179,5.431 11.903,5.344L11.903,5.344C11.845,5.326 11.786,5.307 11.727,5.289ZM4.19,14.087C6.249,15.126 8.455,15.859 10.725,16.264C13.566,16.785 16.478,16.768 19.311,16.257C20.923,15.966 22.498,15.502 24.007,14.884C24.679,16.001 25.244,17.178 25.694,18.4C18.915,20.841 13,26.358 10.661,34.057C6.118,31.033 3.125,25.866 3.125,20C3.125,17.92 3.501,15.927 4.19,14.087Z" clip-rule="evenodd" fill-rule="evenodd" fill="#B8509A"/>
</svg>
