<svg width="42" height="48" viewBox="0 0 42 48" fill="none" xmlns="http://www.w3.org/2000/svg" xmlns:xlink="http://www.w3.org/1999/xlink">
<path d="M29.932,34.033L8.98,29.654L9.867,25.441L30.819,29.82L29.932,34.033Z" fill="#000000"/>
<path d="M31.151,28.712L11.752,19.677L13.525,15.741L32.925,24.832L31.151,28.712Z" fill="#000000"/>
<path d="M33.59,23.834L17.128,10.143L19.844,6.873L36.306,20.564L33.59,23.834Z" fill="#000000"/>
<path d="M24.334,2.55L27.77,0L40.519,17.183L37.082,19.732L24.334,2.55Z" fill="#000000"/>
<path d="M29.932,39.409L8.537,39.409L8.537,35.141L29.932,35.141L29.932,39.409Z" fill="#000000"/>
<path d="M34.254,30.873L34.254,43.732L4.268,43.732L4.268,30.873L0,30.873L0,48L38.522,48L38.522,30.873L34.254,30.873Z" fill="#000000"/>
</svg>
