<svg width="42" height="48" viewBox="0 0 42 48" fill="none" xmlns="http://www.w3.org/2000/svg" xmlns:xlink="http://www.w3.org/1999/xlink">
<path d="M31.079,1.318C31.45,0.651 31.898,0 32.932,0L39.926,0C40.343,0 40.67,0.157 40.846,0.442C41.029,0.738 41.024,1.128 40.832,1.51L25.504,28.612C25.495,28.626 25.495,28.643 25.504,28.657L35.264,46.488C35.457,46.872 35.462,47.262 35.278,47.558C35.102,47.843 34.776,48 34.359,48L27.444,48C26.384,48 25.854,47.295 25.511,46.682C25.511,46.682 15.699,28.682 15.674,28.635C16.165,27.767 31.079,1.318 31.079,1.318Z" fill="#000000"/>
<path d="M2.904,9.912C3.08,9.626 3.431,9.479 3.848,9.479L10.771,9.479C11.833,9.479 12.353,10.164 12.698,10.777C12.698,10.777 17.429,19.031 17.457,19.077C17.177,19.571 9.984,32.293 9.984,32.293C9.63,32.932 9.131,33.63 8.096,33.63L1.173,33.63C0.756,33.63 0.445,33.443 0.268,33.158C0.086,32.862 0.076,32.479 0.268,32.096L7.624,19.116C7.632,19.102 7.632,19.092 7.624,19.077L2.943,10.974C2.75,10.588 2.721,10.208 2.904,9.912Z" fill="#000000"/>
</svg>
