<svg width="48" height="32" viewBox="0 0 48 32" fill="none" xmlns="http://www.w3.org/2000/svg" xmlns:xlink="http://www.w3.org/1999/xlink">
<path d="M13.891,0.168C15.188,0.144 16.484,0.277 17.749,0.564C18.814,0.797 19.825,1.23 20.729,1.84C21.563,2.446 22.223,3.261 22.643,4.204C23.126,5.363 23.359,6.61 23.326,7.865C23.381,9.243 23.029,10.606 22.315,11.785C21.563,12.899 20.523,13.788 19.307,14.359C20.958,14.804 22.396,15.824 23.362,17.234C24.29,18.729 24.756,20.464 24.703,22.222C24.733,23.624 24.443,25.014 23.855,26.287C23.311,27.397 22.515,28.365 21.53,29.113C20.517,29.852 19.376,30.399 18.164,30.726C16.908,31.074 15.611,31.248 14.307,31.245L-0.002,31.245L-0.002,0.168L13.891,0.168ZM13.066,12.738C14.085,12.78 15.088,12.475 15.911,11.872C16.305,11.521 16.612,11.083 16.807,10.593C17.001,10.102 17.078,9.573 17.032,9.047C17.058,8.433 16.936,7.822 16.675,7.265C16.454,6.822 16.111,6.451 15.685,6.198C15.255,5.918 14.77,5.732 14.264,5.649C13.714,5.543 13.154,5.494 12.595,5.505L6.48,5.505L6.48,12.765L13.066,12.765L13.066,12.738ZM13.422,25.968C14.038,25.977 14.653,25.91 15.254,25.77C15.802,25.649 16.322,25.424 16.786,25.107C17.241,24.79 17.608,24.364 17.854,23.867C18.139,23.235 18.27,22.543 18.236,21.85C18.297,21.218 18.214,20.58 17.991,19.986C17.768,19.392 17.412,18.856 16.951,18.42C15.972,17.7 14.772,17.342 13.559,17.411L6.48,17.411L6.48,25.968L13.422,25.968Z" clip-rule="evenodd" fill-rule="evenodd" fill="#0057FF"/>
<path d="M33.935,25.853C34.444,26.325 35.044,26.688 35.697,26.921C36.351,27.154 37.045,27.251 37.737,27.208C38.835,27.235 39.911,26.901 40.8,26.257C41.523,25.787 42.071,25.091 42.358,24.277L47.528,24.277C46.977,26.593 45.632,28.643 43.727,30.071C41.898,31.284 39.738,31.899 37.545,31.829C35.98,31.85 34.426,31.555 32.977,30.964C31.666,30.417 30.49,29.591 29.532,28.542C28.577,27.444 27.843,26.171 27.372,24.794C26.842,23.255 26.583,21.636 26.605,20.008C26.596,18.408 26.864,16.818 27.397,15.31C28.114,13.187 29.485,11.347 31.313,10.052C33.141,8.757 35.333,8.074 37.573,8.102C39.226,8.068 40.862,8.455 42.325,9.227C43.647,9.952 44.788,10.968 45.661,12.197C46.554,13.487 47.195,14.935 47.548,16.464C47.936,18.106 48.074,19.797 47.958,21.479L32.559,21.479C32.434,23.06 32.928,24.628 33.935,25.853ZM40.691,14.034C40.26,13.603 39.742,13.27 39.171,13.056C38.601,12.842 37.991,12.753 37.383,12.795C36.576,12.764 35.775,12.943 35.058,13.314C34.49,13.627 33.988,14.048 33.581,14.553C33.22,15.027 32.952,15.564 32.789,16.137C32.642,16.615 32.551,17.108 32.516,17.606L42.053,17.606C41.97,16.307 41.497,15.063 40.695,14.036L40.691,14.034Z" clip-rule="evenodd" fill-rule="evenodd" fill="#0057FF"/>
<path d="M31.286,2.243L43.238,2.243L43.238,5.299L31.286,5.299L31.286,2.243Z" fill="#0057FF"/>
</svg>
