<svg width="48" height="48" viewBox="0 0 48 48" fill="none" xmlns="http://www.w3.org/2000/svg" xmlns:xlink="http://www.w3.org/1999/xlink">
<path d="M12.775,5.216C12.775,7.975 15.005,10.205 17.764,10.205L22.753,10.205L22.753,5.216C22.753,2.457 20.523,0.227 17.764,0.227C15.005,0.227 12.775,2.457 12.775,5.216Z" fill="#000000"/>
<path d="M22.753,17.726C22.753,14.967 20.523,12.737 17.764,12.737L5.254,12.737C2.494,12.737 0.265,14.967 0.265,17.726C0.265,20.485 2.494,22.715 5.254,22.715L17.764,22.715C20.523,22.715 22.753,20.485 22.753,17.726Z" fill="#000000"/>
<path d="M5.291,35.225C8.05,35.225 10.28,32.995 10.28,30.236L10.28,25.247L5.291,25.247C2.532,25.247 0.302,27.477 0.302,30.236C0.302,32.995 2.532,35.225 5.291,35.225Z" fill="#000000"/>
<path d="M17.764,25.247C15.005,25.247 12.775,27.477 12.775,30.236L12.775,42.709C12.775,45.468 15.005,47.698 17.764,47.698C20.523,47.698 22.753,45.468 22.753,42.709L22.753,30.236C22.753,27.477 20.523,25.247 17.764,25.247Z" fill="#000000"/>
<path d="M37.758,17.726C37.758,14.967 39.987,12.737 42.747,12.737C45.506,12.737 47.736,14.967 47.736,17.726C47.736,20.485 45.506,22.715 42.747,22.715L37.758,22.715L37.758,17.726Z" fill="#000000"/>
<path d="M35.263,17.726C35.263,20.485 33.033,22.715 30.274,22.715C27.515,22.715 25.285,20.485 25.285,17.726L25.285,5.216C25.285,2.457 27.515,0.227 30.274,0.227C33.033,0.227 35.263,2.457 35.263,5.216L35.263,17.726Z" fill="#000000"/>
<path d="M35.263,42.709C35.263,39.95 33.033,37.72 30.274,37.72L25.285,37.72L25.285,42.709C25.285,45.468 27.515,47.698 30.274,47.698C33.033,47.698 35.263,45.468 35.263,42.709Z" fill="#000000"/>
<path d="M25.285,30.236C25.285,32.995 27.515,35.225 30.274,35.225L42.784,35.225C45.543,35.225 47.773,32.995 47.773,30.236C47.773,27.477 45.543,25.247 42.784,25.247L30.274,25.247C27.515,25.247 25.285,27.477 25.285,30.236Z" fill="#000000"/>
</svg>
