<svg width="48" height="48" viewBox="0 0 48 48" fill="none" xmlns="http://www.w3.org/2000/svg" xmlns:xlink="http://www.w3.org/1999/xlink">
<path d="M24,48C37.255,48 48,37.255 48,24C48,10.745 37.255,0 24,0C10.745,0 0,10.745 0,24C0,37.255 10.745,48 24,48ZM29.205,43.575C27.544,44.015 25.8,44.25 24,44.25C21.277,44.25 18.679,43.712 16.307,42.738C18.558,34.43 24.782,28.479 31.912,25.829C33.148,31.822 32.227,38.249 29.205,43.575ZM34.535,41.297C36.469,36.03 36.85,30.228 35.665,24.758C38.526,24.18 41.445,24.127 44.24,24.654C44.016,31.706 40.187,37.848 34.535,41.297ZM43.977,20.664C40.882,20.21 37.696,20.343 34.585,21.007C33.982,19.316 33.221,17.687 32.315,16.14C34.872,14.663 37.204,12.798 39.2,10.62C41.647,13.397 43.344,16.851 43.977,20.664ZM36.359,7.957C34.558,9.929 32.44,11.605 30.116,12.912C28.548,10.919 26.734,9.124 24.711,7.583L24.662,7.546L24.611,7.512C24.611,7.512 24.606,7.509 24.597,7.502C24.586,7.495 24.572,7.484 24.554,7.471C24.516,7.444 24.47,7.41 24.414,7.368C24.351,7.321 24.288,7.273 24.22,7.222L24.206,7.211C24.152,7.17 24.093,7.126 24.03,7.078C23.892,6.974 23.741,6.862 23.602,6.762C23.505,6.693 23.365,6.594 23.223,6.507L23.132,6.445C22.947,6.317 22.668,6.124 22.415,5.968C22.179,5.803 21.86,5.614 21.65,5.491C21.448,5.373 21.23,5.248 21.095,5.171L20.991,5.112C20.966,5.097 20.944,5.085 20.935,5.08L20.933,5.079C20.917,5.07 20.9,5.061 20.884,5.052L20.863,5.04C20.833,5.024 20.802,5.007 20.771,4.989C20.735,4.969 20.706,4.953 20.685,4.941L20.67,4.93L20.618,4.899C20.431,4.784 20.237,4.68 20.131,4.623L20.092,4.603L20.047,4.578L20,4.556C19.9,4.509 19.748,4.436 19.576,4.355L19.572,4.353C19.518,4.327 19.462,4.3 19.406,4.273C20.882,3.931 22.42,3.75 24,3.75C28.653,3.75 32.939,5.319 36.359,7.957ZM14.072,6.346C11.069,8.039 8.541,10.476 6.738,13.407C8.882,14.495 11.185,15.263 13.558,15.685L13.563,15.686L13.568,15.687C16.5,16.225 19.522,16.211 22.481,15.677C23.839,15.432 25.172,15.068 26.466,14.595C25.25,13.157 23.884,11.852 22.39,10.709C22.288,10.638 22.175,10.554 22.082,10.485C22.012,10.432 21.929,10.37 21.848,10.309L21.846,10.307C21.792,10.266 21.738,10.226 21.689,10.189C21.556,10.089 21.434,9.998 21.334,9.926C21.268,9.88 21.231,9.854 21.216,9.844C21.21,9.84 21.207,9.838 21.207,9.838L21.15,9.806L21.082,9.76C20.983,9.692 20.894,9.631 20.813,9.575L20.812,9.574C20.634,9.451 20.492,9.353 20.347,9.267L20.252,9.211L20.167,9.146C20.17,9.148 20.168,9.147 20.162,9.143L20.161,9.142C20.146,9.132 20.106,9.106 20.032,9.06C19.933,8.999 19.812,8.926 19.683,8.85C19.499,8.743 19.332,8.647 19.199,8.572L19.184,8.563C19.128,8.531 19.08,8.504 19.039,8.48L19.035,8.478L19.003,8.46L18.988,8.452C18.958,8.435 18.917,8.413 18.877,8.39C18.829,8.364 18.771,8.331 18.714,8.298C18.683,8.28 18.626,8.246 18.561,8.204C18.482,8.157 18.397,8.111 18.296,8.057L18.291,8.054C18.17,7.997 18.019,7.925 17.859,7.849C17.558,7.705 17.224,7.546 16.992,7.438L16.967,7.427L16.863,7.374C16.495,7.204 16.056,7.037 15.564,6.851L15.562,6.85C15.455,6.81 15.345,6.768 15.233,6.725C14.93,6.616 14.614,6.517 14.284,6.413L14.283,6.413C14.214,6.391 14.143,6.369 14.072,6.346ZM5.028,16.905C7.499,18.151 10.146,19.031 12.87,19.517C16.28,20.142 19.773,20.121 23.173,19.508C25.108,19.159 26.997,18.602 28.809,17.861C29.615,19.201 30.293,20.614 30.833,22.08C22.699,25.01 15.6,31.629 12.793,40.869C7.342,37.24 3.75,31.039 3.75,24C3.75,21.504 4.202,19.113 5.028,16.905Z" clip-rule="evenodd" fill-rule="evenodd" fill="#060318"/>
</svg>
