<svg width="48" height="48" viewBox="0 0 48 48" fill="none" xmlns="http://www.w3.org/2000/svg" xmlns:xlink="http://www.w3.org/1999/xlink">
<path d="M24,12.545C30.3,12.545 35.455,17.673 35.455,24C35.455,30.327 30.327,35.455 24,35.455C17.673,35.455 12.546,30.327 12.546,24C12.546,17.673 17.7,12.545 24,12.545ZM19.636,30.273L30.273,23.727L19.636,17.727L19.636,30.273Z" clip-rule="evenodd" fill-rule="evenodd" fill="#000000"/>
<path d="M48,24C48,37.255 37.255,48 24,48C10.745,48 0,37.255 0,24C0,10.745 10.745,0 24,0C37.255,0 48,10.745 48,24ZM24,11.455C17.073,11.455 11.455,17.073 11.455,24C11.455,30.927 17.073,36.545 24,36.545C30.927,36.545 36.546,30.927 36.546,24C36.546,17.073 30.927,11.455 24,11.455Z" clip-rule="evenodd" fill-rule="evenodd" fill="#000000"/>
</svg>
