<svg width="40" height="34" viewBox="0 0 40 34" fill="none" xmlns="http://www.w3.org/2000/svg" xmlns:xlink="http://www.w3.org/1999/xlink">
<path d="M39.981,7.566C39.803,11.247 37.083,16.286 31.823,22.682C26.385,29.364 21.783,32.704 18.019,32.704C15.688,32.704 13.714,30.67 12.103,26.601C11.026,22.871 9.951,19.141 8.874,15.411C7.677,11.343 6.394,9.307 5.021,9.307C4.722,9.307 3.675,9.902 1.882,11.088L0,8.796C1.974,7.157 3.922,5.517 5.838,3.876C8.47,1.725 10.447,0.594 11.764,0.48C14.877,0.197 16.793,2.209 17.513,6.514C18.29,11.16 18.827,14.049 19.13,15.18C20.027,19.034 21.014,20.959 22.093,20.959C22.93,20.959 24.188,19.709 25.865,17.209C27.54,14.709 28.437,12.807 28.558,11.5C28.797,9.342 27.899,8.26 25.865,8.26C24.907,8.26 23.92,8.469 22.904,8.88C24.87,2.794 28.626,-0.162 34.17,0.007C38.28,0.121 40.217,2.64 39.981,7.566Z" fill="#000000"/>
</svg>
