<svg width="48" height="48" viewBox="0 0 48 48" fill="none" xmlns="http://www.w3.org/2000/svg" xmlns:xlink="http://www.w3.org/1999/xlink">
<path d="M24,9.269C22.347,9.269 21.003,7.925 21.003,6.272L21.003,2.997C21.003,1.344 22.347,0 24,0C25.654,0 26.998,1.344 26.998,2.997L26.998,6.272C26.998,7.925 25.654,9.269 24,9.269Z" fill="#000000"/>
<path d="M24,38.731C22.347,38.731 21.003,40.075 21.003,41.728L21.003,45.003C21.003,46.656 22.347,48 24,48C25.654,48 26.998,46.656 26.998,45.003L26.998,41.728C26.998,40.075 25.654,38.731 24,38.731Z" fill="#000000"/>
<path d="M16.361,35.456L16.361,32.182C16.361,30.528 15.017,29.184 13.364,29.184C11.71,29.184 10.366,30.528 10.366,32.182L10.366,35.456C10.366,37.11 11.71,38.454 13.364,38.454C15.017,38.454 16.361,37.11 16.361,35.456Z" fill="#000000"/>
<path d="M16.361,23.254L16.361,12.544C16.361,10.891 15.017,9.547 13.364,9.547C11.71,9.547 10.366,10.891 10.366,12.544L10.366,23.254C10.398,24.886 11.732,26.187 13.364,26.187C14.996,26.187 16.329,24.875 16.361,23.254Z" fill="#000000"/>
<path d="M5.995,22.368L5.995,25.643C5.995,27.296 4.651,28.64 2.998,28.64C1.344,28.64 0,27.296 0,25.632L0,22.358C0,20.704 1.344,19.36 2.998,19.36C4.651,19.36 5.995,20.704 5.995,22.368Z" fill="#000000"/>
<path d="M42.003,22.369C42.003,20.715 43.347,19.371 45,19.371C46.654,19.371 47.998,20.715 47.998,22.369L47.998,25.729C47.955,27.35 46.632,28.641 45,28.641C43.368,28.641 42.046,27.339 42.003,25.729L42.003,22.369Z" fill="#000000"/>
<path d="M31.64,15.819C31.64,17.472 32.984,18.816 34.637,18.816C36.291,18.816 37.635,17.472 37.635,15.819L37.635,12.544C37.635,10.891 36.291,9.547 34.637,9.547C32.984,9.547 31.64,10.891 31.64,12.544L31.64,15.819Z" fill="#000000"/>
<path d="M31.64,24.822C31.64,23.168 32.984,21.824 34.637,21.824C36.291,21.824 37.635,23.168 37.635,24.822L37.635,35.456C37.635,37.11 36.291,38.454 34.637,38.454C32.984,38.454 31.64,37.11 31.64,35.456L31.64,24.822Z" fill="#000000"/>
<path d="M26.998,32.726L26.998,15.276C26.998,13.612 25.654,12.278 24,12.278C22.347,12.278 21.003,13.622 21.003,15.276L21.003,32.726C21.003,34.38 22.347,35.724 24,35.724C25.654,35.724 26.998,34.38 26.998,32.726Z" fill="#000000"/>
</svg>
