<svg width="26" height="48" viewBox="0 0 26 48" fill="none" xmlns="http://www.w3.org/2000/svg" xmlns:xlink="http://www.w3.org/1999/xlink">
<path d="M16.932,0C15.898,0 15.45,0.651 15.079,1.318C15.079,1.318 0.165,27.767 -0.326,28.635C-0.301,28.682 9.511,46.682 9.511,46.682C9.854,47.295 10.384,48 11.444,48L18.359,48C18.776,48 19.102,47.843 19.278,47.558C19.462,47.262 19.457,46.872 19.264,46.488L9.504,28.657C9.495,28.643 9.495,28.626 9.504,28.612L24.832,1.51C25.024,1.128 25.029,0.738 24.846,0.442C24.67,0.157 24.343,0 23.926,0L16.932,0Z" fill="#D4D600"/>
</svg>
