<svg width="18" height="24" viewBox="0 0 18 24" fill="none" xmlns="http://www.w3.org/2000/svg" xmlns:xlink="http://www.w3.org/1999/xlink">
<path d="M3.848,-0.521C3.431,-0.521 3.08,-0.374 2.904,-0.088C2.721,0.208 2.75,0.588 2.943,0.974L7.624,9.077C7.632,9.092 7.632,9.102 7.624,9.116L0.268,22.096C0.076,22.479 0.086,22.862 0.268,23.158C0.445,23.443 0.756,23.63 1.173,23.63L8.096,23.63C9.131,23.63 9.63,22.932 9.984,22.293C9.984,22.293 17.177,9.571 17.457,9.077C17.429,9.031 12.698,0.777 12.698,0.777C12.353,0.164 11.833,-0.521 10.771,-0.521L3.848,-0.521Z" fill="#005A5F"/>
</svg>
