<svg width="48" height="28" viewBox="0 0 48 28" fill="none" xmlns="http://www.w3.org/2000/svg" xmlns:xlink="http://www.w3.org/1999/xlink">
<path d="M21.882,14.684L20.909,16.431L20.909,16.431L21.882,14.684ZM25.671,14.684L26.645,16.431L26.645,16.431L25.671,14.684ZM5.472,3.005L42.082,3.005L42.082,-0.995L5.472,-0.995L5.472,3.005ZM43.41,3.684L43.41,22.438L47.41,22.438L47.41,3.684L43.41,3.684ZM42.082,23.117L5.472,23.117L5.472,27.117L42.082,27.117L42.082,23.117ZM4.144,22.438L4.144,3.684L0.144,3.684L0.144,22.438L4.144,22.438ZM5.472,23.117C4.978,23.117 4.596,22.954 4.373,22.774C4.153,22.597 4.144,22.466 4.144,22.438L0.144,22.438C0.144,25.405 2.956,27.117 5.472,27.117L5.472,23.117ZM43.41,22.438C43.41,22.466 43.401,22.597 43.181,22.774C42.957,22.954 42.575,23.117 42.082,23.117L42.082,27.117C44.598,27.117 47.41,25.405 47.41,22.438L43.41,22.438ZM42.082,3.005C42.575,3.005 42.957,3.168 43.181,3.348C43.401,3.525 43.41,3.656 43.41,3.684L47.41,3.684C47.41,0.717 44.598,-0.995 42.082,-0.995L42.082,3.005ZM5.472,-0.995C2.956,-0.995 0.144,0.717 0.144,3.684L4.144,3.684C4.144,3.656 4.153,3.525 4.373,3.348C4.596,3.168 4.978,3.005 5.472,3.005L5.472,-0.995ZM1.17,5.431L20.909,16.431L22.856,12.937L3.117,1.937L1.17,5.431ZM26.645,16.431L46.384,5.431L44.436,1.937L24.698,12.937L26.645,16.431ZM20.909,16.431C22.654,17.404 24.9,17.404 26.645,16.431L24.698,12.937C24.163,13.235 23.391,13.235 22.856,12.937L20.909,16.431Z" fill="#8B8B8B"/>
</svg>
