<svg width="30" height="46" viewBox="0 0 30 46" fill="none" xmlns="http://www.w3.org/2000/svg" xmlns:xlink="http://www.w3.org/1999/xlink">
<path d="M21.7,18.645C19.738,20.607 17.013,21.843 13.998,21.843C11.018,21.843 8.257,20.607 6.295,18.645C4.333,16.683 3.097,13.958 3.097,10.943C3.097,7.927 4.333,5.202 6.295,3.24C8.257,1.278 10.982,0.042 13.998,0.042C17.013,0.042 19.738,1.278 21.7,3.24C23.662,5.202 24.898,7.927 24.898,10.943C24.898,13.958 23.662,16.683 21.7,18.645ZM13.998,5.965C12.653,5.965 11.418,6.51 10.509,7.418C9.637,8.327 9.056,9.562 9.056,10.906C9.056,12.251 9.601,13.486 10.509,14.394C11.381,15.303 12.617,15.848 13.998,15.848C15.342,15.848 16.577,15.303 17.486,14.394C18.394,13.522 18.939,12.287 18.939,10.906C18.939,9.562 18.394,8.327 17.486,7.418C16.614,6.51 15.378,5.965 13.998,5.965Z" clip-rule="evenodd" fill-rule="evenodd" fill="#000000"/>
<path d="M25.479,21.879L28.677,26.239C28.858,26.457 28.822,26.748 28.531,26.929C25.842,29.146 22.718,30.599 19.448,31.362L26.206,43.279C26.387,43.643 26.169,44.042 25.77,44.042L19.157,44.042C18.939,44.042 18.757,43.897 18.685,43.715L13.961,33.179L9.238,43.715C9.165,43.933 8.984,44.042 8.766,44.042L2.153,44.042C1.79,44.042 1.535,43.606 1.717,43.279L8.475,31.362C5.205,30.599 2.08,29.109 -0.609,26.929C-0.79,26.748 -0.827,26.457 -0.681,26.239L2.516,21.879C2.698,21.661 3.061,21.625 3.279,21.806C6.295,24.386 10.001,26.057 13.998,26.057C17.994,26.057 21.7,24.386 24.716,21.806C24.934,21.588 25.297,21.625 25.479,21.879Z" fill="#000000"/>
</svg>
