<svg width="48" height="38" viewBox="0 0 48 38" fill="none" xmlns="http://www.w3.org/2000/svg" xmlns:xlink="http://www.w3.org/1999/xlink">
<path d="M0,12.08C9.162,12.08 14.883,8.146 19.901,4.696C23.821,2 27.312,-0.4 31.68,-0.4C38.182,-0.4 43.859,4.197 46.869,6.635C47.294,6.978 47.665,7.279 47.978,7.518C48,9.185 48,11.018 48,13.04L48,14.96C48,25.821 48,31.252 44.626,34.626C41.401,37.851 36.298,37.993 26.371,38L21.629,38C11.702,37.993 6.599,37.851 3.374,34.626C0,31.252 0,25.821 0,14.96L0,13.04C0,12.715 0,12.395 0,12.08Z" clip-rule="evenodd" fill-rule="evenodd" fill="#F45FFF"/>
</svg>
