<svg width="50" height="48" viewBox="0 0 50 48" fill="none" xmlns="http://www.w3.org/2000/svg" xmlns:xlink="http://www.w3.org/1999/xlink">
<path d="M48.001,15.015C48.001,14.442 48.001,13.868 47.998,13.295C47.996,12.812 47.99,12.33 47.977,11.847C47.949,10.795 47.886,9.735 47.7,8.695C47.51,7.639 47.2,6.656 46.712,5.696C46.232,4.753 45.605,3.892 44.857,3.144C44.109,2.396 43.246,1.769 42.304,1.289C41.345,0.801 40.362,0.492 39.308,0.301C38.268,0.115 37.206,0.052 36.154,0.024C35.671,0.011 35.189,0.005 34.706,0.003C34.133,0 33.559,0 32.986,0L15.015,0C14.442,0 13.868,0 13.295,0.003C12.812,0.005 12.33,0.011 11.847,0.024C10.795,0.053 9.734,0.115 8.694,0.303C7.638,0.492 6.656,0.803 5.697,1.291C4.755,1.771 3.892,2.397 3.144,3.145C2.396,3.893 1.769,4.755 1.289,5.697C0.801,6.657 0.491,7.64 0.301,8.696C0.115,9.736 0.052,10.798 0.024,11.848C0.011,12.331 0.005,12.814 0.003,13.296C0,13.868 0,14.442 0,15.015L0,32.985C0,33.558 0,34.131 0.003,34.705C0.005,35.187 0.011,35.67 0.024,36.153C0.052,37.205 0.115,38.265 0.301,39.305C0.491,40.361 0.801,41.344 1.289,42.304C1.769,43.246 2.396,44.108 3.144,44.856C3.892,45.604 4.755,46.23 5.697,46.71C6.656,47.198 7.639,47.508 8.694,47.698C9.734,47.885 10.795,47.948 11.847,47.976C12.33,47.989 12.812,47.994 13.295,47.997C13.868,48.001 14.442,48 15.015,48L32.985,48C33.558,48 34.131,48 34.705,47.997C35.187,47.994 35.67,47.989 36.153,47.976C37.205,47.948 38.266,47.885 39.306,47.698C40.362,47.509 41.344,47.198 42.302,46.71C43.245,46.23 44.108,45.604 44.856,44.856C45.604,44.108 46.23,43.246 46.71,42.304C47.198,41.344 47.509,40.361 47.698,39.305C47.885,38.265 47.948,37.204 47.976,36.153C47.989,35.67 47.994,35.187 47.997,34.705C48.001,34.131 48,33.558 48,32.985L48,15.015L48.001,15.015Z" clip-rule="evenodd" fill-rule="evenodd" fill="url(#pf_0_15_164)"/>
<defs>
<linearGradient id="pf_0_15_164" x1="24.001" y1="47.815" x2="24.001" y2="1.035" gradientUnits="userSpaceOnUse">
<stop stop-color="#FA233B"/>
<stop offset="1" stop-color="#FB5C74"/>
</linearGradient>
</defs>
</svg>
