<svg width="48" height="48" viewBox="0 0 48 48" fill="none" xmlns="http://www.w3.org/2000/svg" xmlns:xlink="http://www.w3.org/1999/xlink">
<path d="M36.79,14.044C35.201,14.047 33.909,12.76 33.906,11.171C33.902,9.582 35.189,8.289 36.78,8.286C38.37,8.283 39.662,9.571 39.665,11.16C39.668,12.75 38.381,14.041 36.79,14.044Z" fill="url(#pattern_0_15_248)"/>
<path d="M24.023,36.322C17.218,36.335 11.69,30.83 11.677,24.023C11.664,17.218 17.171,11.69 23.976,11.676C30.782,11.663 36.311,17.172 36.324,23.976C36.337,30.782 30.829,36.309 24.023,36.322ZM23.984,16.001C19.567,16.008 15.992,19.597 16,24.015C16.008,28.433 19.598,32.008 24.014,31.999C28.433,31.991 32.008,28.403 32,23.984C31.991,19.566 28.402,15.992 23.984,16.001Z" clip-rule="evenodd" fill-rule="evenodd" fill="url(#pattern_0_15_248)"/>
<path d="M8.238,1.293C9.763,0.696 11.507,0.287 14.06,0.166C16.62,0.043 17.437,0.015 23.954,0.003C30.472,-0.01 31.289,0.015 33.849,0.129C36.403,0.239 38.148,0.642 39.675,1.233C41.255,1.842 42.596,2.662 43.932,3.992C45.268,5.324 46.091,6.66 46.707,8.238C47.304,9.763 47.713,11.506 47.834,14.061C47.955,16.62 47.985,17.437 47.997,23.954C48.01,30.471 47.983,31.289 47.871,33.85C47.76,36.403 47.358,38.149 46.767,39.675C46.157,41.255 45.339,42.596 44.008,43.932C42.678,45.268 41.34,46.09 39.762,46.708C38.237,47.303 36.494,47.712 33.94,47.835C31.381,47.956 30.563,47.985 24.045,47.997C17.529,48.01 16.712,47.985 14.152,47.872C11.598,47.76 9.852,47.358 8.325,46.768C6.745,46.156 5.405,45.339 4.069,44.008C2.732,42.677 1.909,41.34 1.293,39.762C0.696,38.237 0.288,36.494 0.166,33.941C0.044,31.38 0.015,30.562 0.003,24.046C-0.01,17.529 0.016,16.712 0.128,14.152C0.241,11.597 0.641,9.852 1.232,8.324C1.843,6.745 2.661,5.405 3.993,4.068C5.323,2.732 6.661,1.908 8.238,1.293ZM9.883,42.736C10.73,43.062 12,43.45 14.34,43.552C16.872,43.662 17.63,43.686 24.037,43.674C30.446,43.662 31.204,43.635 33.735,43.516C36.073,43.404 37.343,43.011 38.188,42.681C39.308,42.244 40.106,41.72 40.944,40.881C41.783,40.039 42.301,39.239 42.735,38.118C43.062,37.271 43.45,35.999 43.552,33.659C43.663,31.129 43.686,30.37 43.674,23.962C43.662,17.555 43.635,16.796 43.514,14.265C43.404,11.927 43.011,10.656 42.681,9.812C42.243,8.69 41.721,7.894 40.88,7.055C40.038,6.216 39.238,5.699 38.116,5.265C37.271,4.938 35.999,4.55 33.661,4.449C31.129,4.337 30.37,4.315 23.962,4.327C17.555,4.34 16.797,4.365 14.266,4.485C11.927,4.596 10.658,4.989 9.812,5.319C8.692,5.757 7.894,6.277 7.055,7.12C6.217,7.962 5.699,8.76 5.265,9.883C4.94,10.729 4.549,12.001 4.448,14.34C4.338,16.872 4.315,17.631 4.327,24.037C4.339,30.446 4.366,31.205 4.485,33.734C4.595,36.074 4.99,37.343 5.319,38.19C5.757,39.309 6.279,40.107 7.119,40.946C7.962,41.782 8.762,42.302 9.883,42.736Z" clip-rule="evenodd" fill-rule="evenodd" fill="url(#pattern_0_15_248)"/>
</svg>
