<svg width="48" height="48" viewBox="0 0 48 48" fill="none" xmlns="http://www.w3.org/2000/svg" xmlns:xlink="http://www.w3.org/1999/xlink">
<path d="M5.075,43.68C3.222,43.68 1.686,43.075 0.448,41.866C-0.157,41.242 -0.148,40.288 0.467,39.711C1.475,38.757 2.157,38.067 2.521,37.642C2.886,37.217 3.386,36.31 4.01,34.912C2.089,31.558 0.985,27.684 0.985,23.555C0.985,10.782 11.508,0.417 24.497,0.417C37.478,0.427 48,10.791 48,23.565C48,36.338 37.478,46.703 24.488,46.703C19.467,46.703 14.81,45.153 10.989,42.508C9.146,43.292 7.178,43.68 5.075,43.68ZM5.776,40.269C7.408,40.269 8.906,39.967 10.308,39.371L11.297,38.946C11.623,38.804 11.997,38.842 12.295,39.05L13.178,39.664C16.471,41.941 20.379,43.179 24.497,43.179C35.385,43.179 44.198,34.496 44.198,23.792C44.198,13.087 35.375,4.395 24.497,4.395C13.62,4.395 4.787,13.077 4.787,23.782C4.787,27.164 5.67,30.415 7.322,33.296L7.792,34.128C7.946,34.402 7.965,34.742 7.84,35.025L7.447,35.894C6.736,37.491 6.16,38.549 5.565,39.248C5.354,39.494 5.075,39.787 4.72,40.146C5.037,40.222 5.382,40.269 5.776,40.269ZM12.957,27.949C12.957,28.941 12.497,29.441 11.575,29.441C10.672,29.441 10.212,28.941 10.212,27.93L10.212,20.976C10.212,20.532 10.346,20.192 10.596,19.937C10.855,19.682 11.181,19.549 11.585,19.549C12.487,19.549 12.948,20.031 12.948,20.995L12.948,27.949L12.957,27.949ZM28.664,28.081C28.664,28.988 28.203,29.441 27.282,29.441C26.36,29.441 25.899,28.988 25.899,28.081L25.899,22.866C25.899,22.11 25.477,21.741 24.641,21.741C24.353,21.741 24.085,21.855 23.825,22.081C23.576,22.308 23.461,22.573 23.461,22.866L23.461,28.071C23.461,28.978 23.009,29.432 22.097,29.432C21.166,29.432 20.696,28.978 20.696,28.071L20.696,22.762C20.696,22.072 20.369,21.732 19.726,21.732C19.399,21.732 19.083,21.864 18.756,22.11C18.43,22.355 18.267,22.62 18.267,22.913L18.267,28.062C18.267,28.969 17.815,29.423 16.923,29.423C15.982,29.423 15.502,28.969 15.502,28.062L15.502,20.825C15.502,19.974 15.953,19.54 16.846,19.54C17.556,19.54 18.007,19.823 18.209,20.4C18.804,19.823 19.543,19.54 20.427,19.54C21.454,19.54 22.261,19.927 22.875,20.702C23.48,19.927 24.392,19.54 25.592,19.54C26.638,19.54 27.426,19.861 27.963,20.494C28.434,21.042 28.664,21.789 28.664,22.733L28.664,28.081ZM34.741,29.602C32.197,29.602 30.143,27.353 30.143,24.576C30.143,21.798 32.197,19.549 34.741,19.549C37.286,19.549 39.34,21.798 39.34,24.576C39.34,27.353 37.286,29.602 34.741,29.602ZM34.741,27.089C35.874,27.089 36.786,25.851 36.786,24.321C36.786,22.79 35.874,21.552 34.741,21.552C33.609,21.552 32.696,22.79 32.696,24.321C32.696,25.851 33.618,27.089 34.741,27.089ZM11.748,19.039C10.903,19.039 10.212,18.368 10.212,17.527C10.212,16.696 10.893,16.016 11.748,16.016C12.593,16.016 13.284,16.696 13.284,17.527C13.284,18.359 12.593,19.039 11.748,19.039Z" fill="#009DFF"/>
</svg>
