<svg width="48" height="48" viewBox="0 0 48 48" fill="none" xmlns="http://www.w3.org/2000/svg" xmlns:xlink="http://www.w3.org/1999/xlink">
<path d="M46.812,20.301L46.57,19.274L24.237,19.274L24.237,28.726L37.58,28.726C36.195,35.305 29.766,38.767 24.515,38.767C20.695,38.767 16.667,37.16 14.001,34.577C12.595,33.192 11.475,31.544 10.707,29.726C9.938,27.908 9.536,25.956 9.523,23.983C9.523,20.001 11.312,16.019 13.916,13.399C16.519,10.78 20.451,9.314 24.361,9.314C28.839,9.314 32.048,11.691 33.248,12.776L39.964,6.094C37.994,4.363 32.581,0 24.145,0C17.636,0 11.395,2.493 6.832,7.04C2.33,11.518 0,17.993 0,24C0,30.007 2.205,36.159 6.568,40.671C11.23,45.484 17.832,48 24.63,48C30.815,48 36.678,45.576 40.857,41.179C44.965,36.851 47.089,30.861 47.089,24.583C47.089,21.94 46.824,20.37 46.812,20.301Z" fill="#000000"/>
</svg>
