<svg width="40" height="34" viewBox="0 0 40 34" fill="none" xmlns="http://www.w3.org/2000/svg" xmlns:xlink="http://www.w3.org/1999/xlink">
<path d="M39.978,7.566C39.8,11.247 37.081,16.286 31.821,22.682C26.382,29.364 21.781,32.704 18.017,32.704C15.686,32.704 13.712,30.67 12.101,26.601C11.024,22.871 9.948,19.141 8.872,15.411C7.675,11.343 6.391,9.307 5.019,9.307C4.72,9.307 3.672,9.902 1.88,11.088L-0.002,8.796C1.972,7.157 3.919,5.517 5.835,3.876C8.468,1.725 10.444,0.594 11.762,0.48C14.875,0.197 16.791,2.209 17.51,6.514C18.287,11.16 18.825,14.049 19.127,15.18C20.025,19.034 21.012,20.959 22.091,20.959C22.928,20.959 24.185,19.709 25.862,17.209C27.537,14.709 28.435,12.807 28.556,11.5C28.794,9.342 27.897,8.26 25.862,8.26C24.905,8.26 23.917,8.469 22.902,8.88C24.867,2.794 28.623,-0.162 34.167,0.007C38.277,0.121 40.215,2.64 39.978,7.566Z" fill="#17D5FF"/>
</svg>
