<svg width="34" height="48" viewBox="0 0 34 48" fill="none" xmlns="http://www.w3.org/2000/svg" xmlns:xlink="http://www.w3.org/1999/xlink">
<path d="M-0.685,8.981C-0.685,4.021 3.335,0 8.295,0L23.705,0C28.665,0 32.685,4.021 32.685,8.981C32.685,12.121 31.073,14.885 28.631,16.49C31.073,18.095 32.685,20.859 32.685,24C32.685,28.96 28.665,32.981 23.705,32.981L23.51,32.981C21.184,32.981 19.066,32.097 17.471,30.647L17.471,38.922C17.471,43.948 13.345,48 8.344,48C3.396,48 -0.685,43.991 -0.685,39.019C-0.685,35.879 0.927,33.115 3.368,31.51C0.927,29.905 -0.685,27.141 -0.685,24C-0.685,20.859 0.927,18.095 3.369,16.49C0.927,14.885 -0.685,12.121 -0.685,8.981ZM14.529,23.98C14.529,23.987 14.529,23.994 14.529,24C14.529,24.007 14.529,24.013 14.529,24.02L14.529,30.039L8.295,30.039L8.263,30.039C4.942,30.021 2.256,27.324 2.256,24C2.256,20.665 4.96,17.961 8.295,17.961L14.529,17.961L14.529,23.98ZM17.471,24.015C17.479,27.344 20.18,30.039 23.51,30.039L23.705,30.039C27.04,30.039 29.744,27.335 29.744,24C29.744,20.665 27.04,17.961 23.705,17.961L23.51,17.961C20.18,17.961 17.479,20.657 17.471,23.985L17.471,24.015ZM8.295,32.981L8.263,32.981C4.942,32.998 2.256,35.695 2.256,39.019C2.256,42.342 4.996,45.058 8.344,45.058C11.745,45.058 14.529,42.299 14.529,38.922L14.529,32.981L8.295,32.981ZM8.295,2.942L14.529,2.942L14.529,15.019L8.295,15.019C4.96,15.019 2.256,12.316 2.256,8.981C2.256,5.645 4.96,2.942 8.295,2.942ZM17.471,2.942L17.471,15.019L23.705,15.019C27.04,15.019 29.744,12.316 29.744,8.981C29.744,5.645 27.04,2.942 23.705,2.942L17.471,2.942Z" clip-rule="evenodd" fill-rule="evenodd" fill="#000000"/>
</svg>
