<svg width="48" height="48" viewBox="0 0 48 48" fill="none" xmlns="http://www.w3.org/2000/svg" xmlns:xlink="http://www.w3.org/1999/xlink">
<path d="M48,24.257L48,23.743C37.371,23.4 32.52,23.143 28.629,19.371C24.857,15.48 24.583,10.629 24.257,0L23.743,0C23.4,10.629 23.143,15.48 19.371,19.371C15.48,23.143 10.629,23.417 0,23.743L0,24.257C10.629,24.6 15.48,24.857 19.371,28.629C23.143,32.52 23.417,37.371 23.743,48L24.257,48C24.6,37.371 24.857,32.52 28.629,28.629C32.52,24.857 37.371,24.583 48,24.257Z" fill="#FFFFFF"/>
</svg>
