<svg width="50" height="34" viewBox="0 0 50 34" fill="none" xmlns="http://www.w3.org/2000/svg" xmlns:xlink="http://www.w3.org/1999/xlink">
<path d="M45.493,1.668C46.238,2.418 46.773,3.35 47.044,4.371C48.048,8.14 48.048,16 48.048,16C48.048,16 48.048,23.86 47.044,27.629C46.773,28.65 46.238,29.582 45.493,30.332C44.748,31.081 43.82,31.622 42.8,31.9C39.048,32.909 24.048,32.909 24.048,32.909C24.048,32.909 9.048,32.909 5.295,31.9C4.275,31.622 3.347,31.081 2.602,30.332C1.857,29.582 1.323,28.65 1.051,27.629C0.048,23.86 0.048,16 0.048,16C0.048,16 0.048,8.14 1.051,4.371C1.323,3.35 1.857,2.418 2.602,1.668C3.347,0.919 4.275,0.378 5.295,0.1C9.048,-0.909 24.048,-0.909 24.048,-0.909C24.048,-0.909 39.048,-0.909 42.8,0.1C43.82,0.378 44.748,0.919 45.493,1.668ZM31.684,16L19.139,8.863L19.139,23.137L31.684,16Z" clip-rule="evenodd" fill-rule="evenodd" fill="#000000"/>
</svg>
