<svg width="40" height="48" viewBox="0 0 40 48" fill="none" xmlns="http://www.w3.org/2000/svg" xmlns:xlink="http://www.w3.org/1999/xlink">
<path d="M25.481,1.059C30.008,-1.301 35.614,0.418 37.996,4.898C40.379,9.379 38.641,14.922 34.114,17.281L30.391,19.238C33.598,19.355 36.657,21.117 38.258,24.129C40.641,28.609 38.907,34.152 34.375,36.512L14.524,46.941C9.996,49.301 4.391,47.582 2.008,43.101C-0.375,38.621 1.364,33.078 5.891,30.719L9.614,28.762C6.407,28.644 3.348,26.883 1.746,23.871C-0.636,19.391 1.102,13.848 5.629,11.488L25.481,1.059ZM14.766,16.613L26.782,24.031L14.766,31.414L14.766,16.613Z" clip-rule="evenodd" fill-rule="evenodd" fill="#F40407"/>
</svg>
