<svg width="48" height="46" viewBox="0 0 48 46" fill="none" xmlns="http://www.w3.org/2000/svg" xmlns:xlink="http://www.w3.org/1999/xlink">
<path d="M24,0C37.255,0 48,8.604 48,19.218C48,22.926 46.688,26.387 44.417,29.323C44.305,29.49 44.158,29.674 43.973,29.878L43.959,29.894C43.183,30.822 42.309,31.693 41.349,32.498C34.712,38.632 23.787,45.936 22.346,44.809C21.092,43.83 24.41,39.039 20.582,38.242C20.315,38.211 20.049,38.178 19.785,38.141L19.78,38.14L19.78,38.14C8.537,36.543 0,28.679 0,19.218C0,8.604 10.745,0 24,0L24,0Z" clip-rule="evenodd" fill-rule="evenodd" fill="#3ACE01"/>
</svg>
