<svg width="26" height="32" viewBox="0 0 26 32" fill="none" xmlns="http://www.w3.org/2000/svg" xmlns:xlink="http://www.w3.org/1999/xlink">
<path d="M23.839,-0.687C23.724,-0.676 22.696,-0.494 22.572,-0.469L8.345,2.402L8.34,2.403C7.969,2.482 7.678,2.613 7.453,2.802C7.182,3.029 7.031,3.351 6.974,3.726C6.962,3.806 6.942,3.968 6.942,4.207C6.942,4.207 6.942,18.743 6.942,22.014C6.942,22.43 6.909,22.834 6.627,23.179C6.345,23.523 5.997,23.627 5.589,23.709C5.279,23.772 4.969,23.834 4.659,23.897C3.484,24.133 2.719,24.294 2.027,24.563C1.364,24.82 0.868,25.147 0.474,25.561C-0.31,26.382 -0.627,27.495 -0.518,28.537C-0.425,29.427 -0.025,30.278 0.662,30.907C1.126,31.332 1.706,31.655 2.39,31.792C3.098,31.934 3.854,31.885 4.957,31.662C5.545,31.544 6.095,31.359 6.619,31.049C7.138,30.743 7.582,30.335 7.929,29.838C8.277,29.339 8.502,28.785 8.626,28.195C8.753,27.588 8.784,27.039 8.784,26.432L8.784,10.989C8.784,10.162 9.018,9.943 9.685,9.781C9.685,9.781 21.511,7.396 22.063,7.288C22.833,7.141 23.196,7.36 23.196,8.167L23.196,18.71C23.196,19.127 23.192,19.55 22.907,19.896C22.625,20.24 22.277,20.344 21.869,20.426C21.559,20.489 21.249,20.551 20.939,20.614C19.764,20.851 18.999,21.011 18.307,21.28C17.645,21.537 17.149,21.864 16.754,22.279C15.971,23.099 15.625,24.212 15.734,25.254C15.827,26.144 16.255,26.995 16.942,27.624C17.407,28.049 17.986,28.363 18.67,28.501C19.378,28.644 20.134,28.593 21.237,28.371C21.825,28.253 22.375,28.076 22.899,27.766C23.418,27.46 23.862,27.052 24.209,26.555C24.557,26.056 24.782,25.502 24.906,24.913C25.033,24.305 25.039,23.756 25.039,23.15L25.039,0.571C25.041,-0.248 24.609,-0.754 23.839,-0.687Z" clip-rule="evenodd" fill-rule="evenodd" fill="#FFFFFF"/>
</svg>
