<svg width="38" height="38" viewBox="0 0 38 38" fill="none" xmlns="http://www.w3.org/2000/svg" xmlns:xlink="http://www.w3.org/1999/xlink">
<path d="M15.777,29.233C15.777,30.338 16.673,31.233 17.777,31.233C18.882,31.233 19.777,30.338 19.777,29.233L15.777,29.233ZM19.777,23.875C19.777,22.771 18.882,21.875 17.777,21.875C16.673,21.875 15.777,22.771 15.777,23.875L19.777,23.875ZM24.097,17.178C24.097,18.282 24.993,19.178 26.097,19.178C27.202,19.178 28.097,18.282 28.097,17.178L24.097,17.178ZM7.457,17.178C7.457,18.282 8.352,19.178 9.457,19.178C10.561,19.178 11.457,18.282 11.457,17.178L7.457,17.178ZM3.136,33.252L3.136,19.857L-0.864,19.857L-0.864,33.252L3.136,33.252ZM4.464,19.178L31.09,19.178L31.09,15.178L4.464,15.178L4.464,19.178ZM32.418,19.857L32.418,33.252L36.418,33.252L36.418,19.857L32.418,19.857ZM4.464,37.931L31.09,37.931L31.09,33.931L4.464,33.931L4.464,37.931ZM32.418,33.252C32.418,33.281 32.409,33.412 32.189,33.589C31.965,33.769 31.583,33.931 31.09,33.931L31.09,37.931C33.605,37.931 36.418,36.22 36.418,33.252L32.418,33.252ZM31.09,19.178C31.583,19.178 31.965,19.34 32.189,19.52C32.409,19.697 32.418,19.828 32.418,19.857L36.418,19.857C36.418,16.889 33.605,15.178 31.09,15.178L31.09,19.178ZM3.136,19.857C3.136,19.828 3.145,19.697 3.365,19.52C3.589,19.34 3.971,19.178 4.464,19.178L4.464,15.178C1.949,15.178 -0.864,16.889 -0.864,19.857L3.136,19.857ZM-0.864,33.252C-0.864,36.22 1.949,37.931 4.464,37.931L4.464,33.931C3.971,33.931 3.589,33.769 3.365,33.589C3.145,33.412 3.136,33.281 3.136,33.252L-0.864,33.252ZM19.777,29.233L19.777,23.875L15.777,23.875L15.777,29.233L19.777,29.233ZM11.457,7.801C11.457,5.59 13.859,3.103 17.777,3.103L17.777,-0.897C12.504,-0.897 7.457,2.614 7.457,7.801L11.457,7.801ZM17.777,3.103C21.695,3.103 24.097,5.59 24.097,7.801L28.097,7.801C28.097,2.614 23.05,-0.897 17.777,-0.897L17.777,3.103ZM24.097,7.801L24.097,17.178L28.097,17.178L28.097,7.801L24.097,7.801ZM7.457,7.801L7.457,17.178L11.457,17.178L11.457,7.801L7.457,7.801Z" fill="#8B8B8B"/>
</svg>
