<svg width="38" height="40" viewBox="0 0 38 40" fill="none" xmlns="http://www.w3.org/2000/svg" xmlns:xlink="http://www.w3.org/1999/xlink">
<path d="M16.637,30.986C16.637,32.091 17.533,32.986 18.637,32.986C19.742,32.986 20.637,32.091 20.637,30.986L16.637,30.986ZM20.637,25.628C20.637,24.524 19.742,23.628 18.637,23.628C17.533,23.628 16.637,24.524 16.637,25.628L20.637,25.628ZM24.958,18.93C24.958,20.035 25.853,20.93 26.958,20.93C28.062,20.93 28.958,20.035 28.958,18.93L24.958,18.93ZM8.317,18.93C8.317,20.035 9.212,20.93 10.317,20.93C11.422,20.93 12.317,20.035 12.317,18.93L8.317,18.93ZM3.997,35.005L3.997,21.61L-0.003,21.61L-0.003,35.005L3.997,35.005ZM5.325,20.93L31.95,20.93L31.95,16.93L5.325,16.93L5.325,20.93ZM33.278,21.61L33.278,35.005L37.278,35.005L37.278,21.61L33.278,21.61ZM5.325,39.684L31.95,39.684L31.95,35.684L5.325,35.684L5.325,39.684ZM33.278,35.005C33.278,35.033 33.269,35.164 33.049,35.341C32.826,35.521 32.444,35.684 31.95,35.684L31.95,39.684C34.466,39.684 37.278,37.972 37.278,35.005L33.278,35.005ZM31.95,20.93C32.444,20.93 32.826,21.093 33.049,21.273C33.269,21.45 33.278,21.581 33.278,21.61L37.278,21.61C37.278,18.642 34.466,16.93 31.95,16.93L31.95,20.93ZM3.997,21.61C3.997,21.581 4.006,21.45 4.225,21.273C4.449,21.093 4.831,20.93 5.325,20.93L5.325,16.93C2.809,16.93 -0.003,18.642 -0.003,21.61L3.997,21.61ZM-0.003,35.005C-0.003,37.972 2.809,39.684 5.325,39.684L5.325,35.684C4.831,35.684 4.449,35.521 4.225,35.341C4.006,35.164 3.997,35.033 3.997,35.005L-0.003,35.005ZM20.637,30.986L20.637,25.628L16.637,25.628L16.637,30.986L20.637,30.986ZM12.317,9.554C12.317,7.342 14.72,4.856 18.637,4.856L18.637,0.856C13.365,0.856 8.317,4.367 8.317,9.554L12.317,9.554ZM18.637,4.856C22.555,4.856 24.958,7.342 24.958,9.554L28.958,9.554C28.958,4.367 23.91,0.856 18.637,0.856L18.637,4.856ZM24.958,9.554L24.958,18.93L28.958,18.93L28.958,9.554L24.958,9.554ZM8.317,9.554L8.317,18.93L12.317,18.93L12.317,9.554L8.317,9.554Z" fill="#8B8B8B"/>
</svg>
