<svg width="36" height="40" viewBox="0 0 36 40" fill="none" xmlns="http://www.w3.org/2000/svg" xmlns:xlink="http://www.w3.org/1999/xlink">
<path d="M11.148,16.132C18.774,13.5 20.072,6.643 19.099,0.339C19.099,0.112 19.293,-0.051 19.488,0.014C26.79,3.589 35,11.388 35,23.086C35,32.054 28.055,39.983 17.963,39.983C14.362,40.147 10.808,39.106 7.864,37.023C4.919,34.94 2.752,31.935 1.702,28.481C0.653,25.028 0.782,21.323 2.07,17.951C3.357,14.579 5.729,11.732 8.812,9.86C9.006,9.73 9.266,9.86 9.266,10.088C9.363,11.29 9.688,14.312 11.018,16.132L11.148,16.132Z" clip-rule="evenodd" fill-rule="evenodd" fill="url(#pf_0_15_116)"/>
<defs>
<radialGradient id="pf_0_15_116" cx="0" cy="0" r="1" gradientUnits="userSpaceOnUse" gradientTransform="matrix(17 0 0 20.000002 9 20)">
<stop stop-color="#FF7854"/>
<stop offset="1" stop-color="#FD267D"/>
</radialGradient>
</defs>
</svg>
