<svg width="48" height="22" viewBox="0 0 48 22" fill="none" xmlns="http://www.w3.org/2000/svg" xmlns:xlink="http://www.w3.org/1999/xlink">
<path d="M0.543,12.47C0.443,12.47 0.364,12.547 0.351,12.658L0,15.325L0.351,17.944C0.352,18.054 0.443,18.131 0.543,18.131C0.64,18.131 0.719,18.055 0.735,17.944L1.151,15.323L0.735,12.657C0.72,12.547 0.64,12.47 0.543,12.47L0.543,12.47ZM2.517,11.014C2.501,10.899 2.419,10.821 2.318,10.821C2.217,10.821 2.132,10.903 2.118,11.014C2.118,11.014 1.646,15.325 1.646,15.325L2.118,19.539C2.132,19.653 2.215,19.734 2.318,19.734C2.419,19.734 2.501,19.654 2.517,19.541L3.054,15.325L2.517,11.014ZM9.952,7.038C9.758,7.038 9.598,7.196 9.589,7.398L9.213,15.328L9.589,20.454C9.599,20.655 9.758,20.813 9.952,20.813C10.144,20.813 10.304,20.655 10.315,20.454L10.315,20.454L10.74,15.328L10.315,7.398C10.304,7.197 10.145,7.038 9.952,7.038L9.952,7.038ZM6.103,9.794C5.954,9.794 5.833,9.912 5.822,10.07L5.398,15.325L5.822,20.402C5.833,20.56 5.954,20.679 6.103,20.679C6.25,20.679 6.372,20.56 6.385,20.402L6.866,15.325L6.385,10.069C6.384,9.911 6.251,9.793 6.103,9.793L6.103,9.794ZM13.862,20.809C14.102,20.809 14.298,20.616 14.307,20.368L14.676,15.33L14.308,4.772C14.298,4.524 14.103,4.331 13.863,4.331C13.621,4.331 13.425,4.526 13.418,4.773L13.09,15.33L13.418,20.371C13.425,20.617 13.621,20.81 13.862,20.81L13.862,20.809ZM21.867,20.833C22.198,20.833 22.47,20.561 22.476,20.227L22.476,20.23L22.476,20.227L22.734,15.332L22.476,3.139C22.47,2.805 22.197,2.532 21.867,2.532C21.536,2.532 21.264,2.804 21.259,3.14L21.029,15.33C21.029,15.337 21.259,20.232 21.259,20.232C21.264,20.563 21.538,20.835 21.867,20.835L21.867,20.833ZM17.834,20.816C18.122,20.816 18.354,20.585 18.361,20.291L18.361,20.295L18.674,15.332L18.361,4.697C18.354,4.403 18.121,4.173 17.834,4.173C17.545,4.173 17.313,4.403 17.306,4.697L17.029,15.332L17.308,20.294C17.314,20.584 17.545,20.815 17.836,20.815L17.834,20.816ZM8.022,20.768C8.192,20.768 8.331,20.632 8.344,20.451L8.797,15.326L8.344,10.449C8.343,10.269 8.194,10.134 8.022,10.134C7.849,10.134 7.71,10.27 7.7,10.452L7.301,15.326L7.7,20.451C7.711,20.632 7.849,20.768 8.022,20.768L8.022,20.768ZM4.207,20.488C4.332,20.488 4.433,20.39 4.447,20.253L4.956,15.325L4.447,10.211C4.432,10.074 4.331,9.976 4.206,9.976C4.08,9.976 3.979,10.074 3.966,10.211L3.518,15.325L3.966,20.252C3.967,20.388 4.08,20.488 4.206,20.488L4.207,20.488ZM19.847,4.519C19.535,4.519 19.284,4.768 19.278,5.085L19.024,15.331L19.278,20.262C19.284,20.575 19.535,20.824 19.847,20.824C20.158,20.824 20.407,20.576 20.415,20.258L20.415,20.262L20.7,15.331L20.415,5.083C20.407,4.766 20.158,4.518 19.847,4.518L19.847,4.519ZM11.903,20.819C12.119,20.819 12.297,20.643 12.307,20.419L12.704,15.328L12.307,5.584C12.296,5.359 12.119,5.184 11.903,5.184C11.686,5.184 11.508,5.359 11.499,5.584L11.148,15.328L11.499,20.419C11.508,20.641 11.686,20.816 11.903,20.816L11.903,20.819ZM16.33,20.336L16.33,20.334L16.671,15.327L16.33,4.413C16.323,4.142 16.108,3.929 15.844,3.929C15.579,3.929 15.365,4.142 15.358,4.413L15.056,15.326L15.359,20.335C15.366,20.604 15.58,20.815 15.845,20.815C16.109,20.815 16.323,20.603 16.331,20.333L16.33,20.336ZM42.096,9.036C41.288,9.036 40.516,9.2 39.813,9.494C39.343,4.173 34.882,0 29.439,0C28.108,0 26.81,0.263 25.663,0.706C25.217,0.878 25.098,1.056 25.094,1.401L25.094,20.138C25.099,20.499 25.38,20.8 25.732,20.837C25.747,20.837 41.992,20.847 42.096,20.847C45.356,20.847 48,18.203 48,14.943C48,11.682 45.358,9.038 42.096,9.038L42.096,9.036ZM23.887,1.384C23.532,1.384 23.242,1.675 23.236,2.034L22.97,15.332L23.236,20.158C23.242,20.511 23.532,20.801 23.887,20.801C24.241,20.801 24.531,20.511 24.537,20.153L24.537,20.16L24.827,15.332L24.537,2.032C24.532,1.676 24.241,1.384 23.887,1.384Z" fill="url(#pf_0_15_169)"/>
<defs>
<linearGradient id="pf_0_15_169" x1="24.61" y1="20.67" x2="23.593" y2="-0.088" gradientUnits="userSpaceOnUse">
<stop stop-color="#FF433A"/>
<stop offset="1" stop-color="#FF9436"/>
</linearGradient>
</defs>
</svg>
