<svg width="48" height="48" viewBox="0 0 48 48" fill="none" xmlns="http://www.w3.org/2000/svg" xmlns:xlink="http://www.w3.org/1999/xlink">
<path d="M47.056,41.6C46.592,42.784 45.52,44.448 43.984,45.632C43.104,46.304 42.048,46.96 40.608,47.392C39.072,47.856 37.168,48 34.8,48L13.2,48C10.832,48 8.944,47.84 7.392,47.392C5.952,46.96 4.896,46.32 4.016,45.632C2.496,44.464 1.408,42.784 0.944,41.6C0.016,39.216 0,36.512 0,34.8L0,13.2C0,11.488 0.016,8.784 0.944,6.4C1.408,5.216 2.48,3.552 4.016,2.368C4.896,1.696 5.952,1.04 7.392,0.608C8.944,0.16 10.832,0 13.2,0L34.8,0C37.168,0 39.056,0.16 40.608,0.608C42.048,1.04 43.104,1.68 43.984,2.368C45.504,3.536 46.592,5.216 47.056,6.4C48,8.784 48,11.504 48,13.2L48,34.8C48,36.512 47.984,39.216 47.056,41.6Z" clip-rule="evenodd" fill-rule="evenodd" fill="url(#pf_0_15_156)"/>
<defs>
<linearGradient id="pf_0_15_156" x1="24" y1="0" x2="24" y2="48" gradientUnits="userSpaceOnUse">
<stop stop-color="#F452FF"/>
<stop offset="1" stop-color="#832BC1"/>
</linearGradient>
</defs>
</svg>
