<svg width="48" height="48" viewBox="0 0 48 48" fill="none" xmlns="http://www.w3.org/2000/svg" xmlns:xlink="http://www.w3.org/1999/xlink">
<path d="M24,0C37.255,0 48,10.745 48,24C48,36.27 38.791,46.389 26.908,47.824L26.908,31.334L33.4,31.334L34.747,24L26.908,24L26.908,21.406C26.908,19.468 27.288,18.127 28.16,17.27C29.032,16.413 30.396,16.04 32.363,16.04C32.861,16.04 33.32,16.045 33.727,16.055C34.318,16.069 34.8,16.094 35.136,16.129L35.136,9.481C35.002,9.444 34.844,9.406 34.666,9.37C34.264,9.287 33.764,9.206 33.227,9.136C32.105,8.989 30.819,8.885 29.919,8.885C26.285,8.885 23.538,9.662 21.621,11.272C19.308,13.216 18.202,16.372 18.202,20.84L18.202,24L13.253,24L13.253,31.334L18.202,31.334L18.202,47.293C7.749,44.7 0,35.255 0,24C0,10.745 10.745,0 24,0Z" fill="#000000"/>
</svg>
