<svg width="48" height="48" viewBox="0 0 48 48" fill="none" xmlns="http://www.w3.org/2000/svg" xmlns:xlink="http://www.w3.org/1999/xlink">
<path d="M23.858,38.282C15.919,38.282 12.291,34.237 12.291,31.271C12.29,30.563 12.581,29.886 13.094,29.399C13.608,28.913 14.299,28.659 15.006,28.698C18.405,28.698 17.516,33.797 23.858,33.797C27.1,33.797 29.005,31.845 29.005,30.012C29.005,28.91 28.375,27.651 26.235,27.148L19.153,25.361C13.464,23.913 12.472,20.75 12.472,17.815C12.472,11.725 18.043,9.521 23.347,9.521C28.233,9.521 34.041,12.22 34.041,15.871C34.041,17.445 32.727,18.287 31.2,18.287C28.296,18.287 28.784,14.211 22.946,14.211C20.042,14.211 18.515,15.572 18.515,17.477C18.515,19.381 20.774,20.026 22.757,20.459L27.982,21.639C33.71,22.93 35.237,26.29 35.237,29.508C35.237,34.458 31.405,38.282 23.851,38.282M45.781,27.809C46.008,26.509 46.121,25.193 46.119,23.874C46.147,17.249 43.236,10.953 38.172,6.683C33.107,2.413 26.409,0.608 19.885,1.755C17.879,0.6 15.605,-0.005 13.291,0C8.541,0.029 4.162,2.575 1.787,6.688C-0.588,10.802 -0.603,15.867 1.747,19.995C0.436,27.2 2.733,34.59 7.897,39.783C13.061,44.975 20.439,47.313 27.651,46.041C29.654,47.194 31.926,47.8 34.237,47.795C38.985,47.765 43.361,45.22 45.735,41.109C48.11,36.998 48.127,31.936 45.781,27.809Z" fill="#0078D7"/>
</svg>
