<svg width="48" height="48" viewBox="0 0 48 48" fill="none" xmlns="http://www.w3.org/2000/svg" xmlns:xlink="http://www.w3.org/1999/xlink">
<path d="M9.886,4.906C13.417,2.29 17.591,0.708 21.941,0.315L21.941,7.513C19.129,7.877 16.444,8.954 14.147,10.656C11.27,12.787 9.155,15.787 8.113,19.212C7.071,22.637 7.157,26.306 8.359,29.678C9.561,33.05 11.814,35.947 14.787,37.941C17.761,39.935 21.296,40.92 24.872,40.752C28.448,40.584 31.875,39.271 34.648,37.007C37.421,34.743 39.393,31.648 40.274,28.178C40.888,25.758 40.948,23.244 40.467,20.821L46.511,15.962L46.507,15.923C48.139,20.411 48.388,25.294 47.21,29.938C45.953,34.895 43.135,39.317 39.174,42.551C35.212,45.785 30.316,47.661 25.208,47.901C20.099,48.141 15.049,46.733 10.801,43.884C6.554,41.036 3.334,36.897 1.618,32.08C-0.099,27.263 -0.222,22.021 1.267,17.128C2.755,12.236 5.777,7.951 9.886,4.906Z" fill="#FCCA00"/>
</svg>
