<svg width="44" height="50" viewBox="0 0 44 50" fill="none" xmlns="http://www.w3.org/2000/svg" xmlns:xlink="http://www.w3.org/1999/xlink">
<path d="M35.372,24.28L39.694,19.986C44.172,15.539 44.172,8.295 39.694,3.847C35.217,-0.601 27.924,-0.601 23.446,3.847L21.873,5.41C19.789,2.438 16.353,0.5 12.43,0.5C6.09,0.5 0.947,5.608 0.947,11.906L0.947,36.633C0.947,42.93 6.09,48.038 12.43,48.038C16.353,48.038 19.789,46.101 21.873,43.128L23.446,44.691C27.924,49.139 35.217,49.139 39.694,44.691C44.172,40.244 44.172,32.999 39.694,28.552L35.372,24.28Z" clip-rule="evenodd" fill-rule="evenodd" fill="#05CE78"/>
</svg>
