<svg width="8" height="30" viewBox="0 0 8 30" fill="none" xmlns="http://www.w3.org/2000/svg" xmlns:xlink="http://www.w3.org/1999/xlink">
<path d="M6.361,22.181L6.361,25.456C6.361,27.109 5.017,28.453 3.363,28.453C1.71,28.453 0.366,27.109 0.366,25.456L0.366,22.181C0.366,20.528 1.71,19.184 3.363,19.184C5.017,19.184 6.361,20.528 6.361,22.181ZM6.361,2.544L6.361,13.254C6.329,14.875 4.995,16.187 3.363,16.187C1.731,16.187 0.398,14.886 0.366,13.254L0.366,2.544C0.366,0.891 1.71,-0.453 3.363,-0.453C5.017,-0.453 6.361,0.891 6.361,2.544Z" fill="#EA4335"/>
</svg>
