<svg width="48" height="38" viewBox="0 0 48 38" fill="none" xmlns="http://www.w3.org/2000/svg" xmlns:xlink="http://www.w3.org/1999/xlink">
<path d="M11.244,-0.824L0,9.895L0,33.686C0,35.419 1.473,36.823 3.291,36.823L34.83,36.824C36.649,36.824 38.121,35.42 38.121,33.687L38.121,26.931L45.34,32.573C46.42,33.378 48,32.643 48,31.334L48,4.928C48,3.603 46.385,2.876 45.307,3.715L38.121,9.331L38.121,2.314C38.121,0.58 36.649,-0.824 34.83,-0.824L11.244,-0.824ZM11.245,9.895L11.244,26.104L27.151,26.105L27.151,18L27.151,9.895L11.245,9.895Z" clip-rule="evenodd" fill-rule="evenodd" fill="#000000"/>
</svg>
