<svg width="50" height="48" viewBox="0 0 50 48" fill="none" xmlns="http://www.w3.org/2000/svg" xmlns:xlink="http://www.w3.org/1999/xlink">
<path d="M48.001,15.013L48.001,15.015L48,15.015L48,32.985C48,33.1 48,33.214 48,33.329C48,33.788 48.001,34.246 47.997,34.705C47.995,35.187 47.989,35.67 47.976,36.153C47.948,37.204 47.885,38.265 47.699,39.305C47.509,40.361 47.199,41.344 46.711,42.304C46.231,43.246 45.604,44.108 44.856,44.856C44.108,45.604 43.245,46.23 42.303,46.71C41.344,47.198 40.362,47.509 39.306,47.698C38.266,47.885 37.205,47.948 36.153,47.976C35.67,47.989 35.188,47.994 34.705,47.997C34.132,48 33.56,48 32.987,48L15.015,48C14.9,48 14.786,48 14.671,48C14.212,48 13.754,48 13.295,47.997C12.812,47.994 12.33,47.989 11.847,47.976C10.795,47.948 9.734,47.885 8.694,47.698C7.639,47.508 6.656,47.198 5.698,46.71C4.755,46.23 3.892,45.604 3.144,44.856C2.396,44.108 1.77,43.246 1.29,42.304C0.802,41.344 0.491,40.361 0.301,39.305C0.115,38.265 0.052,37.205 0.024,36.153C0.011,35.67 0.005,35.187 0.003,34.705C0,34.131 0,33.558 0,32.985L0,15.015C0,14.442 0,13.868 0.003,13.296C0.005,12.814 0.011,12.331 0.024,11.848C0.052,10.798 0.115,9.736 0.301,8.696C0.491,7.64 0.802,6.657 1.29,5.697C1.77,4.755 2.396,3.893 3.144,3.145C3.892,2.397 4.755,1.771 5.698,1.291C6.656,0.803 7.638,0.492 8.694,0.303C9.734,0.115 10.795,0.053 11.847,0.024C12.33,0.011 12.812,0.005 13.295,0.003C13.868,0 14.442,0 15.015,0L32.986,0C33.56,0 34.133,0 34.706,0.003C35.189,0.005 35.672,0.011 36.154,0.024C37.206,0.052 38.268,0.115 39.308,0.301C40.362,0.492 41.345,0.801 42.304,1.289C43.247,1.769 44.109,2.396 44.857,3.144C45.605,3.892 46.232,4.753 46.712,5.696C47.2,6.656 47.511,7.639 47.7,8.695C47.887,9.735 47.949,10.795 47.977,11.847C47.991,12.33 47.996,12.812 47.999,13.295C48.001,13.868 48.001,14.44 48.001,15.013ZM32.572,7.531C32.696,7.506 33.724,7.324 33.839,7.313C34.609,7.247 35.041,7.752 35.039,8.571L35.039,31.149C35.039,31.756 35.034,32.305 34.906,32.913C34.782,33.502 34.558,34.056 34.209,34.555C33.862,35.052 33.418,35.46 32.899,35.766C32.376,36.076 31.825,36.253 31.237,36.371C30.134,36.593 29.379,36.644 28.67,36.501C27.986,36.363 27.407,36.049 26.943,35.624C26.255,34.995 25.827,34.144 25.734,33.254C25.625,32.212 25.971,31.099 26.754,30.279C27.149,29.864 27.645,29.537 28.307,29.28C29,29.011 29.764,28.851 30.94,28.614L31.869,28.426C32.277,28.344 32.626,28.24 32.907,27.896C33.192,27.55 33.196,27.127 33.196,26.71L33.196,16.167C33.196,15.36 32.833,15.141 32.063,15.288C31.511,15.396 19.685,17.781 19.685,17.781C19.018,17.944 18.784,18.162 18.784,18.989L18.784,34.432C18.784,35.039 18.753,35.588 18.626,36.195C18.502,36.784 18.277,37.339 17.929,37.838C17.582,38.335 17.138,38.743 16.619,39.049C16.095,39.359 15.545,39.543 14.957,39.662C13.854,39.885 13.098,39.934 12.39,39.792C11.706,39.655 11.127,39.332 10.662,38.907C9.975,38.278 9.575,37.427 9.482,36.537C9.373,35.495 9.691,34.382 10.474,33.561C10.869,33.147 11.365,32.82 12.027,32.563C12.719,32.294 13.484,32.133 14.659,31.897L15.589,31.709C15.997,31.627 16.345,31.523 16.627,31.179C16.909,30.834 16.942,30.43 16.942,30.014L16.942,12.207C16.942,11.968 16.962,11.806 16.974,11.726C17.031,11.351 17.182,11.029 17.453,10.802C17.678,10.613 17.969,10.482 18.34,10.403L18.345,10.402L32.572,7.531Z" clip-rule="evenodd" fill-rule="evenodd" fill="#000000"/>
</svg>
