<svg width="26" height="24" viewBox="0 0 26 24" fill="none" xmlns="http://www.w3.org/2000/svg" xmlns:xlink="http://www.w3.org/1999/xlink">
<path d="M0.864,9.747C7.86,6.698 12.526,4.689 14.86,3.718C21.525,0.946 22.91,0.464 23.813,0.448C24.011,0.445 24.455,0.494 24.743,0.727C24.986,0.924 25.052,1.19 25.084,1.377C25.116,1.564 25.156,1.989 25.124,2.322C24.763,6.117 23.2,15.326 22.405,19.577C22.069,21.375 21.406,21.978 20.765,22.037C19.371,22.166 18.313,21.116 16.963,20.231C14.851,18.847 13.658,17.985 11.607,16.634C9.238,15.072 10.774,14.214 12.124,12.811C12.478,12.444 18.618,6.859 18.737,6.352C18.752,6.289 18.766,6.052 18.626,5.928C18.485,5.803 18.278,5.846 18.129,5.88C17.917,5.928 14.542,8.158 8.005,12.571C7.047,13.228 6.18,13.549 5.403,13.532C4.546,13.514 2.897,13.048 1.672,12.649C0.169,12.161 -1.026,11.902 -0.922,11.073C-0.867,10.64 -0.272,10.198 0.864,9.747Z" clip-rule="evenodd" fill-rule="evenodd" fill="#FFFFFF"/>
</svg>
