<svg width="48" height="48" viewBox="0 0 48 48" fill="none" xmlns="http://www.w3.org/2000/svg" xmlns:xlink="http://www.w3.org/1999/xlink">
<path d="M23.927,0C10.713,0 0,10.712 0,23.926C0,37.141 10.713,47.852 23.927,47.852C37.142,47.852 47.853,37.141 47.853,23.926C47.853,10.713 37.142,0.001 23.926,0.001L23.927,0ZM34.899,34.509C34.471,35.211 33.551,35.434 32.848,35.003C27.23,31.571 20.158,30.794 11.829,32.697C11.027,32.88 10.227,32.377 10.044,31.574C9.86,30.771 10.361,29.971 11.166,29.789C20.28,27.705 28.098,28.603 34.405,32.457C35.108,32.889 35.331,33.806 34.899,34.509ZM37.828,27.993C37.288,28.871 36.139,29.149 35.262,28.609C28.831,24.655 19.027,23.51 11.42,25.819C10.433,26.117 9.391,25.561 9.092,24.576C8.795,23.589 9.351,22.549 10.336,22.249C19.025,19.613 29.828,20.89 37.213,25.429C38.091,25.969 38.368,27.117 37.828,27.993ZM38.079,21.209C30.368,16.629 17.645,16.207 10.282,18.442C9.1,18.801 7.85,18.133 7.491,16.951C7.133,15.768 7.8,14.519 8.983,14.159C17.435,11.593 31.485,12.089 40.363,17.36C41.429,17.991 41.777,19.364 41.146,20.426C40.517,21.49 39.14,21.84 38.08,21.209L38.079,21.209Z" fill="#1ED760"/>
</svg>
