<svg width="48" height="50" viewBox="0 0 48 50" fill="none" xmlns="http://www.w3.org/2000/svg" xmlns:xlink="http://www.w3.org/1999/xlink">
<path d="M0,23.28C0,9.906 10.482,0 24,0C37.518,0 48,9.912 48,23.286C48,36.66 37.518,46.566 24,46.566C21.57,46.566 19.242,46.242 17.052,45.642C16.626,45.528 16.17,45.558 15.768,45.738L11.004,47.838C10.716,47.965 10.402,48.019 10.088,47.996C9.775,47.973 9.471,47.873 9.205,47.706C8.939,47.538 8.719,47.307 8.562,47.034C8.406,46.762 8.32,46.454 8.31,46.14L8.178,41.868C8.166,41.34 7.926,40.848 7.536,40.5C2.868,36.324 0,30.276 0,23.28ZM16.638,18.906L9.588,30.09C8.91,31.164 10.23,32.37 11.238,31.602L18.81,25.854C19.059,25.665 19.363,25.562 19.676,25.561C19.989,25.56 20.294,25.661 20.544,25.848L26.154,30.054C26.552,30.353 27.007,30.566 27.492,30.68C27.976,30.794 28.479,30.806 28.968,30.716C29.458,30.626 29.923,30.435 30.335,30.156C30.747,29.877 31.097,29.515 31.362,29.094L38.418,17.916C39.09,16.842 37.77,15.63 36.762,16.398L29.19,22.146C28.941,22.335 28.637,22.438 28.324,22.439C28.011,22.44 27.706,22.34 27.456,22.152L21.846,17.946C21.448,17.647 20.993,17.434 20.508,17.32C20.024,17.206 19.521,17.194 19.032,17.284C18.542,17.374 18.077,17.565 17.665,17.844C17.253,18.123 16.903,18.485 16.638,18.906Z" clip-rule="evenodd" fill-rule="evenodd" fill="#000000"/>
</svg>
