<svg width="48" height="28" viewBox="0 0 48 28" fill="none" xmlns="http://www.w3.org/2000/svg" xmlns:xlink="http://www.w3.org/1999/xlink">
<path d="M48,26.916L0,26.916C0.768,18.78 5.419,11.83 12.285,8.11L8.303,1.212C8.078,0.826 8.209,0.335 8.596,0.11C8.982,-0.115 9.474,0.016 9.698,0.403L13.732,7.389C16.81,5.983 20.274,5.199 24,5.199C27.726,5.199 31.19,5.983 34.268,7.389L38.302,0.403C38.521,0.016 39.018,-0.115 39.399,0.11C39.781,0.335 39.916,0.826 39.692,1.212L35.71,8.11C42.581,11.83 47.232,18.78 48,26.916ZM35.015,20.175C36.128,20.175 37.032,19.271 37.027,18.164C37.027,17.056 36.128,16.152 35.015,16.152C33.907,16.152 33.003,17.051 33.003,18.164C33.003,19.271 33.902,20.175 35.015,20.175ZM12.98,20.175C14.093,20.175 14.997,19.271 14.992,18.164C14.992,17.056 14.093,16.152 12.98,16.152C11.872,16.152 10.968,17.051 10.968,18.164C10.968,19.271 11.867,20.175 12.98,20.175Z" fill="#3DDC84"/>
</svg>
