<svg width="48" height="48" viewBox="0 0 48 48" fill="none" xmlns="http://www.w3.org/2000/svg" xmlns:xlink="http://www.w3.org/1999/xlink">
<path d="M47.4,31.537C47.794,29.083 48,26.567 48,24C48,21.434 47.794,18.917 47.4,16.463C46.095,8.34 39.66,1.905 31.537,0.6C29.083,0.206 26.566,0 24,0C21.434,0 18.917,0.206 16.463,0.6C8.34,1.905 1.905,8.34 0.6,16.463C0.206,18.917 0,21.434 0,24C0,26.567 0.206,29.083 0.6,31.537C1.905,39.66 8.34,46.095 16.463,47.4C18.917,47.794 21.434,48 24,48C26.566,48 29.083,47.794 31.537,47.4C39.66,46.095 46.095,39.66 47.4,31.537ZM26.571,32.571C27.992,32.571 29.143,31.42 29.143,30L29.143,20.571C29.143,17.731 26.84,15.429 24,15.429L12.857,15.429C11.437,15.429 10.286,16.58 10.286,18L10.286,27.429C10.286,30.269 12.588,32.571 15.429,32.571L26.571,32.571ZM31.886,19.8L35.657,16.971C36.505,16.336 37.714,16.94 37.714,18L37.714,30C37.714,31.059 36.505,31.664 35.657,31.028L31.886,28.2C31.238,27.714 30.857,26.952 30.857,26.143L30.857,21.857C30.857,21.048 31.238,20.286 31.886,19.8Z" clip-rule="evenodd" fill-rule="evenodd" fill="#000000"/>
</svg>
