<svg width="10" height="10" viewBox="0 0 10 10" fill="none" xmlns="http://www.w3.org/2000/svg" xmlns:xlink="http://www.w3.org/1999/xlink">
<path d="M7.885,2.562C6.35,0.86 4.085,0.214 1.994,0.659C1.786,0.697 1.587,0.776 1.411,0.892C1.234,1.008 1.082,1.159 0.964,1.334C0.846,1.51 0.765,1.708 0.725,1.916C0.685,2.123 0.688,2.337 0.732,2.544C0.776,2.751 0.861,2.947 0.982,3.12C1.103,3.294 1.258,3.441 1.437,3.554C1.616,3.666 1.816,3.742 2.025,3.775C2.234,3.809 2.448,3.801 2.653,3.751L2.653,3.752C3.173,3.641 3.712,3.668 4.218,3.831C4.724,3.994 5.178,4.288 5.535,4.681C5.891,5.076 6.137,5.558 6.247,6.078C6.358,6.598 6.329,7.138 6.165,7.643L6.166,7.643C6.037,8.043 6.072,8.477 6.263,8.85C6.453,9.224 6.785,9.507 7.184,9.636C7.583,9.765 8.018,9.73 8.391,9.538C8.765,9.347 9.047,9.015 9.176,8.616C9.833,6.582 9.422,4.264 7.885,2.562Z" fill="#FF9933"/>
</svg>
