<svg width="34" height="12" viewBox="0 0 34 12" fill="none" xmlns="http://www.w3.org/2000/svg" xmlns:xlink="http://www.w3.org/1999/xlink">
<path d="M2.076,11.347L6.916,11.347C7.605,11.347 8.168,10.784 8.168,10.095L8.168,9.991C8.168,9.302 7.605,8.739 6.916,8.739L3.432,8.739L3.432,0.812C3.432,0.123 2.869,-0.44 2.18,-0.44L2.076,-0.44C1.387,-0.44 0.824,0.123 0.824,0.812L0.824,10.095C0.824,10.784 1.387,11.347 2.076,11.347L2.076,11.347ZM32.069,5.528L32.069,5.424C32.069,4.735 31.506,4.172 30.818,4.172L27.333,4.172L27.333,2.19L30.818,2.19C31.506,2.19 32.069,1.627 32.069,0.938L32.069,0.834C32.069,0.146 31.506,-0.418 30.818,-0.418L25.977,-0.418C25.289,-0.418 24.726,0.146 24.726,0.834L24.726,10.118C24.726,10.806 25.289,11.369 25.977,11.369L30.818,11.369C31.506,11.369 32.069,10.806 32.069,10.118L32.069,10.013C32.069,9.325 31.506,8.761 30.818,8.761L27.333,8.761L27.333,6.779L30.818,6.779C31.506,6.78 32.069,6.217 32.069,5.528L32.069,5.528ZM22.761,10.974L22.761,10.973C22.993,10.74 23.123,10.424 23.123,10.096L23.123,0.812C23.123,0.124 22.56,-0.44 21.871,-0.44L21.767,-0.44C21.078,-0.44 20.515,0.124 20.515,0.812L20.515,6.262L15.991,0.193C15.775,-0.184 15.368,-0.44 14.904,-0.44L14.8,-0.44C14.111,-0.44 13.548,0.124 13.548,0.812L13.548,10.096C13.548,10.784 14.111,11.347 14.8,11.347L14.904,11.347C15.593,11.347 16.156,10.784 16.156,10.096L16.156,4.544L20.713,10.768C20.741,10.812 20.771,10.853 20.804,10.893L20.805,10.894C20.93,11.064 21.101,11.181 21.292,11.253C21.438,11.314 21.599,11.347 21.767,11.347L21.871,11.347C22.075,11.347 22.276,11.297 22.456,11.201C22.581,11.141 22.686,11.065 22.761,10.974L22.761,10.974ZM10.43,11.347L10.534,11.347C11.223,11.347 11.786,10.784 11.786,10.095L11.786,0.812C11.786,0.123 11.223,-0.44 10.534,-0.44L10.43,-0.44C9.741,-0.44 9.178,0.123 9.178,0.812L9.178,10.095C9.178,10.784 9.741,11.347 10.43,11.347Z" clip-rule="evenodd" fill-rule="evenodd" fill="#FFFFFF"/>
</svg>
