<svg width="26" height="16" viewBox="0 0 26 16" fill="none" xmlns="http://www.w3.org/2000/svg" xmlns:xlink="http://www.w3.org/1999/xlink">
<path d="M9.268,-0.789L9.268,3.646L5.658,3.646C5.658,3.646 2.05,3.946 0.787,8.039C0.346,10.772 1.176,12.382 1.32,12.726C1.466,13.069 2.631,15.069 5.56,15.656L12.334,15.656L12.334,-0.74L9.268,-0.789ZM9.213,12.964L6.484,12.964C6.484,12.964 4.583,12.865 4.004,10.674C3.705,9.703 4.048,8.582 4.199,8.141C4.337,7.699 4.975,6.679 6.291,6.286L9.212,6.286L9.213,12.964ZM13.995,4.044L13.995,12.677C13.995,12.677 14.136,14.825 17.162,15.608L24.958,15.608L24.958,4.043L21.593,4.043L21.593,12.725L18.383,12.725C18.383,12.725 17.356,12.575 17.163,11.75L17.163,3.993L13.995,4.044Z" fill="#FFFFFF"/>
</svg>
