<svg width="48" height="28" viewBox="0 0 48 28" fill="none" xmlns="http://www.w3.org/2000/svg" xmlns:xlink="http://www.w3.org/1999/xlink">
<path d="M13.535,27.31C21.011,27.31 27.072,21.197 27.072,13.655C27.072,6.114 21.012,0 13.535,0C6.059,0 -0.002,6.115 -0.002,13.655C-0.002,21.195 6.059,27.31 13.535,27.31Z" fill="#000000"/>
<path d="M41.923,13.655C41.923,20.754 38.893,26.511 35.154,26.511C31.416,26.511 28.386,20.754 28.386,13.655C28.386,6.557 31.416,0.8 35.154,0.8C38.892,0.8 41.923,6.555 41.923,13.655Z" fill="#000000"/>
<path d="M47.998,13.655C47.998,20.014 46.932,25.172 45.617,25.172C44.302,25.172 43.237,20.015 43.237,13.655C43.237,7.295 44.302,2.139 45.617,2.139C46.931,2.139 47.998,7.295 47.998,13.655Z" fill="#000000"/>
</svg>
