<svg width="48" height="48" viewBox="0 0 48 48" fill="none" xmlns="http://www.w3.org/2000/svg" xmlns:xlink="http://www.w3.org/1999/xlink">
<path d="M47.999,24.257C37.371,24.583 32.52,24.857 28.629,28.629C24.857,32.52 24.6,37.371 24.257,47.999C37.308,47.862 47.862,37.308 47.999,24.257Z" fill="#000000"/>
<path d="M23.743,47.999C23.417,37.371 23.143,32.52 19.371,28.629C15.48,24.857 10.629,24.6 0.001,24.257C0.138,37.308 10.692,47.862 23.743,47.999Z" fill="#000000"/>
<path d="M47.999,23.743C47.862,10.692 37.308,0.138 24.257,0.001C24.583,10.629 24.857,15.48 28.629,19.371C32.52,23.143 37.371,23.4 47.999,23.743Z" fill="#000000"/>
<path d="M23.743,0.001C10.692,0.138 0.138,10.692 0.001,23.743C10.629,23.417 15.48,23.143 19.371,19.371C23.143,15.48 23.4,10.629 23.743,0.001Z" fill="#000000"/>
</svg>
