<svg width="48" height="46" viewBox="0 0 48 46" fill="none" xmlns="http://www.w3.org/2000/svg" xmlns:xlink="http://www.w3.org/1999/xlink">
<path d="M48,19.218C48,8.604 37.255,0 24,0C10.745,0 0,8.604 0,19.218C0,28.679 8.537,36.543 19.78,38.14L19.785,38.141C20.049,38.178 20.315,38.211 20.582,38.242C22.972,38.739 22.577,40.793 22.247,42.505C22.049,43.535 21.875,44.441 22.346,44.809C23.787,45.936 34.712,38.632 41.349,32.498C42.309,31.693 43.183,30.822 43.959,29.894L43.973,29.878C44.158,29.674 44.305,29.49 44.417,29.323C46.688,26.387 48,22.926 48,19.218ZM14.916,25.347L10.076,25.347C9.387,25.347 8.824,24.784 8.824,24.095L8.824,14.812C8.824,14.123 9.387,13.56 10.076,13.56L10.18,13.56C10.869,13.56 11.432,14.123 11.432,14.812L11.432,22.739L14.916,22.739C15.605,22.739 16.168,23.302 16.168,23.991L16.168,24.095C16.168,24.784 15.605,25.347 14.916,25.347ZM40.07,19.424L40.07,19.528C40.07,20.216 39.506,20.78 38.818,20.779L35.334,20.779L35.334,22.761L38.818,22.761C39.506,22.761 40.07,23.325 40.07,24.013L40.07,24.117C40.07,24.806 39.506,25.369 38.818,25.369L33.977,25.369C33.289,25.369 32.726,24.806 32.726,24.117L32.726,14.834C32.726,14.146 33.289,13.582 33.977,13.582L38.818,13.582C39.506,13.582 40.07,14.146 40.07,14.834L40.07,14.938C40.07,15.627 39.506,16.19 38.818,16.19L35.334,16.19L35.334,18.172L38.818,18.172C39.506,18.172 40.07,18.735 40.07,19.424ZM30.761,24.974C30.687,25.065 30.581,25.141 30.456,25.201C30.276,25.297 30.075,25.347 29.871,25.347L29.767,25.347C29.599,25.347 29.439,25.314 29.292,25.253C29.101,25.181 28.93,25.064 28.805,24.894C28.771,24.854 28.741,24.812 28.713,24.768L24.156,18.544L24.156,24.095C24.156,24.784 23.593,25.347 22.904,25.347L22.8,25.347C22.111,25.347 21.548,24.784 21.548,24.095L21.548,14.812C21.548,14.124 22.111,13.56 22.8,13.56L22.904,13.56C23.368,13.56 23.775,13.816 23.991,14.193L28.515,20.262L28.515,14.812C28.515,14.124 29.078,13.56 29.767,13.56L29.871,13.56C30.56,13.56 31.123,14.124 31.123,14.812L31.123,24.095C31.123,24.424 30.992,24.74 30.761,24.974ZM18.534,25.347L18.43,25.347C17.741,25.347 17.178,24.784 17.178,24.095L17.178,14.812C17.178,14.123 17.741,13.56 18.43,13.56L18.534,13.56C19.223,13.56 19.786,14.123 19.786,14.812L19.786,24.095C19.786,24.784 19.223,25.347 18.534,25.347Z" clip-rule="evenodd" fill-rule="evenodd" fill="#000000"/>
</svg>
