<svg width="48" height="42" viewBox="0 0 48 42" fill="none" xmlns="http://www.w3.org/2000/svg" xmlns:xlink="http://www.w3.org/1999/xlink">
<path d="M33,11.032C33.909,11.032 34.797,11.108 35.673,11.216C34.089,4.261 26.784,-1 18,-1C8.058,-1 0,5.735 0,14.04C0,18.829 2.694,23.077 6.873,25.826L4.5,30.585L10.965,27.808C12.351,28.302 13.791,28.708 15.33,28.897C15.12,27.98 15,27.039 15,26.073C15,17.779 23.073,11.032 33,11.032ZM24,5.768C25.243,5.768 26.25,6.778 26.25,8.024C26.25,9.27 25.243,10.28 24,10.28C22.757,10.28 21.75,9.27 21.75,8.024C21.75,6.778 22.757,5.768 24,5.768ZM12,10.28C10.758,10.28 9.75,9.27 9.75,8.024C9.75,6.778 10.758,5.768 12,5.768C13.242,5.768 14.25,6.778 14.25,8.024C14.25,9.27 13.242,10.28 12,10.28Z" fill="#51C332"/>
<path d="M48,26.073C48,19.427 41.282,14.04 33,14.04C24.717,14.04 18,19.427 18,26.073C18,32.718 24.717,38.105 33,38.105C34.362,38.105 35.658,37.912 36.915,37.639L45,41.113L42.204,35.509C45.708,33.307 48,29.92 48,26.073ZM28.5,25.321C27.258,25.321 26.25,24.31 26.25,23.064C26.25,21.818 27.258,20.808 28.5,20.808C29.743,20.808 30.75,21.819 30.75,23.064C30.75,24.311 29.743,25.321 28.5,25.321ZM37.5,25.321C36.257,25.321 35.25,24.31 35.25,23.064C35.25,21.818 36.257,20.808 37.5,20.808C38.743,20.808 39.75,21.819 39.75,23.064C39.75,24.311 38.743,25.321 37.5,25.321Z" fill="#51C332"/>
</svg>
