<svg width="46" height="48" viewBox="0 0 46 48" fill="none" xmlns="http://www.w3.org/2000/svg" xmlns:xlink="http://www.w3.org/1999/xlink">
<path d="M11.012,16.578C11.167,17.961 11.863,24.177 6.663,25.295C1.46,26.419 -0.475,20.388 0.097,17.563C0.097,17.563 0.713,11.462 4.932,11.085C8.284,10.792 10.754,14.465 11.011,16.569L11.012,16.578Z" fill="#000000"/>
<path d="M21.544,7.414C21.544,11.513 19.218,14.832 16.341,14.832C13.462,14.832 11.132,11.513 11.132,7.414C11.132,3.313 13.463,0 16.341,0C19.218,0 21.544,3.314 21.544,7.414Z" fill="#000000"/>
<path d="M35.557,8.596C35.064,11.712 32.596,15.825 28.745,15.32C24.897,14.826 24.028,11.343 24.403,7.849C24.71,4.993 28.121,0.615 30.853,1.243C33.573,1.865 36.062,5.484 35.557,8.596Z" fill="#000000"/>
<path d="M38.172,14.572C42.764,14.572 43.996,19.065 43.996,20.555C43.996,20.668 44,20.809 44.004,20.972C44.055,22.977 44.192,28.413 38.916,28.53C33.203,28.654 32.965,24.666 32.965,21.807C32.965,18.812 33.573,14.572 38.172,14.572Z" fill="#000000"/>
<path d="M14.484,40.964L17.213,40.964L17.212,34.286L14.291,34.286C12.975,34.679 12.337,35.699 12.199,36.141C12.048,36.582 11.705,37.703 12.004,38.674C12.583,40.865 14.484,40.964 14.484,40.964Z" fill="#000000"/>
<path d="M28.744,24.045C32.22,29.029 38.172,33.639 38.172,33.639C38.172,33.639 42.633,37.132 39.782,43.858C36.934,50.59 26.511,47.091 26.511,47.091C26.511,47.091 22.668,45.851 18.199,46.847C13.741,47.846 9.896,47.469 9.896,47.469C9.896,47.469 4.68,47.594 3.192,40.992C1.931,35.378 6.571,31.922 8.302,30.633C8.608,30.405 8.823,30.245 8.898,30.152C9.022,29.996 9.331,29.731 9.759,29.364C11.048,28.26 13.42,26.229 15.095,23.421C17.332,19.689 24.027,16.696 28.744,24.045ZM17.268,31.646L17.268,27.211L20.334,27.26L20.334,43.656L13.56,43.656C10.631,43.069 9.466,41.069 9.32,40.726C9.311,40.703 9.298,40.676 9.284,40.643C9.073,40.168 8.375,38.594 8.787,36.039C10.05,31.946 13.658,31.646 13.658,31.646L17.268,31.646ZM21.995,40.677L21.995,32.044L25.163,31.993L25.163,39.75C25.356,40.575 26.383,40.725 26.383,40.725L29.593,40.725L29.593,32.043L32.958,32.043L32.958,43.608L25.162,43.608C22.136,42.825 21.995,40.677 21.995,40.677Z" clip-rule="evenodd" fill-rule="evenodd" fill="#000000"/>
</svg>
