<svg width="48" height="48" viewBox="0 0 48 48" fill="none" xmlns="http://www.w3.org/2000/svg" xmlns:xlink="http://www.w3.org/1999/xlink">
<path d="M48,24C48,37.255 37.255,48 24,48C10.745,48 0,37.255 0,24C0,10.745 10.745,0 24,0C37.255,0 48,10.745 48,24ZM24.86,17.718C22.526,18.689 17.86,20.698 10.864,23.747C9.728,24.198 9.133,24.64 9.078,25.073C8.987,25.803 9.901,26.091 11.147,26.482C11.316,26.536 11.492,26.591 11.672,26.649C12.897,27.048 14.546,27.514 15.403,27.532C16.18,27.549 17.047,27.228 18.005,26.571C24.542,22.158 27.917,19.928 28.129,19.88C28.278,19.846 28.485,19.803 28.626,19.928C28.766,20.052 28.752,20.289 28.737,20.352C28.647,20.738 25.056,24.076 23.198,25.804C22.619,26.342 22.208,26.724 22.124,26.811C21.936,27.007 21.744,27.192 21.56,27.369C20.422,28.467 19.568,29.29 21.607,30.634C22.587,31.279 23.372,31.813 24.154,32.346C25.008,32.928 25.861,33.509 26.963,34.231C27.244,34.416 27.512,34.607 27.774,34.793C28.768,35.502 29.661,36.139 30.765,36.037C31.406,35.978 32.069,35.375 32.405,33.577C33.2,29.326 34.763,20.117 35.124,16.322C35.156,15.989 35.116,15.564 35.084,15.377C35.052,15.19 34.986,14.924 34.743,14.727C34.455,14.494 34.011,14.445 33.813,14.448C32.91,14.464 31.525,14.946 24.86,17.718Z" clip-rule="evenodd" fill-rule="evenodd" fill="#000000"/>
</svg>
