<svg width="48" height="48" viewBox="0 0 48 48" fill="none" xmlns="http://www.w3.org/2000/svg" xmlns:xlink="http://www.w3.org/1999/xlink">
<path d="M44.457,0L3.543,0C2.604,0 1.702,0.373 1.038,1.038C0.373,1.702 0,2.604 0,3.543L0,44.457C0,45.396 0.373,46.298 1.038,46.962C1.702,47.627 2.604,48 3.543,48L44.457,48C45.396,48 46.298,47.627 46.962,46.962C47.627,46.298 48,45.396 48,44.457L48,3.543C48,2.604 47.627,1.702 46.962,1.038C46.298,0.373 45.396,0 44.457,0ZM14.307,40.89L7.09,40.89L7.09,17.967L14.307,17.967L14.307,40.89ZM10.693,14.79C9.875,14.785 9.076,14.538 8.397,14.08C7.719,13.622 7.192,12.973 6.882,12.215C6.572,11.458 6.493,10.625 6.656,9.823C6.819,9.021 7.216,8.285 7.796,7.708C8.377,7.131 9.116,6.739 9.919,6.581C10.722,6.423 11.554,6.507 12.31,6.822C13.066,7.137 13.711,7.668 14.165,8.35C14.619,9.031 14.861,9.831 14.86,10.65C14.868,11.198 14.765,11.742 14.558,12.25C14.351,12.757 14.044,13.218 13.655,13.604C13.266,13.99 12.804,14.295 12.295,14.498C11.786,14.702 11.241,14.801 10.693,14.79ZM40.907,40.91L33.693,40.91L33.693,28.387C33.693,24.693 32.123,23.553 30.097,23.553C27.957,23.553 25.857,25.167 25.857,28.48L25.857,40.91L18.64,40.91L18.64,17.983L25.58,17.983L25.58,21.16L25.673,21.16C26.37,19.75 28.81,17.34 32.533,17.34C36.56,17.34 40.91,19.73 40.91,26.73L40.907,40.91Z" fill="#0A66C2"/>
</svg>
