<svg width="6" height="48" viewBox="0 0 6 48" fill="none" xmlns="http://www.w3.org/2000/svg" xmlns:xlink="http://www.w3.org/1999/xlink">
<path d="M-0.997,6.272C-0.997,7.925 0.347,9.269 2,9.269C3.654,9.269 4.998,7.925 4.998,6.272L4.998,2.997C4.998,1.344 3.654,0 2,0C0.347,0 -0.997,1.344 -0.997,2.997L-0.997,6.272ZM-0.997,41.728C-0.997,40.075 0.347,38.731 2,38.731C3.654,38.731 4.998,40.075 4.998,41.728L4.998,45.003C4.998,46.656 3.654,48 2,48C0.347,48 -0.997,46.656 -0.997,45.003L-0.997,41.728Z" fill="#FAB908"/>
</svg>
