<svg width="48" height="48" viewBox="0 0 48 48" fill="none" xmlns="http://www.w3.org/2000/svg" xmlns:xlink="http://www.w3.org/1999/xlink">
<path d="M18.238,0.701L18.777,2.883C16.654,3.407 14.622,4.249 12.749,5.378L11.597,3.449C13.658,2.2 15.898,1.274 18.238,0.701L18.238,0.701ZM29.762,0.701L29.223,2.883C31.346,3.407 33.378,4.249 35.251,5.378L36.417,3.449C34.35,2.201 32.106,1.275 29.762,0.701L29.762,0.701ZM3.449,11.59C2.201,13.654 1.275,15.896 0.701,18.238L2.883,18.777C3.407,16.654 4.249,14.622 5.378,12.749L3.449,11.59ZM2.248,24C2.248,22.909 2.33,21.819 2.494,20.741L0.271,20.4C-0.09,22.784 -0.09,25.209 0.271,27.593L2.494,27.259C2.331,26.181 2.249,25.091 2.248,24L2.248,24ZM36.403,44.545L35.251,42.622C33.381,43.752 31.351,44.594 29.23,45.117L29.769,47.299C32.106,46.721 34.343,45.792 36.403,44.545ZM45.752,24C45.751,25.091 45.669,26.181 45.506,27.259L47.729,27.593C48.09,25.209 48.09,22.784 47.729,20.4L45.506,20.741C45.67,21.819 45.752,22.909 45.752,24L45.752,24ZM47.299,29.755L45.117,29.216C44.594,31.342 43.753,33.376 42.622,35.251L44.551,36.41C45.8,34.344 46.726,32.1 47.299,29.755L47.299,29.755ZM27.259,45.506C25.099,45.833 22.901,45.833 20.741,45.506L20.407,47.729C22.789,48.09 25.211,48.09 27.593,47.729L27.259,45.506ZM41.51,36.901C40.214,38.658 38.66,40.21 36.901,41.504L38.237,43.317C40.175,41.891 41.89,40.183 43.324,38.251L41.51,36.901ZM36.901,6.49C38.66,7.786 40.214,9.34 41.51,11.099L43.324,9.749C41.895,7.815 40.185,6.105 38.251,4.676L36.901,6.49ZM6.49,11.099C7.786,9.34 9.34,7.786 11.099,6.49L9.749,4.676C7.815,6.105 6.105,7.815 4.676,9.749L6.49,11.099ZM44.551,11.59L42.622,12.749C43.752,14.619 44.594,16.649 45.117,18.77L47.299,18.231C46.725,15.891 45.798,13.652 44.551,11.59L44.551,11.59ZM20.741,2.494C22.901,2.167 25.099,2.167 27.259,2.494L27.593,0.271C25.211,-0.09 22.789,-0.09 20.407,0.271L20.741,2.494ZM7.642,43.917L2.998,44.995L4.083,40.351L1.894,39.84L0.81,44.483C0.742,44.771 0.731,45.07 0.779,45.362C0.827,45.653 0.931,45.933 1.087,46.185C1.243,46.436 1.447,46.654 1.687,46.827C1.927,46.999 2.199,47.123 2.487,47.19C2.824,47.265 3.173,47.265 3.51,47.19L8.153,46.12L7.642,43.917ZM2.358,37.835L4.553,38.34L5.303,35.121C4.208,33.284 3.392,31.294 2.883,29.216L0.701,29.755C1.191,31.744 1.934,33.661 2.91,35.462L2.358,37.835ZM12.858,42.704L9.64,43.454L10.151,45.649L12.517,45.097C14.317,46.076 16.235,46.819 18.225,47.306L18.763,45.124C16.692,44.608 14.709,43.788 12.879,42.69L12.858,42.704ZM24,4.499C13.226,4.505 4.505,13.24 4.505,24.007C4.511,27.674 5.549,31.266 7.499,34.371L5.624,42.376L13.622,40.501C22.739,46.236 34.78,43.501 40.515,34.392C46.249,25.282 43.522,13.24 34.412,7.499C31.293,5.538 27.684,4.498 24,4.499Z" fill="#3A76F0"/>
</svg>
