<svg width="44" height="38" viewBox="0 0 44 38" fill="none" xmlns="http://www.w3.org/2000/svg" xmlns:xlink="http://www.w3.org/1999/xlink">
<path d="M3.025,15.698C14.836,10.552 22.712,7.159 26.653,5.52C37.904,0.84 40.242,0.027 41.766,0C42.101,-0.006 42.851,0.077 43.336,0.471C43.746,0.804 43.859,1.253 43.913,1.569C43.967,1.884 44.034,2.602 43.98,3.164C43.371,9.57 40.732,25.117 39.39,32.292C38.822,35.329 37.704,36.347 36.621,36.446C34.269,36.663 32.482,34.891 30.203,33.398C26.637,31.06 24.623,29.605 21.161,27.324C17.161,24.688 19.754,23.239 22.034,20.871C22.631,20.252 32.997,10.822 33.198,9.967C33.223,9.86 33.246,9.461 33.009,9.251C32.772,9.04 32.423,9.112 32.17,9.169C31.813,9.251 26.116,13.016 15.081,20.465C13.464,21.575 11.999,22.116 10.687,22.088C9.24,22.057 6.458,21.27 4.389,20.598C1.852,19.773 -0.165,19.337 0.011,17.936C0.102,17.207 1.107,16.46 3.025,15.698Z" clip-rule="evenodd" fill-rule="evenodd" fill="url(#pf_0_15_282)"/>
<defs>
<linearGradient id="pf_0_15_282" x1="2200" y1="0" x2="2200" y2="3619.392" gradientUnits="userSpaceOnUse">
<stop stop-color="#2AABEE"/>
<stop offset="1" stop-color="#229ED9"/>
</linearGradient>
</defs>
</svg>
