<svg width="48" height="48" viewBox="0 0 48 48" fill="none" xmlns="http://www.w3.org/2000/svg" xmlns:xlink="http://www.w3.org/1999/xlink">
<path d="M43.984,45.632C45.52,44.448 46.592,42.784 47.056,41.6C47.984,39.216 48,36.512 48,34.8L48,13.2C48,11.504 48,8.784 47.056,6.4C46.592,5.216 45.504,3.536 43.984,2.368C43.104,1.68 42.048,1.04 40.608,0.608C39.056,0.16 37.168,0 34.8,0L13.2,0C10.832,0 8.944,0.16 7.392,0.608C5.952,1.04 4.896,1.696 4.016,2.368C2.48,3.552 1.408,5.216 0.944,6.4C0.016,8.784 0,11.488 0,13.2L0,34.8C0,36.512 0.016,39.216 0.944,41.6C1.408,42.784 2.496,44.464 4.016,45.632C4.896,46.32 5.952,46.96 7.392,47.392C8.944,47.84 10.832,48 13.2,48L34.8,48C37.168,48 39.072,47.856 40.608,47.392C42.048,46.96 43.104,46.304 43.984,45.632ZM7.12,21.984C7.248,12.8 14.768,5.344 23.952,5.312C33.28,5.296 40.88,12.88 40.912,22.192C40.912,29.552 36.192,35.824 29.616,38.128C29.456,38.192 29.28,38.064 29.312,37.888L29.552,36.16C29.568,35.952 29.696,35.776 29.888,35.696C35.088,33.408 38.736,28.224 38.736,22.192C38.736,14.032 32.064,7.408 23.888,7.472C15.904,7.536 9.376,14.048 9.296,22.048C9.232,28.144 12.896,33.408 18.144,35.696C18.32,35.792 18.448,35.952 18.48,36.16C18.523,36.544 18.58,36.928 18.637,37.312C18.665,37.504 18.693,37.696 18.72,37.888C18.736,38.048 18.576,38.192 18.416,38.128C11.776,35.792 7.024,29.424 7.12,21.984ZM27.936,20.816C27.936,22.992 26.176,24.752 24,24.752C21.824,24.752 20.064,22.992 20.064,20.816C20.064,18.64 21.824,16.88 24,16.88C26.176,16.88 27.936,18.656 27.936,20.816ZM27.472,27.6C27.856,27.984 28.048,28.4 28.112,28.976C28.24,30.096 28.176,31.056 28.032,32.608C27.904,34.08 27.664,36.032 27.36,38.032C27.136,39.456 26.96,40.224 26.8,40.768C26.544,41.648 25.552,42.432 24,42.432C22.448,42.432 21.472,41.664 21.2,40.768C21.04,40.224 20.864,39.456 20.64,38.032C20.336,36.048 20.096,34.08 19.968,32.608L19.967,32.591C19.84,31.049 19.761,30.092 19.888,28.976C19.952,28.4 20.16,28 20.528,27.6C21.248,26.832 22.512,26.352 24,26.352C25.488,26.352 26.752,26.848 27.472,27.6ZM23.568,10.912C17.584,11.136 12.784,16.08 12.704,22.064C12.656,26 14.624,29.488 17.648,31.552C17.792,31.648 18,31.536 18,31.36C17.952,30.672 17.952,30.064 17.984,29.424C18,29.216 17.92,29.024 17.76,28.88C15.92,27.152 14.8,24.688 14.864,21.968C14.992,17.168 18.848,13.264 23.648,13.072C28.864,12.864 33.152,17.056 33.152,22.208C33.152,24.832 32.032,27.2 30.256,28.88C30.112,29.024 30.032,29.216 30.032,29.424C30.064,30.048 30.048,30.656 30.016,31.344C30,31.52 30.208,31.648 30.368,31.536C33.344,29.504 35.312,26.064 35.312,22.192C35.328,15.824 30,10.656 23.568,10.912Z" clip-rule="evenodd" fill-rule="evenodd" fill="#000000"/>
</svg>
