<svg width="30" height="16" viewBox="0 0 30 16" fill="none" xmlns="http://www.w3.org/2000/svg" xmlns:xlink="http://www.w3.org/1999/xlink">
<path d="M-0.412,14.089L6.638,2.905C6.903,2.484 7.252,2.123 7.664,1.844C8.076,1.565 8.542,1.374 9.031,1.284C9.52,1.194 10.023,1.206 10.508,1.32C10.992,1.434 11.448,1.647 11.845,1.946L17.455,6.151C17.706,6.339 18.01,6.44 18.323,6.439C18.636,6.438 18.94,6.335 19.189,6.145L26.761,0.398C27.769,-0.37 29.089,0.842 28.417,1.916L21.361,13.093C21.096,13.514 20.746,13.876 20.334,14.155C19.922,14.434 19.457,14.625 18.968,14.715C18.478,14.805 17.976,14.793 17.491,14.679C17.007,14.565 16.551,14.352 16.153,14.053L10.543,9.847C10.293,9.66 9.988,9.559 9.675,9.56C9.363,9.561 9.059,9.664 8.809,9.853L1.238,15.601C0.23,16.369 -1.09,15.163 -0.412,14.089Z" fill="#FFFFFF"/>
</svg>
