<svg width="48" height="36" viewBox="0 0 48 36" fill="none" xmlns="http://www.w3.org/2000/svg" xmlns:xlink="http://www.w3.org/1999/xlink">
<path d="M40.634,2.311C37.575,0.907 34.294,-0.127 30.864,-0.719C30.801,-0.731 30.739,-0.702 30.707,-0.645C30.285,0.106 29.817,1.085 29.49,1.854C25.801,1.302 22.13,1.302 18.517,1.854C18.189,1.067 17.705,0.106 17.281,-0.645C17.249,-0.7 17.187,-0.729 17.124,-0.719C13.696,-0.129 10.415,0.905 7.354,2.311C7.327,2.323 7.305,2.342 7.29,2.366C1.067,11.663 -0.638,20.731 0.198,29.687C0.202,29.731 0.227,29.773 0.261,29.8C4.366,32.815 8.343,34.645 12.247,35.858C12.309,35.877 12.375,35.855 12.415,35.803C13.338,34.542 14.161,33.213 14.867,31.815C14.909,31.733 14.869,31.636 14.784,31.603C13.478,31.108 12.235,30.504 11.039,29.819C10.945,29.763 10.937,29.628 11.024,29.563C11.276,29.375 11.528,29.179 11.768,28.981C11.811,28.944 11.872,28.937 11.923,28.96C19.779,32.546 28.283,32.546 36.046,28.96C36.097,28.935 36.158,28.942 36.203,28.979C36.443,29.177 36.695,29.375 36.948,29.563C37.035,29.628 37.03,29.763 36.935,29.819C35.739,30.518 34.496,31.108 33.189,31.601C33.104,31.634 33.066,31.733 33.108,31.815C33.829,33.211 34.652,34.54 35.558,35.801C35.596,35.855 35.664,35.877 35.726,35.858C39.648,34.645 43.625,32.815 47.731,29.8C47.767,29.773 47.79,29.733 47.793,29.689C48.794,19.335 46.117,10.341 40.696,2.368C40.683,2.342 40.661,2.323 40.634,2.311ZM16.04,24.234C13.675,24.234 11.726,22.063 11.726,19.396C11.726,16.73 13.637,14.558 16.04,14.558C18.462,14.558 20.392,16.749 20.354,19.396C20.354,22.063 18.443,24.234 16.04,24.234ZM31.989,24.234C29.625,24.234 27.676,22.063 27.676,19.396C27.676,16.73 29.587,14.558 31.989,14.558C34.411,14.558 36.341,16.749 36.303,19.396C36.303,22.063 34.411,24.234 31.989,24.234Z" fill="#000000"/>
</svg>
