<svg width="32" height="30" viewBox="0 0 32 30" fill="none" xmlns="http://www.w3.org/2000/svg" xmlns:xlink="http://www.w3.org/1999/xlink">
<path d="M32,14C32,12.063 30.428,10.491 28.491,10.491C27.537,10.491 26.695,10.856 26.077,11.474C23.691,9.761 20.379,8.639 16.73,8.498L18.33,1.003L23.523,2.098C23.579,3.417 24.674,4.484 26.021,4.484C27.397,4.484 28.519,3.361 28.519,1.986C28.519,0.61 27.397,-0.512 26.021,-0.512C25.039,-0.512 24.197,0.049 23.804,0.891L17.993,-0.344C17.825,-0.372 17.656,-0.344 17.516,-0.26C17.375,-0.175 17.291,-0.035 17.235,0.133L15.467,8.498C11.733,8.61 8.393,9.705 5.979,11.474C5.361,10.884 4.491,10.491 3.565,10.491C1.628,10.491 0.056,12.063 0.056,14C0.056,15.432 0.898,16.639 2.133,17.2C2.077,17.537 2.049,17.902 2.049,18.267C2.049,23.656 8.309,28.007 16.056,28.007C23.804,28.007 30.063,23.656 30.063,18.267C30.063,17.902 30.035,17.565 29.979,17.228C31.13,16.667 32,15.432 32,14ZM8,16.498C8,15.123 9.123,14 10.498,14C11.874,14 12.996,15.123 12.996,16.498C12.996,17.874 11.874,18.996 10.498,18.996C9.123,18.996 8,17.874 8,16.498ZM21.951,23.095C20.239,24.807 16.982,24.919 16.028,24.919C15.074,24.919 11.789,24.779 10.105,23.095C9.853,22.842 9.853,22.421 10.105,22.168C10.358,21.916 10.779,21.916 11.032,22.168C12.098,23.235 14.4,23.628 16.056,23.628C17.712,23.628 19.986,23.235 21.081,22.168C21.333,21.916 21.754,21.916 22.007,22.168C22.204,22.449 22.204,22.842 21.951,23.095ZM21.502,18.996C20.126,18.996 19.004,17.874 19.004,16.498C19.004,15.123 20.126,14 21.502,14C22.877,14 24,15.123 24,16.498C24,17.874 22.877,18.996 21.502,18.996Z" fill="#FFFFFF"/>
</svg>
