<svg width="36" height="46" viewBox="0 0 36 46" fill="none" xmlns="http://www.w3.org/2000/svg" xmlns:xlink="http://www.w3.org/1999/xlink">
<path d="M24.353,15.327C27.44,17.541 31.221,18.844 35.305,18.844L35.305,10.957C34.532,10.957 33.761,10.877 33.005,10.716L33.005,16.924C28.921,16.924 25.14,15.621 22.053,13.407L22.053,29.502C22.053,37.553 15.549,44.08 7.527,44.08C4.533,44.08 1.751,43.172 -0.56,41.614C2.078,44.321 5.757,46 9.826,46C17.849,46 24.353,39.473 24.353,31.422L24.353,15.327L24.353,15.327L24.353,15.327ZM27.19,7.37C25.613,5.64 24.577,3.405 24.353,0.934L24.353,-0.08L22.173,-0.08C22.722,3.061 24.593,5.744 27.19,7.37ZM4.514,35.436C3.633,34.276 3.157,32.857 3.159,31.399C3.159,27.716 6.134,24.73 9.804,24.73C10.488,24.73 11.168,24.835 11.819,25.043L11.819,16.98C11.058,16.875 10.289,16.83 9.52,16.847L9.52,23.123C8.868,22.915 8.188,22.81 7.504,22.81C3.834,22.81 0.859,25.796 0.859,29.479C0.859,32.083 2.346,34.337 4.514,35.436Z" fill="#FF004F"/>
</svg>
