<svg width="48" height="28" viewBox="0 0 48 28" fill="none" xmlns="http://www.w3.org/2000/svg" xmlns:xlink="http://www.w3.org/1999/xlink">
<path d="M13.538,27.31C21.014,27.31 27.075,21.197 27.075,13.655C27.075,6.114 21.014,0 13.538,0C6.061,0 0,6.115 0,13.655C0,21.195 6.061,27.31 13.538,27.31Z" fill="#000000"/>
<path d="M41.926,13.655C41.926,20.754 38.895,26.511 35.157,26.511C31.418,26.511 28.388,20.754 28.388,13.655C28.388,6.557 31.418,0.8 35.156,0.8C38.895,0.8 41.926,6.555 41.926,13.655Z" fill="#000000"/>
<path d="M48,13.655C48,20.014 46.934,25.172 45.619,25.172C44.304,25.172 43.239,20.015 43.239,13.655C43.239,7.295 44.305,2.139 45.619,2.139C46.934,2.139 48,7.295 48,13.655Z" fill="#000000"/>
</svg>
