<svg width="48" height="48" viewBox="0 0 48 48" fill="none" xmlns="http://www.w3.org/2000/svg" xmlns:xlink="http://www.w3.org/1999/xlink">
<path d="M3.374,3.374C0,6.748 0,12.179 0,23.04L0,24.96C0,35.821 0,41.252 3.374,44.626C6.748,48 12.179,48 23.04,48L24.96,48C35.821,48 41.252,48 44.626,44.626C48,41.252 48,35.821 48,24.96L48,23.04C48,12.179 48,6.748 44.626,3.374C41.252,0 35.821,0 24.96,0L23.04,0C12.179,0 6.748,0 3.374,3.374ZM8.1,14.6C8.36,27.08 14.6,34.58 25.54,34.58L26.16,34.58L26.16,27.44C30.18,27.84 33.22,30.78 34.44,34.58L40.12,34.58C38.56,28.9 34.46,25.76 31.9,24.56C34.46,23.08 38.06,19.48 38.92,14.6L33.76,14.6C32.64,18.56 29.32,22.16 26.16,22.5L26.16,14.6L21,14.6L21,28.44C17.8,27.64 13.76,23.76 13.58,14.6L8.1,14.6Z" clip-rule="evenodd" fill-rule="evenodd" fill="#000000"/>
</svg>
