<svg width="50" height="34" viewBox="0 0 50 34" fill="none" xmlns="http://www.w3.org/2000/svg" xmlns:xlink="http://www.w3.org/1999/xlink">
<path d="M47.044,4.371C46.773,3.35 46.238,2.418 45.493,1.668C44.748,0.919 43.82,0.378 42.8,0.1C39.048,-0.909 24.048,-0.909 24.048,-0.909C24.048,-0.909 9.048,-0.909 5.295,0.1C4.275,0.378 3.347,0.919 2.602,1.668C1.857,2.418 1.323,3.35 1.051,4.371C0.048,8.14 0.048,16 0.048,16C0.048,16 0.048,23.86 1.051,27.629C1.323,28.65 1.857,29.582 2.602,30.332C3.347,31.081 4.275,31.622 5.295,31.9C9.048,32.909 24.048,32.909 24.048,32.909C24.048,32.909 39.048,32.909 42.8,31.9C43.82,31.622 44.748,31.081 45.493,30.332C46.238,29.582 46.773,28.65 47.044,27.629C48.048,23.86 48.048,16 48.048,16C48.048,16 48.048,8.14 47.044,4.371Z" fill="#FF0302"/>
</svg>
