<svg width="48" height="48" viewBox="0 0 48 48" fill="none" xmlns="http://www.w3.org/2000/svg" xmlns:xlink="http://www.w3.org/1999/xlink">
<path d="M21.286,12.664C21.993,11.958 22.954,11.534 24,11.534C25.074,11.534 26.035,11.958 26.714,12.664C27.42,13.371 27.845,14.332 27.845,15.378C27.845,16.452 27.42,17.413 26.714,18.092C26.007,18.799 25.046,19.223 24,19.223C22.926,19.223 21.965,18.799 21.286,18.092C20.579,17.385 20.155,16.424 20.155,15.378C20.155,14.332 20.608,13.371 21.286,12.664Z" fill="#000000"/>
<path d="M3.364,3.364C0,6.728 0,12.184 0,23.039L0,24.961C0,35.845 0,41.272 3.364,44.636C6.728,48 12.184,48 23.039,48L24.961,48C35.816,48 41.272,48 44.636,44.636C48,41.272 48,35.816 48,24.961L48,23.039C48,12.184 48,6.728 44.636,3.364C41.272,0 35.816,0 24.961,0L23.039,0C12.184,0 6.756,0 3.364,3.364ZM24,23.887C26.346,23.887 28.466,22.926 29.993,21.399C31.519,19.873 32.481,17.753 32.481,15.406C32.481,13.06 31.519,10.94 29.993,9.413C28.466,7.887 26.346,6.926 24,6.926C21.654,6.926 19.534,7.887 18.007,9.413C16.481,10.94 15.519,13.06 15.519,15.406C15.519,17.753 16.481,19.873 18.007,21.399C19.534,22.926 21.682,23.887 24,23.887ZM34.911,27.56L32.423,24.168C32.282,23.97 31.999,23.942 31.829,24.111C29.483,26.118 26.6,27.419 23.49,27.419C20.381,27.419 17.497,26.118 15.151,24.111C14.981,23.97 14.699,23.998 14.557,24.168L12.07,27.56C11.957,27.73 11.985,27.956 12.126,28.097C14.218,29.793 16.649,30.952 19.193,31.546L13.936,40.818C13.794,41.073 13.992,41.412 14.275,41.412L19.42,41.412C19.589,41.412 19.731,41.327 19.787,41.157L23.462,32.959L27.137,41.157C27.193,41.299 27.335,41.412 27.504,41.412L32.649,41.412C32.96,41.412 33.13,41.101 32.989,40.818L27.731,31.546C30.275,30.952 32.706,29.822 34.798,28.097C35.024,27.956 35.052,27.73 34.911,27.56Z" clip-rule="evenodd" fill-rule="evenodd" fill="#000000"/>
</svg>
