<svg width="48" height="48" viewBox="0 0 48 48" fill="none" xmlns="http://www.w3.org/2000/svg" xmlns:xlink="http://www.w3.org/1999/xlink">
<path d="M44.447,0L3.544,0C1.584,0 0,1.547 0,3.459L0,44.531C0,46.444 1.584,48 3.544,48L44.447,48C46.406,48 48,46.444 48,44.541L48,3.459C48,1.547 46.406,0 44.447,0ZM14.241,40.903L7.116,40.903L7.116,17.991L14.241,17.991L14.241,40.903ZM10.678,14.869C8.391,14.869 6.544,13.022 6.544,10.744C6.544,8.466 8.391,6.619 10.678,6.619C12.956,6.619 14.803,8.466 14.803,10.744C14.803,13.013 12.956,14.869 10.678,14.869ZM40.903,40.903L33.787,40.903L33.787,29.766C33.787,27.112 33.741,23.691 30.084,23.691C26.381,23.691 25.819,26.587 25.819,29.578L25.819,40.903L18.712,40.903L18.712,17.991L25.537,17.991L25.537,21.122L25.631,21.122C26.578,19.322 28.903,17.419 32.363,17.419C39.572,17.419 40.903,22.163 40.903,28.331L40.903,40.903L40.903,40.903Z" fill="#000000"/>
</svg>
