<svg width="48" height="48" viewBox="0 0 48 48" fill="none" xmlns="http://www.w3.org/2000/svg" xmlns:xlink="http://www.w3.org/1999/xlink">
<path d="M21.941,0.315C17.591,0.708 13.417,2.29 9.886,4.906C5.777,7.951 2.755,12.236 1.267,17.128C-0.222,22.021 -0.099,27.263 1.618,32.08C3.334,36.897 6.554,41.036 10.801,43.884C15.049,46.733 20.099,48.141 25.208,47.901C30.316,47.661 35.212,45.785 39.174,42.551C43.135,39.317 45.953,34.895 47.21,29.938C48.388,25.294 48.139,20.411 46.507,15.923L46.511,15.962L40.467,20.821C40.948,23.244 40.888,25.758 40.274,28.178C39.393,31.648 37.421,34.743 34.648,37.007C31.875,39.271 28.448,40.584 24.872,40.752C21.296,40.92 17.761,39.935 14.787,37.941C11.814,35.947 9.561,33.05 8.359,29.678C7.157,26.306 7.071,22.637 8.113,19.212C9.155,15.787 11.27,12.787 14.147,10.656C16.444,8.954 19.129,7.877 21.941,7.513L21.941,0.315Z" fill="#000000"/>
<path d="M41.979,8.329L41.954,8.266C38.536,4.406 33.886,1.662 28.62,0.649L28.62,17.346C27.326,16.473 25.767,15.963 24.088,15.963C19.609,15.963 15.977,19.594 15.977,24.073C15.977,28.553 19.609,32.184 24.088,32.184C28.567,32.184 32.198,28.553 32.198,24.073L32.198,9.474C34.502,10.756 36.47,12.568 37.94,14.745L41.979,8.329Z" fill="#000000"/>
</svg>
