<svg width="20" height="24" viewBox="0 0 20 24" fill="none" xmlns="http://www.w3.org/2000/svg" xmlns:xlink="http://www.w3.org/1999/xlink">
<path d="M11.199,12L4.4,12L4.4,4.8L11.199,4.8C11.672,4.8 12.14,4.893 12.577,5.074C13.014,5.255 13.411,5.52 13.745,5.854C14.079,6.189 14.345,6.586 14.525,7.022C14.706,7.459 14.799,7.927 14.799,8.4C14.799,8.873 14.706,9.341 14.525,9.778C14.345,10.214 14.079,10.611 13.745,10.946C13.411,11.28 13.014,11.545 12.577,11.726C12.14,11.907 11.672,12 11.199,12ZM11.199,0L-0.4,0L-0.4,24L4.4,24L4.4,16.8L11.199,16.8C15.839,16.8 19.599,13.039 19.599,8.4C19.599,3.761 15.839,0 11.199,0Z" fill="#FFFFFF"/>
</svg>
