<svg width="48" height="50" viewBox="0 0 48 50" fill="none" xmlns="http://www.w3.org/2000/svg" xmlns:xlink="http://www.w3.org/1999/xlink">
<path d="M23.998,0C10.743,0 -0.002,10.746 -0.002,24C-0.002,34.173 6.319,42.864 15.247,46.36C15.03,44.464 14.852,41.541 15.326,39.467C15.761,37.59 18.131,27.536 18.131,27.536C18.131,27.536 17.42,26.094 17.42,23.98C17.42,20.642 19.356,18.153 21.766,18.153C23.82,18.153 24.807,19.694 24.807,21.531C24.807,23.585 23.504,26.667 22.812,29.531C22.24,31.921 24.017,33.877 26.368,33.877C30.635,33.877 33.914,29.373 33.914,22.894C33.914,17.146 29.785,13.136 23.879,13.136C17.044,13.136 13.035,18.252 13.035,23.546C13.035,25.6 13.825,27.812 14.812,29.017C15.01,29.254 15.03,29.472 14.97,29.709C14.793,30.459 14.378,32.099 14.299,32.435C14.2,32.869 13.943,32.968 13.489,32.751C10.486,31.348 8.61,26.983 8.61,23.447C8.61,15.881 14.101,8.928 24.472,8.928C32.788,8.928 39.267,14.854 39.267,22.795C39.267,31.072 34.052,37.728 26.822,37.728C24.393,37.728 22.101,36.464 21.331,34.963C21.331,34.963 20.126,39.546 19.83,40.672C19.296,42.765 17.835,45.373 16.847,46.973C19.099,47.664 21.469,48.04 23.958,48.04C37.212,48.04 47.958,37.294 47.958,24.04C47.998,10.746 37.252,0 23.998,0Z" fill="#E60019"/>
</svg>
