<svg width="48" height="34" viewBox="0 0 48 34" fill="none" xmlns="http://www.w3.org/2000/svg" xmlns:xlink="http://www.w3.org/1999/xlink">
<path d="M42.847,11.989C42.847,11.989 38.049,13.164 33.984,11.989L33.984,11.986C42.024,10.424 46.657,5.887 48,-0.05L39.966,-0.05C33.062,-0.05 29.351,0.32 26.456,3.855C25.166,2.737 23.704,1.831 22.124,1.176C20.183,0.368 18.101,-0.047 16.001,-0.047L15.998,-0.044C9.529,-0.044 3.694,3.865 1.218,9.862C-1.257,15.856 0.11,22.761 4.686,27.349C9.195,31.873 15.943,33.272 21.86,30.934C22.037,30.864 22.213,30.791 22.387,30.715C26.179,29.061 29.104,26.039 30.685,22.369C37.045,21.902 41.457,18.085 42.847,11.989ZM20.605,17.371L20.553,17.537C20.519,17.641 20.481,17.744 20.439,17.845C20.198,18.429 19.844,18.96 19.399,19.408C18.954,19.855 18.424,20.209 17.841,20.45C17.257,20.692 16.632,20.815 16.001,20.814L16.004,20.817C15.054,20.816 14.125,20.534 13.335,20.005C12.546,19.476 11.931,18.724 11.569,17.845C10.824,16.046 11.236,13.975 12.609,12.599C13.982,11.223 16.046,10.812 17.84,11.557C19.634,12.302 20.802,14.057 20.802,16.004C20.802,16.467 20.736,16.927 20.605,17.371Z" clip-rule="evenodd" fill-rule="evenodd" fill="#000000"/>
</svg>
