<svg width="42" height="48" viewBox="0 0 42 48" fill="none" xmlns="http://www.w3.org/2000/svg" xmlns:xlink="http://www.w3.org/1999/xlink">
<path d="M39.584,37.407C38.858,39.084 37.999,40.628 37.003,42.047C35.646,43.982 34.535,45.321 33.679,46.065C32.352,47.285 30.929,47.91 29.406,47.946C28.313,47.946 26.995,47.635 25.46,47.004C23.92,46.376 22.505,46.065 21.211,46.065C19.854,46.065 18.399,46.376 16.842,47.004C15.283,47.635 14.027,47.964 13.067,47.996C11.606,48.059 10.151,47.416 8.698,46.065C7.77,45.256 6.61,43.869 5.221,41.905C3.73,39.807 2.504,37.374 1.544,34.601C0.516,31.606 0,28.705 0,25.897C0,22.68 0.695,19.906 2.087,17.581C3.182,15.713 4.637,14.24 6.459,13.159C8.281,12.077 10.249,11.526 12.369,11.491C13.529,11.491 15.05,11.85 16.941,12.555C18.826,13.262 20.036,13.621 20.567,13.621C20.963,13.621 22.308,13.202 24.587,12.365C26.743,11.589 28.562,11.268 30.052,11.395C34.091,11.721 37.125,13.313 39.142,16.181C35.531,18.369 33.744,21.434 33.78,25.366C33.812,28.429 34.923,30.978 37.107,33.001C38.097,33.94 39.202,34.666 40.431,35.182C40.165,35.955 39.883,36.696 39.584,37.407L39.584,37.407ZM30.322,0.961C30.322,3.361 29.445,5.603 27.697,7.677C25.587,10.144 23.036,11.569 20.269,11.344C20.233,11.056 20.213,10.753 20.213,10.434C20.213,8.13 21.216,5.663 22.998,3.647C23.887,2.626 25.018,1.777 26.39,1.1C27.759,0.433 29.054,0.064 30.272,0C30.307,0.321 30.322,0.642 30.322,0.961L30.322,0.961Z" fill="#000000"/>
</svg>
