<svg width="44" height="46" viewBox="0 0 44 46" fill="none" xmlns="http://www.w3.org/2000/svg" xmlns:xlink="http://www.w3.org/1999/xlink">
<path d="M27.116,18.493C26.965,18.493 26.821,18.435 26.712,18.332C26.603,18.228 26.538,18.086 26.53,17.936C26.431,15.944 25.492,14.969 23.577,14.866C23.424,14.854 23.282,14.782 23.182,14.667C23.081,14.552 23.029,14.402 23.037,14.249C23.045,14.096 23.113,13.953 23.226,13.849C23.338,13.745 23.487,13.69 23.64,13.694C26.167,13.833 27.572,15.277 27.702,17.878C27.706,17.955 27.694,18.032 27.668,18.104C27.642,18.177 27.603,18.244 27.551,18.301C27.499,18.358 27.437,18.404 27.367,18.437C27.297,18.47 27.222,18.489 27.145,18.493L27.116,18.493Z" fill="#000000"/>
<path d="M30.113,19.503L30.127,19.503C30.281,19.502 30.428,19.442 30.538,19.334C30.647,19.227 30.71,19.08 30.714,18.927C30.765,16.636 30.064,14.685 28.654,13.143C27.244,11.601 25.261,10.725 22.76,10.542C22.605,10.531 22.451,10.582 22.333,10.684C22.215,10.786 22.142,10.93 22.131,11.086C22.12,11.241 22.17,11.395 22.272,11.513C22.374,11.631 22.519,11.703 22.674,11.715C24.897,11.878 26.565,12.602 27.789,13.937C29.013,15.272 29.586,16.897 29.54,18.902C29.537,19.058 29.595,19.209 29.703,19.321C29.81,19.434 29.958,19.499 30.113,19.503Z" fill="#000000"/>
<path d="M33.209,20.707C33.055,20.707 32.906,20.645 32.796,20.536C32.686,20.427 32.624,20.279 32.623,20.124C32.595,16.537 31.562,13.796 29.464,11.748C27.391,9.729 24.771,8.693 21.678,8.671C21.601,8.671 21.525,8.655 21.454,8.625C21.383,8.596 21.318,8.552 21.264,8.498C21.154,8.387 21.093,8.238 21.093,8.082C21.094,7.926 21.156,7.777 21.267,7.667C21.377,7.558 21.527,7.497 21.682,7.497L21.687,7.497C25.093,7.522 27.985,8.669 30.283,10.909C32.582,13.148 33.766,16.251 33.797,20.117C33.798,20.273 33.738,20.422 33.628,20.533C33.519,20.644 33.371,20.707 33.215,20.708L33.209,20.707Z" fill="#000000"/>
<path d="M24.994,25.289C24.549,25.837 23.724,25.767 23.724,25.767C17.694,24.228 16.081,18.12 16.081,18.12C16.081,18.12 16.008,17.295 16.558,16.851L17.648,15.985C18.188,15.568 18.533,14.558 17.983,13.572C17.561,12.831 17.102,12.112 16.608,11.417C16.129,10.762 15.011,9.421 15.007,9.417C14.468,8.781 13.676,8.633 12.84,9.068C12.838,9.068 12.834,9.07 12.831,9.071C12.828,9.072 12.825,9.073 12.823,9.073C11.992,9.551 11.243,10.16 10.603,10.874C10.601,10.879 10.599,10.881 10.597,10.883C10.595,10.885 10.593,10.887 10.591,10.89C10.075,11.513 9.779,12.124 9.705,12.722C9.689,12.81 9.684,12.9 9.689,12.99C9.686,13.254 9.726,13.517 9.808,13.768L9.836,13.787C10.097,14.712 10.748,16.252 12.164,18.82C12.974,20.305 13.909,21.719 14.957,23.046C15.482,23.712 16.045,24.347 16.643,24.948C16.65,24.955 16.657,24.962 16.665,24.969C16.679,24.984 16.693,24.998 16.707,25.012L16.899,25.204C17.5,25.802 18.135,26.365 18.801,26.89C20.128,27.939 21.543,28.873 23.028,29.683C25.595,31.099 27.136,31.75 28.06,32.011L28.079,32.039C28.33,32.121 28.593,32.162 28.858,32.159C28.947,32.163 29.037,32.158 29.125,32.142C29.724,32.071 30.334,31.776 30.955,31.257C30.959,31.255 30.961,31.253 30.963,31.251C30.965,31.249 30.967,31.247 30.971,31.245C31.686,30.605 32.294,29.856 32.774,29.025C32.774,29.023 32.775,29.02 32.775,29.017C32.776,29.014 32.777,29.01 32.777,29.008C33.212,28.172 33.065,27.38 32.426,26.841C32.425,26.841 32.373,26.798 32.284,26.725C31.922,26.427 30.952,25.627 30.425,25.239C29.731,24.746 29.013,24.287 28.273,23.865C27.285,23.315 26.277,23.66 25.86,24.2L24.994,25.289Z" fill="#000000"/>
<path d="M39.033,3.719C37.88,2.656 33.221,-0.727 22.844,-0.773C22.844,-0.773 10.606,-1.511 4.64,3.962C1.319,7.283 0.15,12.144 0.027,18.169C-0.096,24.195 -0.255,35.488 10.63,38.55L10.64,38.55L10.633,43.222C10.633,43.222 10.564,45.113 11.809,45.499C13.067,45.89 13.89,44.953 14.965,43.731C15.178,43.489 15.4,43.236 15.638,42.98C16.428,42.129 17.518,40.879 18.34,39.924C25.784,40.55 31.51,39.118 32.16,38.907C32.295,38.863 32.485,38.815 32.72,38.755C35.126,38.143 42.293,36.321 43.553,26.038C44.98,14.399 42.862,7.038 39.033,3.719ZM40.295,25.203C39.244,33.692 33.546,35.018 31.493,35.496C31.266,35.549 31.083,35.591 30.957,35.632C30.416,35.806 25.387,37.057 19.063,36.644C19.063,36.644 14.351,42.329 12.879,43.807C12.65,44.038 12.379,44.131 12.199,44.085C11.946,44.023 11.876,43.723 11.879,43.284C11.883,42.658 11.919,35.52 11.919,35.52C3.015,33.048 3.223,23.98 3.341,18.833C3.345,18.657 3.349,18.486 3.352,18.32C3.457,13.287 4.402,9.164 7.211,6.391C12.257,1.82 22.652,2.503 22.652,2.503C31.431,2.541 35.637,5.185 36.613,6.07C39.851,8.844 41.501,15.479 40.295,25.2L40.295,25.203Z" clip-rule="evenodd" fill-rule="evenodd" fill="#000000"/>
</svg>
