<svg width="40" height="48" viewBox="0 0 40 48" fill="none" xmlns="http://www.w3.org/2000/svg" xmlns:xlink="http://www.w3.org/1999/xlink">
<path d="M12.8,30.286L15.052,29.774C15.099,29.764 15.179,29.746 15.273,29.716C15.895,29.552 16.428,29.158 16.759,28.616C17.091,28.074 17.196,27.427 17.051,26.811L17.042,26.772C16.967,26.477 16.837,26.198 16.658,25.95C16.406,25.636 16.094,25.373 15.739,25.176C15.322,24.943 14.885,24.744 14.433,24.583L11.964,23.697C10.579,23.191 9.193,22.7 7.793,22.218C6.887,21.902 6.118,21.624 5.451,21.42C5.323,21.385 5.197,21.347 5.072,21.306C4.266,21.064 3.698,20.963 3.218,20.96C2.898,20.948 2.579,21.005 2.283,21.127C1.974,21.258 1.697,21.451 1.469,21.695C1.356,21.821 1.25,21.952 1.151,22.089C0.958,22.379 0.799,22.69 0.677,23.016C0.218,24.345 -0.011,25.741 0,27.145C0.009,28.413 0.044,30.041 0.755,31.145C0.927,31.429 1.156,31.674 1.429,31.864C1.936,32.207 2.446,32.253 2.98,32.29C3.775,32.345 4.544,32.155 5.313,31.979L12.795,30.284L12.8,30.286ZM37.925,18.552C37.311,17.286 36.484,16.129 35.48,15.131C35.35,15.004 35.211,14.887 35.064,14.78C34.928,14.679 34.786,14.586 34.64,14.501C34.49,14.42 34.336,14.347 34.177,14.282C33.865,14.162 33.53,14.108 33.195,14.123C32.875,14.14 32.562,14.229 32.278,14.377C31.849,14.586 31.384,14.923 30.766,15.486C30.681,15.57 30.574,15.664 30.476,15.752C29.968,16.223 29.4,16.803 28.725,17.478C27.682,18.513 26.656,19.554 25.634,20.603L23.807,22.463C23.473,22.803 23.17,23.169 22.899,23.559C22.667,23.889 22.503,24.259 22.416,24.651C22.367,24.951 22.374,25.258 22.438,25.556L22.447,25.595C22.591,26.21 22.973,26.747 23.512,27.091C24.051,27.436 24.706,27.561 25.337,27.442C25.413,27.431 25.489,27.417 25.563,27.399L35.299,25.19C36.068,25.016 36.845,24.857 37.535,24.463C37.998,24.202 38.437,23.941 38.739,23.415C38.9,23.126 38.998,22.806 39.025,22.478C39.175,21.175 38.482,19.696 37.925,18.552ZM20.497,22.57C21.202,21.7 21.202,20.404 21.264,19.342C21.477,15.8 21.7,12.259 21.879,8.715C21.946,7.373 22.092,6.048 22.011,4.695C21.944,3.58 21.937,2.299 21.219,1.383C19.952,-0.233 17.25,-0.1 15.407,0.152C14.838,0.229 14.274,0.334 13.715,0.465C13.155,0.596 12.597,0.74 12.055,0.912C10.286,1.48 7.798,2.524 7.379,4.525C7.14,5.656 7.704,6.812 8.139,7.845C8.669,9.095 9.39,10.222 10.049,11.399C11.791,14.508 13.563,17.599 15.331,20.692C15.861,21.615 16.434,22.783 17.456,23.262C17.525,23.291 17.594,23.316 17.664,23.339C18.122,23.509 18.623,23.541 19.099,23.433L19.184,23.415C19.625,23.296 20.023,23.06 20.336,22.735C20.394,22.682 20.444,22.629 20.497,22.57ZM19.652,32.052C19.377,31.672 18.986,31.387 18.536,31.238C18.085,31.089 17.599,31.084 17.145,31.223C17.038,31.258 16.934,31.3 16.834,31.349C16.678,31.427 16.53,31.518 16.391,31.621C15.992,31.929 15.637,32.286 15.332,32.684C15.255,32.782 15.182,32.912 15.088,32.997L13.522,35.109C12.635,36.295 11.758,37.483 10.892,38.689C10.324,39.468 9.835,40.127 9.446,40.707C9.374,40.817 9.298,40.938 9.229,41.038C8.764,41.741 8.502,42.255 8.366,42.713C8.265,43.018 8.233,43.34 8.272,43.658C8.316,43.988 8.43,44.306 8.605,44.592C8.699,44.734 8.801,44.872 8.909,45.005C9.144,45.27 9.407,45.509 9.696,45.716C10.778,46.454 11.961,46.985 13.205,47.395C14.242,47.732 15.318,47.935 16.407,47.995C16.593,48.004 16.78,48.001 16.964,47.985C17.135,47.969 17.305,47.945 17.474,47.914C17.643,47.875 17.81,47.828 17.973,47.772C18.292,47.654 18.581,47.473 18.824,47.239C19.053,47.013 19.231,46.742 19.341,46.442C19.522,45.998 19.641,45.437 19.721,44.602C19.726,44.484 19.744,44.341 19.757,44.212C19.818,43.519 19.847,42.703 19.891,41.748C19.969,40.276 20.028,38.811 20.075,37.343L20.177,34.73C20.2,34.129 20.18,33.462 20.01,32.864C19.935,32.576 19.815,32.302 19.652,32.052ZM37.33,36.141C37.005,35.788 36.542,35.438 35.811,35.005C35.706,34.946 35.581,34.87 35.467,34.802C34.859,34.442 34.127,34.066 33.271,33.609C31.956,32.899 30.641,32.21 29.311,31.525L26.965,30.304C26.844,30.268 26.721,30.183 26.605,30.128C26.154,29.902 25.675,29.734 25.18,29.629C25.009,29.597 24.836,29.579 24.663,29.576C24.55,29.575 24.438,29.582 24.326,29.595C23.857,29.666 23.422,29.881 23.084,30.209C22.746,30.537 22.522,30.962 22.445,31.422C22.411,31.715 22.421,32.011 22.479,32.299C22.593,32.913 22.872,33.519 23.161,34.05L24.413,36.356C25.111,37.655 25.817,38.948 26.54,40.237C27.007,41.077 27.396,41.796 27.759,42.392C27.828,42.504 27.906,42.625 27.966,42.729C28.409,43.445 28.763,43.896 29.123,44.221C29.363,44.447 29.651,44.619 29.966,44.723C30.281,44.827 30.616,44.862 30.947,44.824C31.119,44.804 31.29,44.774 31.459,44.736C31.805,44.645 32.139,44.515 32.455,44.35C33.407,43.827 34.285,43.182 35.066,42.433C36.003,41.528 36.831,40.54 37.475,39.411C37.565,39.251 37.641,39.086 37.706,38.914C37.767,38.756 37.82,38.596 37.864,38.433C37.902,38.266 37.931,38.099 37.951,37.931C37.983,37.599 37.944,37.265 37.837,36.949C37.731,36.646 37.558,36.371 37.33,36.141Z" fill="#000000"/>
</svg>
