<svg width="42" height="48" viewBox="0 0 42 48" fill="none" xmlns="http://www.w3.org/2000/svg" xmlns:xlink="http://www.w3.org/1999/xlink">
<path d="M31.384,22.247C31.177,22.148 30.967,22.053 30.755,21.961C30.384,15.135 26.654,11.226 20.39,11.186C20.362,11.186 20.334,11.186 20.306,11.186C16.559,11.186 13.443,12.785 11.525,15.695L14.97,18.058C16.403,15.885 18.651,15.421 20.307,15.421C20.326,15.421 20.345,15.421 20.364,15.421C22.427,15.435 23.983,16.034 24.99,17.204C25.723,18.055 26.213,19.231 26.456,20.716C24.628,20.405 22.65,20.31 20.536,20.431C14.581,20.774 10.753,24.247 11.01,29.073C11.14,31.521 12.36,33.627 14.444,35.003C16.206,36.166 18.475,36.735 20.833,36.606C23.948,36.435 26.391,35.247 28.095,33.074C29.39,31.424 30.208,29.286 30.57,26.591C32.054,27.487 33.154,28.666 33.762,30.083C34.795,32.492 34.855,36.45 31.625,39.677C28.796,42.504 25.394,43.727 20.253,43.765C14.551,43.722 10.238,41.894 7.435,38.329C4.809,34.992 3.452,30.17 3.401,24C3.452,17.829 4.809,13.008 7.435,9.671C10.238,6.106 14.551,4.277 20.253,4.235C25.997,4.278 30.385,6.115 33.296,9.697C34.724,11.453 35.8,13.662 36.509,16.238L40.546,15.161C39.686,11.991 38.333,9.259 36.491,6.994C32.759,2.402 27.301,0.049 20.267,0L20.239,0C13.22,0.049 7.823,2.41 4.197,7.02C0.97,11.122 -0.694,16.829 -0.75,23.983L-0.75,24L-0.75,24.017C-0.694,31.171 0.97,36.879 4.197,40.98C7.823,45.59 13.22,47.951 20.239,48L20.267,48C26.508,47.957 30.906,46.323 34.529,42.703C39.27,37.966 39.127,32.03 37.565,28.385C36.444,25.772 34.307,23.649 31.384,22.247ZM20.61,32.377C18,32.524 15.289,31.352 15.155,28.843C15.056,26.983 16.479,24.906 20.77,24.659C21.262,24.631 21.744,24.617 22.218,24.617C23.777,24.617 25.235,24.768 26.56,25.058C26.066,31.234 23.166,32.236 20.61,32.377Z" fill="#000000"/>
</svg>
