<svg width="40" height="48" viewBox="0 0 40 48" fill="none" xmlns="http://www.w3.org/2000/svg" xmlns:xlink="http://www.w3.org/1999/xlink">
<path d="M1.323,28.673L9.602,0L22.326,0L19.761,8.889C19.736,8.94 19.71,8.99 19.685,9.041L12.929,32.508L19.228,32.508C16.587,39.086 14.529,44.241 13.056,47.975C1.425,47.848 -1.826,39.517 1.018,29.663M13.107,48L28.447,25.93L21.945,25.93L27.609,11.784C37.31,12.8 41.882,20.444 39.19,29.689C36.32,39.619 24.688,48 13.361,48C13.26,48 13.183,48 13.107,48Z" fill="url(#pf_0_15_14)"/>
<defs>
<linearGradient id="pf_0_15_14" x1="26.917" y1="6.234" x2="10.539" y2="62.09" gradientUnits="userSpaceOnUse">
<stop stop-color="#EF7829"/>
<stop offset="0.052" stop-color="#F07529"/>
<stop offset="0.355" stop-color="#F0672B"/>
<stop offset="0.667" stop-color="#F15E2C"/>
<stop offset="1" stop-color="#F15A2C"/>
</linearGradient>
</defs>
</svg>
