<svg width="48" height="48" viewBox="0 0 48 48" fill="none" xmlns="http://www.w3.org/2000/svg" xmlns:xlink="http://www.w3.org/1999/xlink">
<path d="M18.767,13.048C13.771,16.483 8.498,20.079 0.003,20.08C0.031,11.162 0.322,6.427 3.374,3.374C6.748,0 12.179,0 23.04,0L24.96,0C35.821,0 41.252,0 44.626,3.374C47.026,5.774 47.719,9.215 47.919,14.911C46.419,13.698 44.209,11.934 41.558,10.456C38.784,8.91 35.396,7.6 31.68,7.6C26.686,7.6 22.738,10.316 18.997,12.889L18.767,13.048Z" fill="#000000"/>
<path d="M48,23.023C48,21.786 48,20.619 47.995,19.518C47.566,19.522 47.133,19.388 46.766,19.108C46.43,18.852 46.04,18.537 45.631,18.206L45.61,18.189C44.1,16.966 42.05,15.31 39.61,13.95C37.168,12.588 34.465,11.6 31.68,11.6C28.04,11.6 25.065,13.572 21.034,16.344L20.967,16.39C15.94,19.846 9.784,24.08 0,24.08L0,24.96C0,35.821 0,41.252 3.374,44.626C6.599,47.851 11.702,47.993 21.629,48C22.089,48 22.559,48 23.04,48L24.96,48C25.441,48 25.911,48 26.371,48C36.298,47.993 41.401,47.851 44.626,44.626C48,41.252 48,35.821 48,24.96L48,23.023ZM29.52,18.948C29.52,17.762 30.494,16.8 31.68,16.8C32.867,16.8 33.84,17.762 33.84,18.948L33.84,38.652C33.84,39.838 32.867,40.8 31.68,40.8C30.494,40.8 29.52,39.838 29.52,38.652L29.52,18.948ZM37.2,24.468C37.2,23.282 38.174,22.32 39.36,22.32C40.547,22.32 41.52,23.282 41.52,24.468L41.52,33.132C41.52,34.318 40.547,35.28 39.36,35.28C38.174,35.28 37.2,34.318 37.2,33.132L37.2,24.468ZM21.84,24.468C21.84,23.282 22.814,22.32 24,22.32C25.187,22.32 26.16,23.282 26.16,24.468L26.16,33.132C26.16,34.318 25.187,35.28 24,35.28C22.814,35.28 21.84,34.318 21.84,33.132L21.84,24.468ZM14.16,27.588C14.16,26.402 15.133,25.44 16.32,25.44C17.506,25.44 18.48,26.402 18.48,27.588L18.48,30.012C18.48,31.198 17.506,32.16 16.32,32.16C15.133,32.16 14.16,31.198 14.16,30.012L14.16,27.588ZM6.48,27.588C6.48,26.402 7.453,25.44 8.64,25.44C9.826,25.44 10.8,26.402 10.8,27.588L10.8,30.012C10.8,31.198 9.826,32.16 8.64,32.16C7.453,32.16 6.48,31.198 6.48,30.012L6.48,27.588Z" clip-rule="evenodd" fill-rule="evenodd" fill="#000000"/>
</svg>
