<svg width="48" height="46" viewBox="0 0 48 46" fill="none" xmlns="http://www.w3.org/2000/svg" xmlns:xlink="http://www.w3.org/1999/xlink">
<path d="M18.499,7C18.499,7.515 18.555,8.017 18.66,8.5L25.001,8.5C25.53,8.502 26.038,8.713 26.413,9.088C26.787,9.462 26.998,9.97 27,10.5L27,13.839C26.783,13.886 26.565,13.923 26.347,13.95C29.813,13.531 32.5,10.579 32.5,7C32.5,3.134 29.366,-0.001 25.499,-0.001C21.633,-0.001 18.499,3.134 18.499,7Z" fill="#000000"/>
<path d="M46.501,9.25C46.501,12.15 44.15,14.5 41.251,14.5C38.351,14.5 36.001,12.15 36.001,9.25C36.001,6.351 38.351,4 41.251,4C44.15,4 46.501,6.351 46.501,9.25Z" fill="#000000"/>
<path d="M45.75,16C46.347,16 46.919,16.238 47.341,16.659C47.763,17.081 48,17.654 48,18.25L48,29.408C47.999,30.524 47.749,31.626 47.269,32.634C46.788,33.642 46.089,34.53 45.222,35.234C44.355,35.937 43.342,36.438 42.257,36.701C41.172,36.963 40.042,36.981 38.949,36.751C38.256,36.591 37.594,36.337 36.98,36C36.564,37.366 35.904,38.656 35.024,39.804C33.417,41.9 31.163,43.407 28.612,44.091C26.062,44.774 23.356,44.597 20.917,43.586C18.477,42.576 16.439,40.788 15.119,38.501C14.831,38.021 14.58,37.519 14.369,37.001L25.004,37.001C25.152,37.003 25.298,36.982 25.439,36.941C25.881,36.845 26.277,36.6 26.561,36.248C26.845,35.896 26.999,35.458 26.999,35.006L26.999,16L45.75,16Z" fill="#000000"/>
<path d="M1.999,10L22,10C22.531,10 23.039,10.211 23.414,10.586C23.789,10.961 24,11.469 24,12L24,32.001C24,32.531 23.789,33.04 23.414,33.415C23.039,33.79 22.531,34 22,34L1.999,34C1.469,34 0.961,33.79 0.586,33.415C0.211,33.04 0,32.531 0,32.001L0,12C0,11.469 0.211,10.961 0.586,10.586C0.961,10.211 1.469,10 1.999,10ZM17.97,17.463L13.485,17.463L13.485,29.493L10.542,29.493L10.542,17.463L6.03,17.463L6.03,14.508L17.97,14.508L17.97,17.463Z" clip-rule="evenodd" fill-rule="evenodd" fill="#000000"/>
</svg>
