<svg width="42" height="48" viewBox="0 0 42 48" fill="none" xmlns="http://www.w3.org/2000/svg" xmlns:xlink="http://www.w3.org/1999/xlink">
<path d="M30.145,0L22.056,0L22.056,32.696C22.056,36.591 18.944,39.791 15.073,39.791C11.201,39.791 8.089,36.591 8.089,32.696C8.089,28.87 11.132,25.739 14.865,25.6L14.865,17.391C6.637,17.53 0,24.278 0,32.696C0,41.183 6.776,48 15.142,48C23.508,48 30.283,41.113 30.283,32.696L30.283,15.93C33.325,18.157 37.059,19.478 41,19.548L41,11.339C34.916,11.13 30.145,6.122 30.145,0Z" fill="#000000"/>
</svg>
