<svg width="46" height="48" viewBox="0 0 46 48" fill="none" xmlns="http://www.w3.org/2000/svg" xmlns:xlink="http://www.w3.org/1999/xlink">
<path d="M6.663,25.295C11.875,24.174 11.164,17.932 11.011,16.569C10.754,14.465 8.284,10.792 4.932,11.085C0.713,11.462 0.097,17.563 0.097,17.563C-0.475,20.388 1.46,26.419 6.663,25.295ZM16.341,14.832C19.218,14.832 21.544,11.513 21.544,7.414C21.544,3.314 19.218,0 16.341,0C13.463,0 11.132,3.313 11.132,7.414C11.132,11.513 13.462,14.832 16.341,14.832ZM28.745,15.32C32.596,15.825 35.064,11.712 35.557,8.596C36.062,5.484 33.573,1.865 30.853,1.243C28.121,0.615 24.71,4.993 24.403,7.849C24.028,11.343 24.897,14.826 28.745,15.32L28.745,15.32ZM43.996,20.555C43.996,19.065 42.764,14.572 38.172,14.572C33.573,14.572 32.965,18.812 32.965,21.807C32.965,24.666 33.203,28.654 38.916,28.53C44.622,28.404 43.996,22.056 43.996,20.555L43.996,20.555ZM38.172,33.639C38.172,33.639 32.22,29.029 28.744,24.045C24.027,16.696 17.332,19.689 15.095,23.421C12.863,27.162 9.395,29.525 8.898,30.152C8.397,30.767 1.708,34.385 3.192,40.992C4.68,47.594 9.896,47.469 9.896,47.469C9.896,47.469 13.741,47.846 18.199,46.847C22.668,45.851 26.511,47.091 26.511,47.091C26.511,47.091 36.934,50.59 39.782,43.858C42.633,37.132 38.173,33.639 38.173,33.639Z" fill="#2319DC"/>
</svg>
