<svg width="62" height="62" viewBox="0 0 62 62" fill="none" xmlns="http://www.w3.org/2000/svg" xmlns:xlink="http://www.w3.org/1999/xlink">
<path d="M0,62L4.379,46.079C1.677,41.419 0.257,36.136 0.26,30.718C0.267,13.782 14.115,0 31.13,0C39.387,0.003 47.137,3.203 52.967,9.011C58.794,14.818 62.003,22.537 62,30.747C61.992,47.686 48.144,61.468 31.13,61.468C25.964,61.465 20.874,60.176 16.366,57.727L0,62ZM17.124,52.165C21.474,54.736 25.627,56.275 31.119,56.278C45.261,56.278 56.78,44.823 56.788,30.742C56.793,16.631 45.328,5.193 31.14,5.187C16.989,5.187 5.477,16.642 5.472,30.721C5.469,36.469 7.161,40.773 10.004,45.275L7.411,54.699L17.124,52.165ZM46.68,38.05C46.488,37.73 45.974,37.538 45.201,37.153C44.43,36.769 40.638,34.911 39.929,34.655C39.223,34.4 38.709,34.271 38.193,35.04C37.679,35.808 36.199,37.538 35.75,38.05C35.301,38.561 34.849,38.626 34.078,38.241C33.308,37.856 30.821,37.048 27.875,34.431C25.583,32.395 24.033,29.881 23.584,29.112C23.135,28.344 23.537,27.928 23.922,27.546C24.269,27.202 24.693,26.65 25.079,26.2C25.471,25.756 25.598,25.435 25.858,24.921C26.115,24.41 25.988,23.96 25.793,23.576C25.598,23.193 24.057,19.414 23.415,17.877C22.787,16.381 22.151,16.582 21.679,16.559L20.199,16.533C19.685,16.533 18.85,16.725 18.144,17.494C17.438,18.264 15.444,20.119 15.444,23.898C15.444,27.678 18.209,31.328 18.593,31.84C18.979,32.351 24.031,40.106 31.768,43.431C33.609,44.222 35.047,44.694 36.165,45.048C38.013,45.632 39.695,45.549 41.024,45.353C42.507,45.133 45.588,43.496 46.231,41.703C46.875,39.907 46.875,38.37 46.68,38.05Z" fill="#000000"/>
</svg>
