<svg width="48" height="48" viewBox="0 0 48 48" fill="none" xmlns="http://www.w3.org/2000/svg" xmlns:xlink="http://www.w3.org/1999/xlink">
<path d="M3.374,3.374C0.101,6.647 0.003,11.856 0,22.08C9.162,22.08 14.883,18.146 19.901,14.696C23.821,12 27.312,9.6 31.68,9.6C38.182,9.6 43.859,14.197 46.869,16.634C47.294,16.978 47.665,17.279 47.978,17.518C47.883,10.229 47.372,6.12 44.626,3.374C41.252,0 35.821,0 24.96,0L23.04,0C12.179,0 6.748,0 3.374,3.374ZM21.629,48C22.089,48 22.559,48 23.04,48L24.96,48C25.441,48 25.911,48 26.371,48L21.629,48Z" clip-rule="evenodd" fill-rule="evenodd" fill="#0077FF"/>
</svg>
